<svg xmlns="http://www.w3.org/2000/svg" viewBox="0 0 800 800" enable-background="new 0 0 800 800"><path fill="#230962" d="M735.9 800h-671.8c-35.4 0-64.1-28.7-64.1-64.1v-671.8c0-35.4 28.7-64.1 64.1-64.1h671.9c35.3 0 64 28.7 64 64.1v671.9c0 35.3-28.7 64-64.1 64z"/><path fill="#fff" d="M302.1 82h195.7v195.7h-195.7zM302.1 527.3h195.7v195.7h-195.7zM81.2 302.2h195.7v195.7h-195.7zM277.2 277.8h-195.8v-156.7c0-21.6 17.5-39.1 39.1-39.1h156.7v195.8zM522.3 277.8v-195.8h156.7c21.6 0 39.1 17.5 39.1 39.1v156.7h-195.8zM277.7 723h-156.7c-21.5 0-39-17.5-39-39.1v-156.6h195.7v195.7z"/><text transform="translate(95.192 139.977)" font-family="'Lato-Heavy'" font-size="55.816">1</text><text transform="translate(95.192 579.021)" font-family="'Lato-Heavy'" font-size="55.816">2</text></svg>