<svg xmlns="http://www.w3.org/2000/svg" viewBox="0 0 800 800" enable-background="new 0 0 800 800"><path fill="#230962" d="M41 236.9s-4.7-59 21.2-92.1l90.9-49.6 221.9-48.4s30.7-8.3 63.7-7.1c33.1 1.2 79.1 11.8 92.1 18.9 13 7.1 161.7 79.6 161.7 79.6s33.1 23.1 51.9 59.7c18.9 36.6 9.4 85 9.4 85l-17.7 227.8s-2.4 53.1-20.1 77.9-35.4 51.9-61.4 64.9-206.6 88.5-244.4 98c-37.8 9.4-63.7 9.4-92.1 5.9l-61.4-26s-150.8-129.7-173.2-163.9-33.1-94.4-34.2-118c-1.2-23.7-8.3-212.6-8.3-212.6z"/><path fill="#0048DE" d="M102.4 160.2s155.8 109.8 177.1 171.2l41.3 331.7s-9.4-258.5 40.1-308.1 114.5-98 252.6-134.6c0 0-229 59-272.7 55.5s-75.5-3.5-238.4-115.7z"/><path d="M593.5 399.7" fill="none"/><path fill="#fff" d="M602.1 405.9c-19.3-14.4-13.6-51.4 4.8-75.9 18.4-24.5 46-39.8 65.3-25.4 19.3 14.4 10.3 46.6-4.6 73.5-11.9 21.6-46.2 42.2-65.5 27.8zm-74.2-265.2c.5-14.8 34.2-18.1 44.5-18.4 13.6-.4 28.9 2.8 41.6 7.5 18 6.7 24.2 22.1 1.4 29.9-23.5 8.1-53.1 9.2-75.5-2.8-3.8-2-7.4-4.7-9.6-8.4-1.8-2.9-2.5-5.5-2.4-7.8zm-114.7-59.4c.5-14.8 34.2-18.1 44.5-18.4 13.6-.4 28.9 2.8 41.6 7.5 18 6.7 24.2 22.1 1.4 29.9-23.5 8.1-53.1 9.2-75.5-2.8-3.8-2-7.4-4.7-9.6-8.4-1.8-2.9-2.5-5.5-2.4-7.8zm0 91.2c.5-14.8 34.2-18.1 44.5-18.4 13.6-.4 28.9 2.8 41.6 7.5 18 6.7 24.2 22.1 1.4 29.9-23.5 8.1-53.1 9.2-75.5-2.8-3.8-2-7.4-4.7-9.6-8.4-1.8-2.9-2.5-5.5-2.4-7.8zm-116.9-60.2c.5-14.8 34.2-18.1 44.5-18.4 13.6-.4 28.9 2.8 41.6 7.5 18 6.7 24.2 22.1 1.4 29.9-23.5 8.1-53.1 9.2-75.5-2.8-3.8-2-7.4-4.7-9.6-8.4-1.7-3-2.4-5.5-2.4-7.8zm-8.9 94.4c.5-14.8 34.2-18.1 44.5-18.4 13.6-.4 28.9 2.8 41.6 7.5 18 6.7 24.2 22.1 1.4 29.9-23.5 8.1-53.1 9.2-75.5-2.8-3.8-2-7.4-4.7-9.6-8.4-1.8-3-2.5-5.5-2.4-7.8zm-115.6-66c.5-14.8 34.2-18.1 44.5-18.4 13.6-.4 28.9 2.8 41.6 7.5 18 6.7 24.2 22.1 1.4 29.9-23.5 8.1-53.1 9.2-75.5-2.8-3.8-2-7.4-4.7-9.6-8.4-1.7-2.9-2.5-5.5-2.4-7.8zm336 396c-19.3-14.4-13.6-51.4 4.8-75.9 18.4-24.5 46-39.8 65.3-25.4 19.3 14.4 10.3 46.6-4.6 73.5-11.9 21.6-46.2 42.2-65.5 27.8zm-92.5 131.6c-19.3-14.4-13.6-51.4 4.8-75.9s46-39.8 65.3-25.4 10.3 46.6-4.6 73.5c-12 21.7-46.2 42.3-65.5 27.8zm-294.1-304.7c-6.2-.4-12.2-5.5-16.7-11-15.6-19-25.4-42.7-27.5-67.2-1.7-19.6 8-53.4 32.8-32.4 9.2 7.8 14.9 19.1 19.4 30.3 7.4 18.5 12.5 38.6 9.7 58.4-.8 5.9-2.5 12-6.4 16.5-3.7 4.2-7.5 5.7-11.3 5.4zm120.7 291.4c-6.2-.4-12.2-5.5-16.7-11-15.6-19-25.4-42.7-27.5-67.2-1.7-19.6 8-53.4 32.8-32.4 9.2 7.8 14.9 19.1 19.4 30.3 7.4 18.5 12.5 38.6 9.7 58.4-.8 5.9-2.5 12-6.4 16.5-3.7 4.2-7.6 5.7-11.3 5.4z"/></svg>