<?xml version="1.0" encoding="utf-8"?>
<!-- Generator: Adobe Illustrator 19.1.0, SVG Export Plug-In . SVG Version: 6.00 Build 0)  -->
<svg version="1.1" id="Layer_1" xmlns="http://www.w3.org/2000/svg" xmlns:xlink="http://www.w3.org/1999/xlink" x="0px" y="0px"
	 viewBox="0 0 800 800" enable-background="new 0 0 800 800" xml:space="preserve">
<path fill="#230962" d="M41,236.9c0,0-4.7-59,21.2-92.1s90.9-49.6,90.9-49.6l221.9-48.4c0,0,30.7-8.3,63.7-7.1
	c33.1,1.2,79.1,11.8,92.1,18.9c13,7.1,161.7,79.6,161.7,79.6s33.1,23.1,51.9,59.7c18.9,36.6,9.4,85,9.4,85l-17.7,227.8
	c0,0-2.4,53.1-20.1,77.9s-35.4,51.9-61.4,64.9s-206.6,88.5-244.4,98c-37.8,9.4-63.7,9.4-92.1,5.9s-61.4-26-61.4-26
	S105.9,601.7,83.5,567.5s-33.1-94.4-34.2-118C48.1,425.8,41,236.9,41,236.9z"/>
<path fill="#0048DE" d="M102.4,160.2c0,0,155.8,109.8,177.1,171.2s41.3,331.7,41.3,331.7s-9.4-258.5,40.1-308.1
	s114.5-98,252.6-134.6c0,0-229,59-272.7,55.5S265.3,272.4,102.4,160.2z"/>
<path fill="none" d="M593.5,399.7"/>
<path fill="#FFFFFF" d="M602.1,405.9c-19.3-14.4-13.6-51.4,4.8-75.9c18.4-24.5,46-39.8,65.3-25.4c19.3,14.4,10.3,46.6-4.6,73.5
	C655.7,399.7,621.4,420.3,602.1,405.9z"/>
<path fill="#FFFFFF" d="M527.9,140.7c0.5-14.8,34.2-18.1,44.5-18.4c13.6-0.4,28.9,2.8,41.6,7.5c18,6.7,24.2,22.1,1.4,29.9
	c-23.5,8.1-53.1,9.2-75.5-2.8c-3.8-2-7.4-4.7-9.6-8.4C528.5,145.6,527.8,143,527.9,140.7z"/>
<path fill="#FFFFFF" d="M413.2,81.3c0.5-14.8,34.2-18.1,44.5-18.4c13.6-0.4,28.9,2.8,41.6,7.5c18,6.7,24.2,22.1,1.4,29.9
	c-23.5,8.1-53.1,9.2-75.5-2.8c-3.8-2-7.4-4.7-9.6-8.4C413.8,86.2,413.1,83.6,413.2,81.3z"/>
<path fill="#FFFFFF" d="M413.2,172.5c0.5-14.8,34.2-18.1,44.5-18.4c13.6-0.4,28.9,2.8,41.6,7.5c18,6.7,24.2,22.1,1.4,29.9
	c-23.5,8.1-53.1,9.2-75.5-2.8c-3.8-2-7.4-4.7-9.6-8.4C413.8,177.4,413.1,174.8,413.2,172.5z"/>
<path fill="#FFFFFF" d="M296.3,112.3c0.5-14.8,34.2-18.1,44.5-18.4c13.6-0.4,28.9,2.8,41.6,7.5c18,6.7,24.2,22.1,1.4,29.9
	c-23.5,8.1-53.1,9.2-75.5-2.8c-3.8-2-7.4-4.7-9.6-8.4C297,117.1,296.3,114.6,296.3,112.3z"/>
<path fill="#FFFFFF" d="M287.4,206.7c0.5-14.8,34.2-18.1,44.5-18.4c13.6-0.4,28.9,2.8,41.6,7.5c18,6.7,24.2,22.1,1.4,29.9
	c-23.5,8.1-53.1,9.2-75.5-2.8c-3.8-2-7.4-4.7-9.6-8.4C288,211.5,287.3,209,287.4,206.7z"/>
<path fill="#FFFFFF" d="M171.8,140.7c0.5-14.8,34.2-18.1,44.5-18.4c13.6-0.4,28.9,2.8,41.6,7.5c18,6.7,24.2,22.1,1.4,29.9
	c-23.5,8.1-53.1,9.2-75.5-2.8c-3.8-2-7.4-4.7-9.6-8.4C172.5,145.6,171.7,143,171.8,140.7z"/>
<path fill="#FFFFFF" d="M507.8,536.7c-19.3-14.4-13.6-51.4,4.8-75.9c18.4-24.5,46-39.8,65.3-25.4c19.3,14.4,10.3,46.6-4.6,73.5
	C561.4,530.5,527.1,551.1,507.8,536.7z"/>
<path fill="#FFFFFF" d="M415.3,668.3c-19.3-14.4-13.6-51.4,4.8-75.9s46-39.8,65.3-25.4s10.3,46.6-4.6,73.5
	C468.8,662.2,434.6,682.8,415.3,668.3z"/>
<path fill="#FFFFFF" d="M121.2,363.6c-6.2-0.4-12.2-5.5-16.7-11c-15.6-19-25.4-42.7-27.5-67.2c-1.7-19.6,8-53.4,32.8-32.4
	c9.2,7.8,14.9,19.1,19.4,30.3c7.4,18.5,12.5,38.6,9.7,58.4c-0.8,5.9-2.5,12-6.4,16.5C128.8,362.4,125,363.9,121.2,363.6z"/>
<path fill="#FFFFFF" d="M241.9,655c-6.2-0.4-12.2-5.5-16.7-11c-15.6-19-25.4-42.7-27.5-67.2c-1.7-19.6,8-53.4,32.8-32.4
	c9.2,7.8,14.9,19.1,19.4,30.3c7.4,18.5,12.5,38.6,9.7,58.4c-0.8,5.9-2.5,12-6.4,16.5C249.5,653.8,245.6,655.3,241.9,655z"/>
</svg>
