<svg xmlns="http://www.w3.org/2000/svg" viewBox="0 0 1600 900" enable-background="new 0 0 1600 900"><path fill="#0048DE" d="M0 0h1600v900h-1600z"/><g fill="#ECC01C"><path d="M1138.9 398.7c-1.4-3.5-4.4-1.8-6.2-1.2-3.2 1.1-6 3.2-9 4.9 2.4 5.4 7 5 11.7 5.7-1.2.6-2.4 1.1-3.4 1.9-2 1.6-2.5 3.7-.6 5.7 1.3 1.4 2.8 2.8 4.2 4.1-3.2 3.4-3.2 3.4.3 9.7-4.7 2.8-5.6 8.9-11.3 11.9-4.4 2.3-8.1 5.2-13.4 4.7-1-.1-2 .6-3 .9-3.8 1.1-7.5 3.1-11.7 2.4-2.7-.5-4.5 1.5-6.6 2.5-2.4 1.1-2.4 2.7-.7 4.6 1.1 1.2 2.3 2.5 3.6 3.6 2.4 2 3.1 4.8 4.4 7.5 1.3 2.6.9 4.9.9 7.2 0 2.6-3.2 2.2-4.7 3.4-1.9 1.4-4.1 3.2-6.2 3.1-1.2 0-2.2-3.5-3.7-4.9-2.3-2.2-3.8-5.5-8.1-5-4.6.5-4.6.1-6.1 5.7-.1.4-.6.7-1.8 1.9 1.1-6.7-1.6-11.7-3.5-16.9-.5-1.3-2-3.5-4.1-.8-.7.9-2.3 1.4-3.5 1.6-.7.1-2.3-1.1-2.2-1.4 1.6-7.4-4.8-10.1-8.4-14.4-.3-.4-1.1-1.1-1.2-1-4 3.4-10.1-.6-13.7 3.7-4.8 5.7-11.3 9.2-17.5 13.1-2.5 1.6-3.7 3.1-3.3 5.8.8 6-3 10-5.6 15.2-6.5-7.8-10.3-16.5-14.5-25-.9-1.8-.1-4.4-.3-6.6-.1-1.6-.4-3.2-1.1-4.6-.4-.8-1.9-2.9-2.2.2-.3 2.3-1.9 1.6-3.1 1.6-2.4 0-1.9-.7-.7-2.2.9-1.1.9-2.9-1.2-2.8-3.8.3-6.7-1.4-9.6-3.6-1.2-.9-2.9-1.4-4.4-1.5l-10.2-.1c-4-.3-8-1.1-12-1.6-2.3-5.7-7.3-3.1-11.2-3.3-3.9-.2-6-3.1-8.5-5.1-2-1.7-3.6-3.9-6.4-3.4-1.4.3-2.7 1.6-3.7 2.7-.3.3.6 1.9 1.3 2.7l8.3 10.1c2.5 3.1 3.9 3.7 6.9 2.4 2.9-1.3 5.3-3.7 8.8-3.7 1.3 3.6 4.6 4.5 7.5 6.1.6.3 1 2.1.7 2.7-1.8 2.6-3.4 5.8-6 7.3-11.6 6.6-24.6 10.1-36.8 15.3-2.2.9-4.2-1.3-4.1-3 .3-6-3.4-9.6-7.1-13.2-1-1-2.1-1.9-3-3-2.3-3.2-.6-9-6.5-9.8-1.9-3.5-3.6-7-5.6-10.4-1.3-2-2.9-4.6-5.7-1.4 0 0-1.1-1.1-1.7-1.2-2.2-.5-3.3.6-2.6 2.7.5 1.5 1.6 2.8 2.6 4 4.2 5.2 9.2 9.8 9.4 17.3.1 2.3 2.7 4.5 4.3 6.6 4.5 5.6 11 9.4 14.5 16 .7 1.3 3.2 2.3 4.8 2.2 3.5-.1 7 .9 10.6-1 2.1-1.1 5.2-.2 8.7-.2-5.6 10.3-10.8 19.4-21.1 25.3-6 3.4-10.3 9.9-15.2 15.1-.9.9-1.8 2.5-1.6 3.5.7 3 1.4 6.4 3.2 8.8 3.3 4.2 2 8.8 1.4 12.8-.3 2.6-3.9 5-6.4 6.9-2.3 1.7-5.2 2.3-7.7 3.7-2.2 1.2-3.6 3.9-2.2 5.6 2 2.4 2 4.9 1.2 6.9-.7 1.8-3 3.1-4.9 4.1-2.2 1.2-3.2 2.4-3.4 5-.1 2.3-.8 5-2.3 6.6-4.4 4.7-8.4 10-15.7 11.2-2 .3-4.2.7-6.3 1-2.9.5-5.8-.7-8.8 1.5-2 1.4-5.3.2-7.6-1.5-.6-.4-1.6-1-1.5-1.4.6-6.4-4.1-10.3-7.2-14.8-2.5-3.6-4.2-7.7-4.5-11.6-.3-5.2-2.4-9.3-5.1-13.2-1.9-2.6-1.7-4.1-.8-7.2 1.1-3.6 3.4-6.5 4-10.3 1.2-7.5-2.8-12.9-6.7-18.4-.6-.9-1.5-1.7-2.4-2.4-2.5-1.9-3.1-4.3-2.9-7.3.3-3.1.2-6.2 0-9.3-.2-2.4-1.5-4.3-4.2-4-4.3.5-8-.7-11.3-3.4-2.3-1.9-4.9-2.2-7.6-1.3-5.4 1.7-10.8 2.9-16.5 3.1-4 .2-8.4-1.7-12 1.6-3.7-1.4-7.5-2.5-10.9-4.3-2.1-1.1-3.5-3.5-5.2-5.4-2.1-2.5-3.9-5.3-6.4-7.5-2.3-2-1.9-6.7-6.4-6.7-.3 0-1-1.8-.7-2.1 4.8-5.7 3.1-12.5 3.3-19 .1-3.1.5-5.5 4.1-5.9 3.3-5.8 8.7-9.1 14.2-12.3 2.4-1.4 2.2-3.7 2.1-5.9-.2-2.8.5-4.6 3.6-5.6 2.6-.8 4.9-2.5 6.2-5.3.3-.7 2.4-1.6 2.7-1.3 5.3 4.8 10.4-1.2 15.6-.2 9.3-4.2 19.3-3.4 29.1-3.3 3 0 3.4 1.7 2.6 5.5-.2 1 .3 2.6 1 3.4 1.1 1.1 2.6 2.3 4 2.4 6.8.2 12.1 5.5 18.9 5.6 2.8 2.7 5.3.3 5.9-1.5 1.4-4.3 5-4.6 7.3-3.4 5.6 3 12.1 1.7 17.5 4.8.5.3 1.7-.1 2.2-.5 2.3-1.8 4.5-1.2 6.9-.4 6.1 1.9 7.3 1.4 10.3-4.3 1.2-2.3 2.4-4.7 3.1-7.2.5-1.8.8-4.3-.2-5.5-1.1-1.4-3.5-1.1-5 .6l-15.6-1.2c-3.6 1.1-4.5-2.2-5.7-4.2-1.6-2.7-.6-3.8 3.1-4.5 1.3-.2 2.5-.7 3.7-1.3 8.9-4 12.9-4.1 23.5-1 4 1.2 8 1.4 11.8-1 1.9-1.2 2.2-3.9.4-5.1-2.2-1.4-4.6-2.5-6.9-3.8-2.1-1.2-3.9-2.1-2.3-5.2.9-1.7-.2-3.3-2.6-2.8-3.1.7-6.1 1.5-9.4 2.3 1.3 1.4 2.4 2.6 3.6 3.8-3 2-4.2-2-6.6-1.7 3.6-4.1-2.8-2.1-2.5-4.2-2.3 1-5.1 1.5-6.9 3.2-2.8 2.5-4.9 5.8-7.3 8.8-.2.2.1.8.1 1.2.1 4.4-.2 5.3-3.3 5.2-3.6-.1-6.9 1.1-10.3 1.6-5.4.8.9 2.7-.6 3.6h-3.4c-1.5-.1-2.5.1-3.6-2.1-4.7-9.2-14.1-13-22.5-17.9-.7-.4-2.4.6-3.4 1.3-1.6 1 0 1.6.4 2.4 2.5 4.6 5.7 8.2 11.1 9.7 2.3.6 2.6 2.6 2.4 9.5-1.9-5.4-5.1-8.1-8.9-9.3-3.8-1.3-6.9-3.2-9.3-6.2-2.8-3.5-6.3-2.8-9.8-2.2-1.3.2-2.5 1.3-3.7 1.2-4.7-.2-8.6.2-10.6 5.6-.6 1.5-4 1.9-6 3-1.4.7-3.8 1.9-3.7 2.6.8 5.9-4.4 5.2-7.2 7-2.3 1.5-5.7-.8-7.6 2.2-.1.2-1.1.1-1.6-.1s-.9-.7-1.2-1.2c-1.8-3.1-7.2-1.1-7.8-4.9-.5-2.7 1-5.7 1.5-8.6.2-1.1 0-2.2 0-3.9 5.5 0 10.8-.1 16.1.1 2.5.1 5-.2 5.6-2.5.7-2.5 1.5-5.6-.7-7.9-1.6-1.7-3.6-2.9-5.4-4.3 3.5-1.9 7.4-3.5 11.2-5.1 4.4-1.9 9.5-3.5 13-7.4 2.5-2.9 5.9-3.7 9.6-3.4 3.6.2 5-1.7 4.9-5.1 2.9.9 5.3 4.1 9 1.8.6-.4 2 .4 2.9.8 2.7 1.1 5.2 1.7 7.5-.8l8.1-.6c3 2.2 5.1-.8 7.4-1.6 1.8-.6 2.9-2.5 2.4-4.8-.2-1 0-2.1 0-3.9 1.8.8 2.6 1.5 3.6 1.6 1.5.2 3 .2 4.6.2-.2-1.5-.3-3.1-.6-4.6-.1-.7-.6-1.4-1.3-2.8 2.2-.2 4-.5 5.8-.5l10.2-.1c.5 0 1.3-.4 1.3-.7.1-.7.1-1.8-.3-2.2-.9-.9-2.3-2.1-3.3-2-3.5.3-6.9-1-10.5 1.2-2.2 1.3-5.9.2-9.3.2 0-1.6.2-3 0-4.3-.5-2.7.8-3.5 3-4.7 2.2-1.1 3.8-3.4 5.4-5.3.8-.9 1.9-2.7 1.5-3.4-.9-1.7-2.5-3.4-4.7-2.5-2.2.9-5.3 1.8-6 3.6-1.6 4.1-5 5-8.3 6.7-2.9 1.5-5.6 4.1-4.4 8 .5 1.7 2 3.2 3.1 4.8-1.7 2.3-5.6 3.6-4.8 7.8-2.1 1-4.1 1.9-6.2 3-2.7 1.4-4.9.9-6.4-1.6-1.1-1.8-1.7-3.8-2.7-5.6-1.8-3.2-3.3-3.7-6.7-2.1-1.7.8-3.2 1.9-4.9 2.5-1.8.7-5.1-1.1-5.3-2.8-.2-2.5-.3-5.1 0-7.6.2-2 8.2-7.2 9.4-6 2.6 2.6 3.8.7 5.4-.9l2.3-2.3-4.5-2.2c4-1.4 6.4-2.7 8.5-5.1 1.5-1.6 3.9-2.7 6.1-3.5 2.1-.8 1.5-5.3 5.2-3.5.3.1 1.3-.5 1.3-.8-.8-5.9 3.6-4 6.5-4.3.8-.1 1.9.3 2.5-.1 1.4-.9 2.4-2.6 3.8-3.1 1.1-.4 2.8 1 4 .7 2.5-.5 4.9-4 7.2-2.4 2.7 1.8 4.3-.4 6.4-.3 2.2.1 4.5.6 4.8 2.4.7 3.2 2.6 3 4.8 2.8 10.2-.7 19.5 2.6 28.5 6.8.5.3 1.1 1.3 1 1.9-.1.5-.9 1.2-1.5 1.4-5.5 1.8-9.2 1.4-17.5-1.3-.8-.3-1.9.3-2.9.4.2.8.2 1.7.6 2.3 2.1 3.1 6.7 8 8.3 8.2 2.3.3 5.4 2.5 6.4-1.9 0-.2 1.3-.3 1.6-.1 1.8 1.7 3 .5 4.1-.8 3.4-3.8 3.5-3.8 9.9-4 .8 0 1.9-.8 2.3-1.5.5-.9.7-2.1.6-3.1-.4-4.2 2-3.7 5.4-2.8-1.4.9-2.4 1.6-3.4 2.3 1.1.8 2.1 1.8 3.3 2.2 2.8 1 5.8-.5 7.5-2 4.2-3.8 10-1.8 14.3-4.7.3-.2 1.3.8 2 1 3.2.9 6.2 1.4 9.3-.9.9-.7 3.2-3 5.4-.3.6.7 3.7.6 4.7-.3 6.6-5.5 13.1-1.9 19.6-.1 2 .5 4.2.3 7.5.6-1.6-2.3-2.3-3.7-3.3-4.8-.9-1-2.1-1.8-3.4-2.8 1.8-3.9 4.8-6 7.4-8.5 2.1-2.1 6.6-.8 6.6 1.9-.1 3.7 1.5 6.9 1.7 10.3.2 2.8-1 5.7-2 8.4-.4 1-1.4 3-3.6.9-1.1-1-3.6-.4-6.3-.5.7.4 6.7 4 6.7 4 2.7 1.7 4.2-.8 5.8-2 2.3-1.6 4-4 6.1-5.9 2.2-2 5-2 6.2.8 1.6 3.9 4.1 3.4 7.1 2.9-4.5-6-4.4-6.2-11.2-8.9-2.6-1-3.3-3-4.6-4.8-1.1-1.5 0-2.4.8-3.5 1.6-2.2 2.1.1 3 .6 2.1 1.1 4.1 2.4 6.3 3.2 1.1.4 3.1.6 2.8-1.6-.1-.6-1.4-1.1-2.1-1.7-.4-.3-.6-.7-1.7-1.9 4.4 1 8-1.3 11.7 1.7 1.4 1.1 3.6 1.5 4 3.4.7 3.3 3.2 2.1 4.4 1.6 1.6-.7.2-2.1-.3-3.4-1.3-3-2.6-5.5-6.5-4.8-.2 0-1-1.3-.9-1.9.1-.5 1-1.3 1.6-1.3 5.6-.1 11.1-.1 17.2-1.1l-5.5-2.7c6.2-2 10.6-2.6 15.1-3.2 8-1.1 15.9-1 23.9-1.8 3.4-.3 6.8-1.1 10.3-1.4 3.2-.3 0-2 .2-2.3 1.5-1.8 2.6-4.3 5.4-4.4 1.2 0 4.2-.7 1.4 2.2.5.4.9.9 1.4 1.1 1.7.6 3.4 1.4 5.2 1.7 2.2.3 4.5.1 6.8.1 3.1 0 6.2.1 9.3 0 1.8-.1 2.5.6 2.4 2.4-.1 1.4.1 2.6-2 2.8-6.2.4-11.4 3.7-16.9 6.2-.5.2-.8.8-1.9 1.8 4.5.8 8.5.3 12.5.3.7 0 1.7-.7 1.9-1.3 1.5-4.2 5.4.8 7.1-2 3 3.2 6.9 1.5 10.3 1.5 6.4 0 12.6 3.6 18.7 1.6 5.8-2 11.4-1 18.8-1.8-1.6 1.4-2 1.8-2.4 2-.5.2-1.5.2-1.5.4-.1 1-.3 2.5.2 2.8 3.2 1.8 5.4 5.2 9.6 5.5 1.6.1 2.8 1.7 4.5-.4.8-1 2.9-1.3 4.4-1.4 5.6-.2 11.3-.1 16.9-.1 1.4 0 3 .1 2.7-2-.4-2.7.9-3.3 3.3-3.2 3.9.2 7.8 0 11.2 0 1.1 1.6-2.3 2.2.1 3.4.5.2 1.1.1 1.7 0 2.9-.5 5.7-1.3 8.6-1.6 3-.4 3.7 3.5 7 3.7 2.7.2 5.6 1.5 8.6 1.4 4.2-.1 8.5 0 12.7 0 2.2 0 4.1-.4 4.8 2.8.4 1.8 2.6 2.5 4.8 2.3 2.8-.2 5.7.2 8.5-.1 5.3-.5 10.2 1.1 15 2.8 2.1.7 3.6.6 4-.9 1.6-4.9 6.2-4.5 8.5-3.2 3.1 1.8 5.9 1.4 8.8 1.3 6.6-.3 12.6 2.4 18.8 3.9 2.4.6 5.3 2.6 6.3 4.7 2 4.3 3.5 4.1 6.1.9.3-.4 8.6 1.5 8.5 1.8-.3.9-.8 2-1.5 2.3-3.8 1.4-3.8 1.4-5.7 4.9-4.8-1.7-8.7-5.7-14.5-5-1.4.2-3.1-1.9-4.8-3-.3.4-1 .9-1.5 1.6-1.8 2.5-2.6 3.2-4.4 3.3-1.4 0-2.9-.2-4.2.1-.8.2-1.5 1-2.3 1.6.4.6.8 1.3 1.3 1.7 1.8 1.6 3.7 3.1 5.4 4.7.1.1-1 2-1.6 2-9.2.2-12.1.8-21 5.2-1.7.9-2.9 2.9-4.8.4-8-1-15.9-1.2-21.8 5.7-.7.8-1.6 2.5-1.4 2.6 4.1 3.8-.5 6-1.9 8-2.5 3.5-5.5 6.9-8.8 9.8-1.4 1.3-3.7 1.6-5.6 2.4-1.6-2.7.6-6.1-2.4-8 1.4-4 1.7-9.1 6.2-10.7 6.8-2.5 11.4-8.7 18.5-10.6.9-.2 2.1-1.4 2.3-2.4.3-1.2-.3-2.6-.5-3.9-1 .3-2.1.3-2.9.8-1.1.8-2 2.7-3 2.8-1.9.2-4.2 5.9-5.9-.1-3 0-6.7-1.1-8.9.2-3.1 1.9-8.3 1.6-9.3 6.7-.1.5-1.2 1.2-1.8 1.2-2.7-.1-5.7.1-8.1-.8-3-1.1-5.8-1.4-8.6 0-2.9 1.4-5.7 1.4-8.6 0-2.6-1.3-4.7-.8-7.6.6-8.1 4.1-16.2 8-23 14.6 3.6 3.4 7 5.7 12.2 3.4 2.2-1 6.3 4.6 4.6 6.5-2.3 2.5-.4 5.5-2.1 7.7-2.5 3.2-5.1 6.4-7.8 9.5-2.1 2.3-4.1 4.9-6.7 6.4-2.1 1.2-4.1 5.2-7.6 1.7-.4-.4-2 0-2.8.5-1.8 1-3.8 2.1-5.3 3.6-2.6 2.7-8.1 3.1-8 7.4.1 3 3 6 4.5 9 .7 1.4.6 2.6-1.5 2.8-1.5.2-2.9.7-4.6 1.1-.3-1.7-.3-4-1-5.9-.6-1.7-3.2-2.3-2.8-4.8.6-3.3-3-2.3-4.4-3.8-.6-.8-3.5 0-5.5 0zm-203.7-1.9l.5-1.2c-1.4-.7-3-2.1-4.2-1.8-1.4.4-2.8 2.8-2.5-.8.1-2.3-.9-2.6-2.8-3.1-.8-.2-1.2-1.9-1.7-2.9 1.6-.7.2-4.3 3.4-3.6 1.4.3 3.2 0 2.6-1.9-.5-1.3-3-3.1-3.2-3-2.4 2-5.4.9-7.8 1.8-3.8 1.4-5.3 5.8-3.4 9.7 1 2.1 2.6 4.1 4.2 5.9 1.2 1.3 2.4 2.3.2 3.6 1.5 2.2-4.1 3.3-1 5.8 1.7 1.3 3.4 2.7 5.3 3.5 1.5.6 3.3.1 5 .1 2.7 0 3.8-1.6 4.2-4 .5-2.9-.9-4.7-2.8-6.5-.2-.2 0-.8.1-1.2l1.6-.2c.7-.1 1.5-.1 2.3-.2zm-69.8-64.2c-.3 0-.6-.1-.8 0-.6.3-1.6.6-1.7 1.1-.2.6.3 1.5.7 2.1 1.4 2 3.4 2.5 5.6 1.3.8-.4 2-1.9 1.8-2.2-1.2-2-3.2-2.7-5.6-2.3zm82.1 53.4c3.5 3 5.8 2.9 6.7-.5.3-1.1-.5-2.5-.8-3.8-1 .4-2 .7-2.8 1.3-1.2.9-2.1 2-3.1 3zM425.7 427.5c-.7-.4-1.6-.6-2-1.2-1.5-2.4-2.5-5.2-4.4-7.1-1.8-1.8-4.4-2.8-6.8-3.9-3.8-1.8-5.6-5.5-8.5-8-5.1-4.5-6-9.6-5.5-15.6.2-3.4.2-6.8 0-10.1-.2-2.8 1-3.2 3.4-3.1 2.1.1 2.3-1.7 1.3-2.7-3-3.2-5.6-7.5-10-8.2-4.2-.6-5.1-4-7.5-6.1-.6-.6-3.7-3.1-4.4-3.2-2.1-.5-.3-1.4-.4-2-.6-3.7-2.4-7.1-6.3-8-1.7-.4-3.3-.5-4.2-2-3-5.2-8.6-5.4-13.4-6.4-6.5-1.3-12.7-4.2-19.7-3.8-2.3.2-4.7-2.1-7.2-2.8-2.8-.8-5.9-1.5-6.9 2.8-.1.5-.7 1.1-1.2 1.2-1.5.2-3 .2-4.6.3.9-.6 2-1 2.6-1.8.4-.4.4-1.8 0-2.2-1.7-1.5-5-.5-6.4 1.6-3.1 4.6-7 8.3-12.1 10.7-.9.4-2.1.4-3.1.6.4-.7.8-1.4 1.2-2 .8-1.4.9-3.2-1-2.9-7.4.9-13-4.3-19.8-5.5-1.6-.3-2.9-2.5-4.4-3.8 2.5-2.2 4-4.9 7.9-4.6 3.6.3 4.7-3 6.7-6.3-3.5-.1-6.2-.2-8.9-.3-2 0-4 .3-5.9-.1-1.1-.2-1.9-1.7-2.8-2.6 1.1-.8 2.1-2.1 3.3-2.3 1.8-.2 3.6-.4 5.5.9 1.3.9 3.7.7 5.5.4.9-.1 2.2-1.4 2.2-2.3.1-.7-1.4-2.3-2.1-2.3-3.8.1-6.3-2.5-9.5-3.8-.7-.3-1.2-1.4-1.7-2.1.6-.4 1.2-1.2 1.8-1.2 2.6 0 4.5-.8 6.7-2.3 3.1-2.2 7.1-3.2 10.8-4.5 2.2-.8 4.6-1.2 6.9-1.7 1.5 3.6 4.6-2.4 6.7 1.2 1 1.8 4.6-.5 6.8 1.7 1 1 3.8.6 5.7.4 7.5-1 14.8 1.3 22.1 2 3.1.3 6.3 1.1 9.5 1.6 2.9.4 5.5 2.1 8.6 1.6 1.7-.3 2.5.2 2.6 2.2.1.9 1.2 1.9 2.1 2.4.9.5.9 2.8 3 1.3 2.2-1.5.5-2.5 0-3.8-.2-.5 1-1.4 1.6-2.1 2 2.6 4.3 2 6.9.8 2.6-1.2 5.6-1.7 8-3.1 3-1.7 5.7-1.3 8.6-.4 1 .3 2.1 1.2 2.9.9 3-.8 5.4-2.6 8.9-.2 2.1 1.4 5.7.1 8.6 1.8 1.7 1 4.4.1 6.7.2 1.1 0 2.1.3 3.2.4-.3.8-1.1 2.1-.9 2.3.9.9 2 2 3.2 2.2 1.9.4 3.9.2 5.9.1 4.8-.4 9 .3 11.4 5.9 1.2-2.1 1.8-3.5 2.8-4.7 1.4-1.7 2.8-3.7 4.7-4.4 1.3-.5 3.4.9 5.1 1.5 7.3 2.3 7.7 2.2 18.1.1 3-.6 6.2-.2 9.3-.1 1.8.1 3.2-.2 4.4-1.8 1.6-2.3 1-4.6-2.1-4.9-2.8-.3-2.2-1.9-2.2-3.5 0-2.3 1.8-1.9 3-1.7 2.1.3 4.1.9 6.1 1.7 2 .8.1 1.4-.2 2.2-.6 1.4-.8 2.7 1.4 2.9.8 0 1.8-.2 2.5.1 1.5.5.1 3.9 2.7 3.2 1.4-.4 2.5-2 3.8-3 .4-.3 1-.2 1.7-.3.8 1.2 1.8 2.5 2.3 3.9.8 2.1 1.6 4.9 3.8 4.4 2-.5 3.6-3 5-4.9.6-.7.2-2.8.7-3 1.5-.5 3.3-.5 4.9-.3 1.4.1 4.9 6.6 4.3 7.8-.5.9-1.5 2-2.4 2.2-3.1.8-6.3 1.1-9.4 1.8-.5.1-.9 1.1-1.4 1.6-2.8 0-5.7-.1-8.5.1-.6 0-1.1.8-1.7 1.3.6.7 1.1 1.8 1.9 2 1.6.3 3.2.1 4.9 1.3-1.5.2-3 .3-4.4.7-2.5.7-5.5 1-7.4 2.5-3.9 3.2-7.4 7-10.8 10.7-2.4 2.6-1.3 6 2.4 6.7 2.2.4 3.1 1 3.8 3.1.3 1 2 1.7 3.2 2.2 3.7 1.4 7.9 1.9 11 4 4.3 3.1 8.7 2.7 13.5 2.8.2.7.4 1.5.6 2.3.4 2.1 0 4.7 1.2 6.2 1.5 2.1 4 3.6 6.4 4.8 2.6 1.3 6.2-.7 5.9-3.6-.6-5.1 2.4-8.7 4.2-12.7.8-1.8.8-2.5 0-4.2-1.3-2.8-4.3-5.9-.7-9.4 1.3-1.2-2-1.7-.8-4 2.7-4.9 4.7-6.3 10.5-4.4 3.7 1.2 7.2 3 10.8 4.6 3.2 1.4 1.2 2.8-.1 4.2l.5.6 5.4 5.4c2.5-3.1 6.9-.6 9.6-3.3.9-.9 2.2-1.4 3.8-2.3 3.2 8.5 8.6 14.5 18.7 16.2-3.2 1.3-5.4 2.2-9.3 3.8 5.5 1.5 9.3.8 12.9.9 1.8.1 2.4.7 2.4 2.5-.1 1.5-.2 2.3-2.1 2.8-7.6 2-15.2 3.9-23.2 3.3-6.6-.5-11.2 4.2-16.5 7.1-.5.3-.4 1.5-.6 2.2 1 .2 2.1.7 2.9.4 2.2-.8 4.7-1.5 6.3-3 2.5-2.4 5-1.3 7.7-.3-1.2.1-2.4.2-3.6.5-2 .5-2 1.9-.9 3 1.2 1.2 2.9 2 4.7 3.3-4.6 1-8.3 3.8-13.1 4-3.1.1-4.1 1.7-6.2 7.2-.2.5-.9 1.1-1.3 1.2-4.1.3-6.8 2.8-9.7 5.4-1.1 1-2 5-4.7 1.5-.9 1.5-3.9 2.2-2 4.7 2.4 3 1.1 5.1-1.2 7-3.1 2.6-6.3 5.2-9.5 7.8-3.2 2.7-4.8 5.6-2.1 9.9 1.5 2.5 1.6 5.9 1.1 9.6-1.8-2.4-4.1-4.7-5.2-7.4-1.9-4.9-5.4-6.3-10.1-6.3-2 0-4-.1-5.9 0-1 .1-2.4.2-3 .8-1.1 1.1-1.5 3.6-2.5 3.8-1.5.4-3.3-1-5.1-1.2-1.7-.2-4.2.7-4.9-.2-2.5-2.8-4.4.2-6.3.4-2.7.2-5.2 2.2-7.8 3.5-.3.2-.5.9-.5 1.4-.2 2.7.8 5.6-1.7 7.8 2.9 2.8.2 7.6 3.7 10.4 3.2 2.6 5.2 6.3 10.5 5.7 4.3-.5 8.8.6 10.6-5.2.3-1.1 2.5-1.9 4-2.4 1.4-.5 3.5-1.3 4.5-.6 2.1 1.5-.5 2.6-.9 4-.9 3.3-1.4 6.7-2.2 10.9 3.3 0 6.1-.1 8.8 0 3.7.1 4.9 1.3 5.2 4.8v1.7c.1 6.7.2 6.7 5.1 10.5-4.6 1.7-6.4-3.5-10.1-4.2-.5-.1-.8-.8-1.2-1.2-2-2-3.9-4.1-6-5.9-1.9-1.7-4.6.3-7-1.7-2.1-1.7-5.2-2.2-7.9-3.1-2.7-.9-5.6-2.6-8.2-2.4-6.8.6-12.4-2.8-18.6-4.2-1.5-.3-3.2-.5-4.5-1.2-1.9-1-3.6-2.3-5.3-3.5-1.6-1.1-2.5-2.4-.9-4.2 0 0-.8-.7-1.1-1.1-6-6.5-12-13-17.9-19.6-1.1-1.2-1.6-2.8-2.7-3.9-1.2-1.2-3.1-2.9-4.3-2.6-1.9-.4-3.2 1.6-2.6 3.9zm103.3-43.7c-6.3-2.2-13.2-2.5-17.8-8.5-.9-1.2-4.3-2.3-4.9-1.7-2.7 2.6-7.7 1.9-9.3 6.4 5.8.7 11.3-.3 17.2.7-2.7 2.1-6.6 1.6-7.1 5-.4 2.8-1.1 6.2 2.8 8.1.7-2.2 1.4-4.4 2.2-6.7 1.1-3.3 5.1-5.1 6-3 1.5 3.4 5.3 3.4 6.5 6.3 1.4-2.1 2.8-4.1 6.1-11-.8 1.2-1.4 1.8-1.6 2.6-.1.4.4 1.4.7 1.5 1.4.3 2.8.1 2.5-1.9 0-.6-.7-1.2-3.3 2.2zm13 3.4c-5.1-.8-7.6 1.6-10.6 3-6.4 2.8-6.5 2.5-9.3 5.8 6.9-3.1 13.3-4.4 19.9-8.8zm.6-9.7c-.7-.3-1.3-.8-1.7-.8-1.1.2-2.1.7-3.1 1 .8.8 1.5 2.1 2.3 2.1.7.1 1.5-1.2 2.5-2.3zm-36.9-6.8c-.5-1.3-.7-1.8-.9-2.2-.4.5-.9.9-1.1 1.5-.1.4.3.9.5 1.4.6-.3 1.2-.6 1.5-.7zM620.4 570.8c1.6 7.4-2.5 12.7-7.6 17.7-1.4 1.4-2.6 3.2-4.2 4.1-3.2 1.8-6.4 4.4-10.3 1.6-.6-.4-1.5-.7-2.2-.6-.9.2-1.9.7-2.5 1.3-.2.2.4 1.9.9 1.9 3.4.6 3 3.8 4.8 6-4.7 1.1-8.5 3.2-13 2.7-1.3-.1-3.8 1.1-4 2.1-.6 3.5-3.8 3.7-5.8 4.4-2.4.8-4.8.4-2.3 3.8.2.3 0 1.4-.4 1.7-1.5 1.4-2.6 2.8-2.3 5 .1.4-.8 1.2-1.5 1.5-3.8 1.8-4.5 3.4-2.7 6.8.5 1 1.6 1.6 2.4 2.4-4.5 5.7-10 10.5-13.5 17-.9 1.7-1.3.3-1.7-.8-.3-.7-1.4-1.2-2.2-1.6-1.9-1-3.9-1.9-5.9-2.8 2.4-1.6 1.6-4.2 1.3-6.2-.4-3 2.2-2.5 4-4.2-2-1.5-3.9-2.9-6-4.4 5.9-4.1 4.2-9.5 3.2-14.1-.5-2.2-1.4-3.8 0-5.8.3-.4.6-1 .6-1.4-.5-5.4.6-10.1 4.7-14.2 1.5-1.5 1.8-4.4 2.1-6.7.7-7.9 1.2-15.9 1.8-23.9.2-2.4-.5-4.7 1.5-7.1 1.4-1.7-.1-4.3-2.2-5.6l-12.9-7.8-4.1-4.1c-3.8-7.2-7.3-14.5-11.5-21.5-1.7-2.8-.4-2.2 1.3-2.6.4-.1 1-1.8.7-2.1-3.7-4.3-1.4-7.5 1.7-10.7 1.5-1.5 2.4-3.6 3.8-5.2 3.7-4 4-5.8 1.3-10.8-.9-1.6-2.1-2.9-4-5.7 2.3 1 3.3 1.6 4.4 1.8 1.9.4 4.2 2.2 4.9-1.8.2-1.1 2.4-1.9 3.7-2.7 1.8-1.1 3.7-2.1 5.8-3.3.3 1.4.3 3 .9 4.4 1 2.3 2.8 2.4 4.1.3l1.8-3.5c.8-1.2 1.9-2 3.5-.9 4.8 3.2 10.3 3.3 15.7 2.9 3.1-.2 5.2.9 7.3 3 2.6 2.7 5.7 5.1 8.9 7.1 1.7 1.1 4 1.6 6 1.7 4.1.2 7.7 1.7 11.3 3.5.7.4 1.8.5 2.1 1 1.2 2 2.3 4.2 2.9 6.4.2.7-1.4 2-2.3 2.9-1.2 1.2-2.5 2.3-3.5 3.6-.4.5-.3 1.5-.4 2.3 1 .1 2.4.6 2.8.1 1.3-1.3 1.6-1 2.8.2 3 2.9 3.6 2.7 6.9.4 1.1-.7 2.6-1 3.4-1.9 1.6-1.7 2.6-1.9 4.8-.3 5.8 4 12.5 6.3 19.7 5.4 3.8-.5 4.5 3.7 7.8 3.9 1.4.1 3.7 1.8 3.9 3.1.5 2.9 1 6.2-2.2 8.3-1.4.9-2.3 2.5-3.6 3.5-4.7 3.5-6.7 7.8-5.9 13.7.7 5.4-2.5 9.6-5.1 13.9-.8 1.4-3.2 2.9-4.5 2.6-6.5-1-10.9 3.9-16.5 5.3-1.8.8-3 2-4.7 3zM574.8 259.8c0-2.3 1.8-1.6 3-1.7 4.1-.2 8.8 1 10.8-4.4 0-.1 1.1.3 1.7.4 1.9.4 4.3 2.3 4.9-1.6.1-.5 1.7-1 2.6-1.1 3.7-.8 7.7 1.2 11.3-1.3 1.9-1.3 2.1 4.5 4.7 1.8 1.7-1.8 3.4-2.5 5.9-2.4 4.8.2 9.6.1 14.4 0 .6 0 1.6-1.4 1.6-2.1 0-2.8 2.2-5.3 4.6-4.2 4 1.8 7.4 1.1 11.6 0 5-1.3 10.5-.3 16 .6-1 .4-1.9.8-3 1.3.2.4.5 1.1.7 1.1 5.6.1 11.3 0 16.9 0 1.1 0 2.5.4 3.3-.1 3.3-2.1 5.9-3.6 8.3 1.3.5 1 4 .6 6.1 2l-9.8.2c-2.6 0-18.4 3.8-20.7 5.1-.7.4-1.2 1.4-1.7 2.1.9.4 1.9 1.3 2.6 1.1 5.1-1.3 10.5-2.1 15.3-3.8 5.6-2 11-.3 16.4-1.2 3.3 3.1 7.4 1.4 11.1 1.6 3.5.2 6.9.4 10.4-1.4 2.2-1.1 5.4-.2 8.3.3-3.4 1.3-6.7 1.8-9.6 4.3-1.4 1.3-4.9 0-7.4.3-1.7.2-3.3 1.2-6.7 2.5 3.4.6 5 .9 6.6 1.2-.2.5-.2 1-.4 1.2-1.2 1.2-2.3 2.5-3.6 3.5-3.5 2.6-3.3 3.6 1.3 6.1-.9.3-1.6.6-2.4.7-1.5.3-4 .1-4.5 1-1.2 2.4 1.6 2 2.7 2.8.9.6-3 3.4 1.3 3.1 1.3-.1 2.6 1.5 4.6 2.7-2.6.3-4.9.6-7.4.9.9 1 1.4 1.5 2 2.1-.7.3-1.7 1-2.2.7-1.9-.9-3.5-2.6-5.5-3.1-1.3-.3-4.2-1.7-4.3 1.9 0 .5-1.6 1.1-2.5 1.2-1.9.2-3.8.1-5.9.1 1.2 2.8 4.5 3.7 3.5 7.9v-1.2l-3 2.2c.4.4.9 1.2 1.2 1.1.8-.2 1.5-.8 1.9-2.1 2.7-1.2 5.4-1.3 8.1-1.1.7.1 1.4 1.1 2.1 1.6-4.9-.6-8.7.6-10.6 6.4 3.3.3 6.1.5 9 .7-6.8 1.3-13.3 4.3-20.2 3-5.1-1-8.2 4.2-13 3.6-.2 0-.3 1.5-.8 2.1-2 2.7-4.1 4.5-8.1 4.7-5.6.3-10.9 2.7-13.8 8.2-1.5 2.7-4.5 4.7-3.6 8.8.4 1.8-5.5 3.6-6.8 2-1.7-2-3.7-2-5.9-2.2-4.7-.5-7.4-4.2-10.5-7.3-.5-.5-.5-1.6-.3-2.4 1.1-4.6-3-3.3-6.2-4.9 1.4-.8 2.5-1.2 3.3-2 2-2 1.4-2.2 2.8-5.9.8-2.1-2.9-3.1-.2-5.6 1.5-1.4-1.3-3.4-3.5-4.1-2.1-.7-.2-1.4 0-2.1.3-1.3.4-2.7.2-4-.3-1.5-2.7-1.8-4.1-.5l-1.7 1.5c-1-4.5-1-4.5-4.2-7.8-3-3-5.5-7.1-9.1-8.7-3.6-1.5-8.3-.4-12.5-.5h-17.8c-.2 0-.4-.3-.9-.6 1-2.1 2.5-3.1 4.9-2.9.5 0 1.1-.8 1.6-1.3-.6-.7-1.2-1.9-1.9-1.9-3.9-.2-7.7-.1-11.6-.6 4.3-1.7 8.4-3.4 13.1-2.9 3.1.3 6-.8 7.8-3.3.8-1.1.7-3 .6-4.5-.2.2-2.2 0-3.2-.2zM1181.8 536.3c-1.5 1.5-2.5 2.2-3 3.1-1.9 3.4-1.1 5.6 2.4 7.4 2.3 1.2 4.6 2.5 7 3.6 3.3 1.5 5.2 1.1 6.6-2.2 1.4-3.3 4.1-6.3 3.6-10.4-.1-1 1.3-2.3 2.3-4 3.3 6.4 6.3 12.3 9.4 18.2.7 1.4 1.3 3.4 2.4 4l15.8 12.8c1.1.5 1.9 2.7 2 4.1.3 5.2-.7 10.1-3.2 14.7-1.6 3-2.5 6.4-4.3 9.2-1.6 2.3-1 6.2-4.4 6.8-2.8.5-4.9 1.9-7.2 3.2-.6.3-1.8.4-2.2 0-2.6-2.7-5.9-1.3-8.8-1.2-3.5.1-5.6-1.3-8-3.4-2.5-2.2-3.4-6.1-7-7.2.2-.6.6-1.2.6-1.8 0-1-.1-1.9-.2-2.9-.8.1-1.7 0-2.3.4-1.5 1.3-2.8 2.7-4.6 4.6-3.3-3.2-6.4-7.2-11.8-6.8-3.1-2.9-6.3-2.2-9.8-.5-1.4.7-3.2.5-4.9.5-2.2 0-4.1.5-6.1 1.6-3.5 1.7-7.4 3.1-11.2 3.3-2.9.2-5.5 1.1-7.4 2.6-3.1 2.5-5-.1-7.4-.7-2.6-.7-1.4-2.7-1.4-4.1 0-5.8-3.1-10.6-5.5-15.5-1.3-2.6-.9-2.4 1.3-2.6.2 0 .7-2 .3-2.7-.9-1.6-3.9-2.8-2.7-4.6 1.4-2.1 3.1-4 6.5-4.6 5.1-.9 9.8-3.6 14.8-5 4.1-1.2 4.9-5.9 8.7-7.1-.2-3.7 4.2-2.7 5.5-5.2.4-.8 2.9-.9 4.4-.7 1.5.1 3 1.1 4.5 1.3 2.3.3 2.5.3 5.9-3.9 4.4-5.4 9.3-8.5 16.2-4.6.6.3 1.5.1 3.2.3zM510.5 259.8c3.5 0 4.8-.2 6.2 0 6.1.9 15.2-.4 20.9-3.5.7-.4 1.1-1.4 1.7-2.2-.9-.4-1.8-1.1-2.7-1.1-1.3 0-2.7.2-3.9.7-6.7 2.5-13.3 4.5-20.2 1-.7-.3-1.7-.2-2.5 0-4.9.9-5.4.8-10.1-3 2.4-.2 4.2-.3 5.9-.4 1.4-.1 3.5.4 4-.3 2.6-3.8 6.3-2.9 9.8-3.1 1.2-.1 2.5-.9 3.6-1.6 3.2-2 6.5-3.5 10.4-3.5 7.6.1 15.2.1 22.9 0 4.2-.1 8 .2 11.7 2.5 1.3.8 3.1.8 4.7.9 3.3.1 6.7 0 10.1 0-.6 2.8-2.2 3.1-4.5 3.5-4.6.9-9.1 2.5-13.5 4.1-.6.2-.8 1.5-1.3 2.3l2.3.6c-9 4.5-9 4.4-17.3 4.8-4 .2-7.9 1.2-11.5 4.6 2.7.3 4.8.5 7 .7-.1.5-.1 1.2-.3 1.3-5.8 2-11.3 4.9-18 3.2 1.7 5.4 6.1 2.7 10.5 5.4-8.5 0-15.2.3-21.9-.2-2.5-.2-4.8-2.4-7-4.3 3.5-.7 6.6 2.9 10.4 0-3.3-2-6.4-4-9.6-5.6-2.2-1.1-4 1-6 1.5-3.4.9-6.9 2.3-10.3-1.1 1.8-.3 3.3-.6 5.4-1-1.3-2.1-2.6-3.2-5.1-3-2.5.2-5.1.4-6.8-2.9 2.1-.2 5.6.1 5.9-.7 2.4-6.8 6.2-1.8 8.8-.9 3.1 1.2 6.6 1.9 8.9 5.2 3.9 5.5 10.1 4.6 15.9 4.4.4 0 1.1-1.2 1-1.8 0-.5-.9-1.3-1.5-1.4-2.8-.7-5.8-1-8.6-1.8-1.6-.3-2.6-1.4-5.4-3.3zM571.3 327.8c.6.6 1.2 1.5 1.7 2.4-1 .1-2 .6-2.8.4-2.5-.6-5-1.4-7.4-2.3-2.4-.9-4.5-2.8-7.3-2.4-3.2-4.5-8.6-3.4-12.9-5.1.7-.6 1.4-1.4 2.2-1.6 1.8-.6 4.8 1.3 4.8-2.7 0-.2 1.9-.8 2.9-.7 1.3.1 2.6 1 3.8.9 1.6-.2 3.1-1 4.7-1.6-1.2-.9-2.4-2.7-3.5-2.6-3.3.4-4.3-1.8-6-3.8-2-2.4-4-4.6-8-5.1-5.2-.6-10.3-2.5-15.6-3-5.6-.5-11.3-.3-16.9-.1-3.3.1-6-.4-8-3.3-1.6-2.3-1.3-4.6 1-6.4 3.5-2.6 6-2.9 8.6-.9.4.3.8 1.3.6 1.7-1.6 3.5-1.3 5.4 1.6 7 .5.2 2.2-.7 2.3-1.3.3-1.6 0-3.4.2-5 .3-2.6 1.9-3.9 4.5-3.7.8.1 2.1.7 2.1.8-1 4.2 2.6 5.2 5 5.8 2.4.6 5.1.5 7.9-1.1 2.2-1.3 5.9 0 8.9.1-.4 4.7 4.1 2.2 5.9 3.9 2.3 2.1 5.7 2.7 9.1 2.5 2-.1 4 1 6.1 1.6 2.2.6.5 1.3 0 2.1-1.7 2.6 1.2 4.5 2.1 4.4 4.1-.2 7.2 1.6 10.5 3.5 1.3.7 3.3.1 5.1.1.6 1.9-1.2 2.3-1.9 3.2-1.8 2.4-3.8 2.4-6.4.9-2.2-1.2-4.5-3.3-7.4-2.4-.9.3-2.3.9-2.3 1.5 0 1.2.3 2.7 1.1 3.5 1.9 1.9 4.3 3.3 6.3 5.1.6.6.5 1.9.8 2.8-1.2.3-2.2.5-3.4.9-2.6-1.3-4.4-5.4-8.9-2.4 3.4 1 6.1 1.8 8.9 2.4zM1120.3 513.9c-3.5 0-6.3-.1-9.1 0-3.8.2-6.8-1.2-9.2-4-1.4-1.6-2.4-3.5-3.6-5.2 1.5-1 3.1-1.8 4.4-3 4.6-4.6 11.1-5.9 16.1-9.8 1.2-.9 2.9-1.6 4.3-1.6 1.1 0 2.2 1.2 3.4 1.9-.7 1-1.1 2.5-2 2.8-1.2.5-3 .2-2.5 2.2.2.6 1.7.8 2.4 1.4 1.6 1.4 3 2.1.6 4.9-2.2 2.6-5.7 5.3-4.8 10.4zM462.8 302.2c-1.4.5-3.3 1.8-4.2 1.3-4.2-2.3-8.5-1.9-12.6-.4-3.5 1.3-7.3 1.1-10.9 2-3.2.8-7.3-2.1-12-3.7 4.8-1.8 9-.2 14.1-1.8-2.8-1.2-4.3-2.3-6-2.4-3.6-.3-7.3.1-11-.2-1-.1-1.9-1.7-2.9-2.5.8-.8 1.5-2.1 2.4-2.3 1.9-.3 3.9.1 5.2-1.8.2-.3 1.2-.2 1.6.1 1.4.8.2 4.4 3.5 3.2 1.5-.6 2.9-1.4 4.4-1.5 3.8-.1 7.9-1.1 10.6 3.1.1.2 1.9-.3 2.6-.9l1.5-2.7c2-2 2.6-2.5 4 1.2 1.6 3.4 4.6 7.5 9.7 9.3zM919.8 537.6c2.5 7.1-1.6 12.9-2.8 19-.7 3.3-2.2 6.4-3.3 9.6-1.1 3.1-6.6 5.1-9.5 3.5-.8-.4-2.5-9.2-1.7-9.7 3.3-2 3-5.2 2.7-8.2-.3-2.7.7-3.6 3.1-4.6 3.1-1.3 6-3.3 8.7-5.3 1.1-.9 1.6-2.6 2.8-4.3zM1221.6 531c-5.2-.4-7.6-2.4-10-4.5-3.5-3.2-5.6-3.5-9.2-.5-2.6 2.1-5 2.1-7.5.6s-7.2-.2-6.9-5.3c.3-4.4-4.3-3.5-6.2-5.6-.6-.7-2.5-.1-5.6-.1 2.8-1.4 4.2-1.7 4.9-2.5 2.1-2.5 3.8-1.8 6.8-1.1 8 1.9 15.7 4.1 22.8 8.5.8.5 2.6.8 2.6 1.3.1 4.5 4.4 5.8 8.3 9.2zM1198.3 399.6c-2 5.1-3.6 9.5-5.6 13.7-.3.7-2.5.5-3.9.6-2.8.1-5.5-.4-7.5 2.4-1.4 2-2.9 1-4-.5-1.3-1.8-3.1-2.2-5.1-1.9-.2 0-.5 1.3-.2 1.5.6.6 1.5.8 2.3 1.2-.8.2-1.5.5-2.3.5-3.2.2-4.4 2.7-5.9 5-.5.7-1.4 1.2-2.1 1.8-.4-.6-1.2-1.2-1.2-1.8.3-1.9-.5-3.2-1.9-4.3-2.1-1.8-1.4-1.8.9-2.5 5.5-1.8 10.7-4.2 16.5-4.9 2-.2 1.9-3.7 5-2.5 2.2.9 2.7-1.4 3.2-3.2.1-.5 1.3-1.2 1.8-1.1 3.9.7 3.4-2 3.2-4.1-.2-2.3.9-3.3 2.9-2.6 1.5.8 2.9 2.1 3.9 2.7zM758.9 342.5c.8 1.5 1.2 2.7 1.9 3.6.4.5 2.6-.2 1.3 1.5-1.6 2.2-1.5 2.7 1.3 3.9 2.5 1.1 4.2 4.1 6.2 6.4.9 1 1.3 2.4 2.3 3.2 3.3 2.9 3.4 3.4-.7 4.6-2.8.8-6 1.1-8.9.6-1.4-.2-1.6-3.6-4.2-3.6.7-1 1.7-1.9 2.1-3 .5-1.2 3.5-1.2 1.5-3.6-1.1-1.2-.7-3.9-3.6-3.2-1.9.4-2.8-1.2-2-2.4 1.2-2-3.4-2.8-.6-4.8 1.4-.9 2.4-2.2 3.4-3.2zM1090.2 512.7c-2 1.9-3.3 3.4-4.9 4.5-.5.3-1.9-.6-2.8-1.2-2-1.3-4.1-2.5-5.8-4.2-1.7-1.7-2.5-5-4.3-5.5-3.2-1-3.1-4-5.1-5.6-2-1.5-3.6-3.5-5.4-5.3-.3-.3-.5-.8-.7-1.2.8-.2 1.5-.6 2.3-.6.8 0 1.7.1 2.3.6 4.2 3.5 8.3 7.1 12.4 10.7 2.8 2.5 4.8 6.1 9.3 6 .9 0 1.8 1.2 2.7 1.8zM705.4 321.8c5.5-6.8 13.1-6.5 20.7-6 .9.1 2 1.2 2.4 2.1.2.5-.7 1.8-1.4 2.3-3.7 2.8-8.5 2.2-12.6 3.9-2.2.8-4.4-.2-9.1-2.3zM424 287.1c-6 2.8-10.2 4.4-13.8 6.7-2.6 1.7-5.1 1.6-7.8 1.5-2.7-.1-2.8-.8-.9-3.8.3-.4.3-1 .5-1.5 1.8-5 2.3-5.9 5.8-4.7 4.7 1.7 9.5 1.4 16.2 1.8zM808.6 266.6c.3-1.1.8-2.1 1-3.2.1-.5-.2-1.2-.3-1.8.8.1 2.1.1 2.2.3.8 4.1 3 3.2 5.8 2 1.8-.7 5-1.1 6-.1 2.6 2.7 3.8-.7 5.6-.6l3.2 4.4c-3.6 1.8-6.9 3.9-8.4 8-.2.6-1.7.7-2.6 1.1-.3-1.2-3.5-1.3-1.4-3.6.5-.5.8-1.8.6-2.2-1.5-1.9 3-2.6.6-4.8-2.5-2.3-4.2.4-5.1 1.1-2.9 2.6-4.9.3-7.2-.6zM1272.3 628.6c3.8-2.9 7.2-5.3 10.4-7.9l3.6-3.7c1.1-1 2.4-1.9 3.7-2.4.5-.2 1.6.7 2.3 1.3.2.1-.1 1.1-.5 1.4l-1.5.3-5.8 8.5c-.8 1.1-1.7 2.1-2.5 3.1-1.4 1.6-2.6 2.6-4.7.6-.9-1-2.9-.8-5-1.2zM1208.5 387.2c-3.4 5.3-9.4 3.9-13.7 6.3-.4.2-2-.8-2.5-1.6-1.7-2.6 1.1-1.2 1.7-1.7 1.4-1.3 2.9-2.5 2.5-4.8-.3-2 1.9-2.6 2.5-1.6 2.5 3.4 6.1 3 9.5 3.4zM519.2 446.7c7.2-1.7 13.4.6 19.6 3.2l4.4 1.4c.5.2 1.1 1.2 1 1.8-.1.5-1 1.4-1.4 1.4-1.8-.2-4.3 0-5.3-1.1-2.9-3.1-7.1-3.4-10.5-5.1-1.2-.6-3.4-.5-4.4.2-2.8 2.1-2.3-1.6-3.4-1.8zM1081.4 501.9c-3.6-5.3-8.6-7.1-9-12.8-.1-1.5-2.7-2.7-3.9-4.2-.5-.7-.5-1.8-.2-2.9 4.9 5.6 13 8.8 13.1 19.9zM608.7 376.8c-.2.2-.7 1.2-1.4 1.5-.4.2-1.9-.6-1.9-.9.2-3.6-2.4-2.3-4-2.3-.9 0-1.8 1.5-2.6 1.5-1.8 0-4.6-.1-5-1.1-.8-2 1.2-3.2 3.1-3.9.4-.2 3.2-.9 3.5-.8 2.8 1.2 5.7 2.3 8.4 3.6.1 0-.1 1-.1 2.4zM1295.2 602.5l9.7 3.8c-1.8 2.5-5.6 3.2-6.6 6.6-.1.2-1.1.1-1.7.1.6-2.5-1.4-2.3-2.8-2.9-.4-.2-.2-1.8 0-2.7.3-1.8.9-3.5 1.4-4.9zM956 280.1c-.3 3.5-3.5 1-5.2 2.4-3.5 3-7.8 5.2-11.7 7.7l-2.7-2.2c1.3-1.5 2.8-3.2 4.4-4.9.5-.5 1.1-1.2 1.7-1.3 4.4-.6 8.9-1.1 13.5-1.7zM511.4 316c3.2 2.8 5 5.1 8.6 5 2.5-.1 5.1 2.2 8.6 3.9-2 .5-3.1 1.1-3.4.8-2.8-2.4-5.3-2.4-7.7.6-.9 1.2-2 1.9-3.5.6-1.2-1.1-2.2-1.8-.5-3.8.7-.7-1-3.6-2.1-7.1zM474.3 295.4c-.9-.3-3.2-1-5.4-1.8-.2-.1-.4-.8-.3-1.1.3-1.2 3.1.6 2.4-1.8-.3-.9-1.9-1.5.2-2.1l4.4-1.5c1.5-.4 2.7-.3 2.7 1.8 0 1 .4 2.1.7 3.1 1.2 3.5 1.3 3.5-2.5 3.5-.2-.1-.5-.1-2.2-.1zM752.7 355.6c-.1.8 0 1.6-.3 1.9-1.9 1.5-4 2.7-5.8 4.2-1.3 1.1-2.8 2.6-3.9.5-.5-1 .3-3.1 1.1-4.4 1.5-2.6 4.1-3.7 7.1-3.1.6.1 1.3.6 1.8.9zM939.8 290.6c-5.1 4-.1 5.3.8 7.5-2.2 1.4-4.4 1.3-5.6-1-1.4-2.7-4-1.1-5.9-2.3 2.1-4.2 5.6-5.2 10.7-4.2zM1050.7 261.8c4.6.2 9.4-1.5 13.7 1.3.6.4 2-.3 3.1-.5l1.8-.4c.1 1.1.3 2.2.1 3.3-.1.5-1.3 1.2-1.8 1.1-5.6-1.9-11.7-1.7-16.9-4.8zM498.6 281.8h32.1c0 .6 0 1.2-.1 1.7-10.7-.1-21.4.3-32-1.7zM1200.4 373.5c-1.2-3.7.8-7-2-9.6-.6-.5 0-2.6.4-3.9.5-1.8 1.2-3.5 2-6 1.4 3.4.5 6.3.8 9.1.2 1.6-.2 3.9.7 4.7 4.7 3.7-.4 3.9-1.9 5.7zM940.4 259.1c-3.8.2-7.6 1.9-11.3-.7-.7-.5-5.4-2.4-5.4 2.4-.5-.1-1.4 0-1.6-.3-.6-1.1-1-2.3-1.4-3.4 6.9-2.7 13.2 1.8 19.7 2zM1109.9 525.8c-1.3 0-2.9.5-3.9-.1-4.5-2.7-9.7-.7-14.3-2.3-.7-.3-1.2-1.1-2.3-2.2 4.3.4 8.1 1.3 11.9 1.1 3.5-.3 5.9 1.6 8.6 3.5zM496.8 287.2c-2 2.8-6.7 1.7-7.1 6 0 .2-1 .6-1.4.4-.6-.3-1.5-.8-1.5-1.4-.2-1.6-.1-3.2-.1-5.1 3.5.1 6.7.1 10.1.1zM1136.4 468.2c-2.1.3-3.7-1.4-3.3-3.5.3-1.6.7-3.1.7-4.7 0-2.1 1.3-2.1 2.7-1.9.8.1 1.8.2 2.1.7.3.5.2 1.6-.2 2.2-1.5 2-5 3.4-1.3 6.4.1.1.1.6 0 .8 0 .1-.4 0-.7 0zM837.6 262.6c3.3-3.1 3.3-3.1 13-2.2-5.2 2.9-5.2 2.9-13 2.2zM1135.6 512.2c-1.2.2-3.1-.8-3.3 1.3-.3 2.4-.2 4.8-1 7.2-.6-4.9-1-9.8-.4-14.7 0-.2.9-.4 1.4-.6.1 1.5-.7 3.3 2.1 3.5 1.9.1.9 2.1 1.2 3.3zM1206.3 613.9c2.9 0 5.1-.2 7.2.1.6.1 1.5 1.3 1.6 2.1.1.9-.2 2.4-.9 2.8-1.6 1-4.9-.6-6.1-2.7-.3-.6-.8-1.1-1.8-2.3zM1074.4 268.3c1.9-4 4.9-3.6 7.6-3.3 1.6.2 3 1.3 4.8 2.2-.8.7-1 1.1-1.2 1.1h-11.2zM1152.5 484.1c-2.5 2.1-3.6 3.6-5.1 4.3-.9.4-3.1.9-3.2-1.2-.1-1.3-1.2-3.6 1.6-3.7 1.6-.1 3.4.3 6.7.6zM1197.9 280.6c-2.5.8-8.9 1.7-10.5 1.1-.5-.2-1-1.3-.9-1.9.1-.5 1.1-1.4 1.5-1.3 3.3.6 6.6 1.4 9.9 2.1zM566 656.5c-1.8-.4-3.3-.4-4.4-1-.7-.3-1-1.5-1.5-2.3 1.1-.7 2.7-2.2 3.3-1.9 1.7.8 3 2.4 4.4 3.7-.7.6-1.4 1.1-1.8 1.5zM442.7 281.8c-2.4 3.5-5.9 1.2-8.8 1.5-.9.1-2-2.1-3.1-3.2 3.9.6 7.9 1.2 11.9 1.7zM425.7 427.5c2.8 2.4 6.1 7.3 6.8 10.2-4.1-2.2-6.4-5.5-6.8-10.2zM484.8 305.3h-12.7c2.6-1.5 3-4.5 6-2.4 1.6 1 3.7 1.3 6.7 2.4zM1052.6 257.2c1.7-.8 3.3-2.3 5-2.3 1.6 0 3.2 1.4 5.5 2.4-3.7 1.4-7 .5-10.5-.1zM835.2 263.2c-1.6 0-3.1-.1-4.7 0-1.4.1-2.1-.3-1.6-1.6.3-.7 1.4-1.8 1.9-1.7 1.7.3 3.3 1.1 4.9 1.7-.1.5-.3 1.1-.5 1.6zM1176.2 513.9c-2.2 0-4 0-5.9-.1 0 0 0-1.1-.1-1.6 2.1.1 3.4-.2 1.1-2.3-.1-.1.3-.9.6-1 .5-.2 1.4-.2 1.6 0 1 1.4 1.7 3 2.7 5zM1153.4 524.7c-2.8 4.7-5.9 5.1-8.9 5.9 1.4-3.2 4.4-3.9 8.9-5.9zM442.3 282.2c.8-1.6 1.6-2.7 2-3.9.4-1.4 1.5-2.1 1.6-.4.2 4.2 3.8 1.1 5.3 3.3-2.9 1.5-5.9 0-8.9 1zM551.4 456.6h11.3c-3.7 2-7.5 1.1-11.3 0zM955.9 280.1c4-2.2 7.9-1.4 11.9-.4l-6 .4c-2 .1-4 0-5.9 0zM421.9 278.4c2.6 0 4.3-.1 5.9 0 1 .1 2 .5 3 .8-1.1.3-2.5.3-3.3.9-2.2 1.7-3.7 1.5-5.6-1.7zM464.7 266.6c-2.5 0-4.9.1-7.3-.1-.4 0-1.1-1.1-1.1-1.7 0-1.6.5-1.3 1.8-.7 2.1.9 4.6 1.2 6.9 1.8-.2.2-.2.4-.3.7zM493.5 278.4c2.6-.3 4.4.7 5.1 3.4-.8 0-1.6-.1-2.4 0-3 .5-2.8-1.5-2.7-3.4zM475.5 281c-1.9.4-3.2.7-4.5.8-.2 0-.7-1.1-.6-1.3.8-1.2 1.6-2.7 3.4-1.9.6.1.8 1 1.7 2.4zM1263.9 558.7c2.9-1.2 4.8-1.1 6.3 1l.5 1.1c-.5.2-1.1.6-1.4.5-1.6-.7-3.2-1.5-5.4-2.6zM537.2 290h-9.9c4.6-1.9 7.3-1.2 9.9 0zM1012.7 482.7c1 2.1 1.8 3.5 2.5 4.9-.7.3-1.6 1-2.1.8-2.2-1.1-1.4-3-.4-5.7zM1226.4 517.3c-1.4 1.2-1.7 1.7-2.2 1.9l-3.3 1.3-.6-2.1 3.5-1c.4-.2 1-.1 2.6-.1zM909.3 256.4c2.4 0 3.7-.3 4.8.1.6.2.8 1.6 1.2 2.5-.8.3-1.8 1-2.4.7-1-.5-1.8-1.6-3.6-3.3zM405.8 278.2c2.4-1.2 3.7-1.5 4.6-2.3 1.2-1 2.4-1.3 3.3 0 .1.2-1.3 1.9-2.1 2.1-1.5.4-3 .2-5.8.2zM798.8 356.2c-.1-3-.3-4.5-.2-5.9 0-.3 1.3-.5 2-.7.2.5.6 1.1.4 1.5-.3 1.2-1 2.4-2.2 5.1zM1310.3 297.4h6.2c0 .3 0 .7.1 1l-6.1.4c-.1-.5-.1-1-.2-1.4zM1199.9 287.8c-.4.3-.9.8-1.3.7-1.4-.2-3.5 1.1-3.7-1.7-.1-1.5.4-1.9 1.7-.8.6.5 1.4.5 2.1.8l1.2 1zM1230.5 512c.6.4 1.4.9 2.1 1.6.4.4.4 1.1.6 1.7-.5.1-1.2.4-1.5.2-.9-.5-1.7-1.2-2.4-2-.2-.2-.1-.8.1-1.1 0-.1.4-.1 1.1-.4zM530.6 483.4c-1.8 0-3.6.1-5.4 0-.4 0-.8-.5-1.2-.8.5-.3 1.1-.7 1.6-.8 1.6-.1 3.1 0 4.7 0l.3 1.6zM302.8 451c.4.9.7 1.4.9 2l1.1 3.1c-.5.1-1.4.3-1.5.2-.5-1.1-.9-2.2-1.2-3.4-.1-.4.3-.9.7-1.9zM1158.4 514.4c-.1-.3-.4-.9-.6-1.6 1-.2 2-.5 3.1-.5.5 0 1 .7 1.5 1-1 .3-2 .6-4 1.1zM538 320.8c1 0 2-.1 3 0 .6.1 1.1.5 1.6.8-.4.3-.8.8-1.2.8-1.2.1-2.5-.1-3.8-.1.1-.5.2-1 .4-1.5zM1137.2 518.6c0-1-.1-2 0-3 .1-.6.5-1.1.8-1.6.3.4.8.8.8 1.2.1 1.2-.1 2.5-.1 3.8-.4-.2-.9-.3-1.5-.4zM264.8 327.1h-5.1v-.8h5.1v.8zM751.3 332.2c-.5.6-1 1.2-1.5 1.9-.2-.7-.6-1.5-.5-2.2.1-.8.7-1.5 1.1-2.3.3.7.5 1.4.9 2.6zM535 460.2c-.1-.3-.4-.9-.6-1.6 1-.2 2-.5 3.1-.5.5 0 1 .7 1.5 1-1 .3-2.1.5-4 1.1zM1134.3 447.8v-5.1h.8v5.1h-.8zM434.2 439.4l3.4 3.4c-2.8.5-3.9-.7-3.4-3.4zM312.4 345.3c-1 .8-2 1.6-2.9 2.4-.2-.4-.6-.9-.6-1.3-.2-2 1.2-2 2.6-1.8.2 0 .5.4.9.7zM814.8 407.5c-1.1-.4-1.8-.7-2.6-.9.8-.4 1.5-.9 2.3-1 .7-.1 1.5.3 2.2.5-.6.5-1.3 1-1.9 1.4zM840.8 405.5v-3.4c.5.2 1.1.3 1.4.6.6.7 1.1 1.5 1.7 2.3-1.1.1-2.1.3-3.1.5zM800.2 399.5c-.6.4-1.2.9-1.4.8-.8-.4-1.5-1-2-1.7-.2-.2.3-.9.5-1.3l2.9 2.2zM1200.9 377l2.4 2.3c-.7.3-1.8 1-2 .8-.6-.6-1-1.6-1.3-2.4 0-.2.6-.6.9-.7zM585 372.9h-5.1v-.8h5.1v.8zM937.9 254.4c1.1.4 1.8.7 2.6.9-.8.4-1.5.9-2.3 1-.7.1-1.5-.3-2.2-.5.6-.5 1.3-1 1.9-1.4zM1201.6 278.9h5.1v.8h-5.1v-.8zM970.4 278.9c-.1-.3-.4-.9-.6-1.6 1-.2 2-.5 3.1-.5.5 0 1 .7 1.5 1-1.1.3-2.1.6-4 1.1zM628.4 246c-.3-.2-1-.6-1-.7.3-.9.7-1.8 1.3-2.4.3-.2 1.3.5 2 .8l-2.3 2.3zM488.3 277.7c.4-.4.6-.8.8-.8 1.5.2 2.9.5 4.4.8.1 0 0 .5 0 .8h-4c-.3-.1-.5-.3-1.2-.8zM705.6 296.6c-.5 1.1-.7 1.5-1 2-.9-.8-1.8-1.6-2.8-2.4.3-.3.6-.8.8-.7 1 .2 2 .7 3 1.1zM570.1 259.8c1 0 2-.1 3 0 .6.1 1.1.5 1.6.8-.4.3-.8.8-1.2.8-1.2.1-2.5-.1-3.8-.1.2-.5.3-1 .4-1.5zM952.1 300.1c.6.5 1.2 1 1.9 1.5-.7.2-1.5.6-2.2.5-.8-.1-1.5-.7-2.3-1.1.7-.2 1.4-.5 2.6-.9zM838.2 272.1c-.1-.3-.4-.9-.6-1.6 1-.2 2-.5 3.1-.5.5 0 1 .7 1.5 1-1 .3-2 .6-4 1.1zM1249.3 523.4c-.9.3-1.6.6-2.3.6-.4 0-.9-.5-1.3-.8.7-.3 1.4-.7 2.1-.8.4 0 .8.6 1.5 1zM841.4 406.7c-1.5.2-2.4.3-3.4.3-.1 0-.2-.7-.3-1.1.7-.1 1.5-.4 2.2-.4.4 0 .7.5 1.5 1.2zM483.1 274.9c.6.3 1.2.6 1.9 1-.4.3-.9.8-1.3.8-.7-.1-1.4-.5-2.1-.8.4-.3.9-.6 1.5-1zM784.8 400.1c-.9.1-1.7.3-2.4.3-.2 0-.4-.7-.6-1.1.7-.2 1.5-.5 2.2-.5.2 0 .4.6.8 1.3zM1255.8 527.1c-.9.1-1.7.3-2.4.3-.2 0-.4-.7-.6-1.1.7-.2 1.5-.5 2.2-.5.1 0 .4.7.8 1.3zM1133.1 529.5c-.1-.3-.4-.9-.6-1.5.5-.2 1-.6 1.4-.5.5.1 1 .7 1.5 1.1-.6.2-1 .4-2.3.9zM800 392.3c-.4.6-.6 1.3-.8 1.3-.7 0-1.5-.3-2.2-.5.2-.4.4-1 .6-1.1.8-.1 1.5.2 2.4.3zM578.2 385.2c-.1 2.5-2.1 1.4-3.4 1.7.1-2.6 2.1-1.5 3.4-1.7zM1218.1 385.1c-.9-.1-1.6-.1-2.3-.2-.1 0 0-1.1 0-1.1.7-.1 1.5-.1 2.2 0 .1 0 .1.7.1 1.3zM579.9 383.3c.6.4 1.1.6 1.5.8-.8.3-1.6.7-2.5.9-.2 0-.5-.5-.8-.7.7-.3 1.3-.7 1.8-1zM949.9 254.2c-1.5.2-2.4.3-3.4.3-.1 0-.2-.7-.3-1.1.7-.1 1.5-.4 2.2-.4.3 0 .6.5 1.5 1.2zM486.2 283.4c-.9-.1-1.6-.1-2.3-.2-.1 0 0-1.1 0-1.1.7-.1 1.5-.1 2.2 0 .1 0 .1.8.1 1.3zM809.3 267.8c-1.5.2-2.4.3-3.4.3-.1 0-.2-.7-.3-1.1.7-.1 1.5-.4 2.2-.4.3 0 .6.4 1.5 1.2zM464.7 266.6c1.3.3 3.2-.8 3.4 1.7-1.3-.3-3.3.8-3.4-1.7zM439.3 268.1c.6.4 1.1.6 1.5.8-.8.3-1.6.7-2.5.9-.2 0-.5-.5-.8-.7.7-.3 1.3-.7 1.8-1zM1176.6 487.7c-.6 1.3-.7 1.8-.9 2.3-.4-.5-.9-.9-1.1-1.5-.1-.4.4-1.3.5-1.3.6 0 1.2.4 1.5.5zM856.9 266.9c-.1-.3-.4-.9-.6-1.5.5-.2 1-.6 1.4-.5.5.1 1 .7 1.5 1.1-.5.2-1 .4-2.3.9zM481.6 269.6c-.9.1-1.7.3-2.4.3-.2 0-.4-.7-.6-1.1.7-.2 1.5-.5 2.2-.5.1 0 .4.7.8 1.3zM1140.6 469.9c-1.3-.3-3.2.8-3.4-1.7 1.3.2 3.3-.9 3.4 1.7zM620.6 505.3c.6.4 1.1.6 1.5.8-.8.3-1.6.7-2.5.9-.2 0-.5-.5-.8-.7.7-.3 1.3-.7 1.8-1zM1049.3 261.8c-.7-.5-1.2-.9-1.7-1.3.7-.2 1.4-.6 2.1-.6.4 0 .8.5 1.2.8-.5.4-1 .7-1.6 1.1zM615.5 508.8c.1-2.5 2.1-1.4 3.4-1.7-.2 2.6-2.2 1.5-3.4 1.7zM919.4 260.8c-1.5.3-2.3.8-2.9.6-.5-.2-.8-1-1.2-1.6.5 0 1.1-.1 1.6 0 .6.2 1.2.5 2.5 1zM1099.2 456.7c-.1-.3-.4-.9-.6-1.5.5-.2 1-.6 1.4-.5.5.1 1 .7 1.5 1.1-.6.1-1 .3-2.3.9zM871.2 260.1c-.4.6-.6 1.3-.8 1.3-.7 0-1.5-.3-2.2-.5.2-.4.4-1 .6-1.1.7 0 1.5.2 2.4.3zM296.7 451.4c-.6-.4-1.1-.7-1.5-1 .7-.3 1.4-.7 2.1-.8.4 0 .9.5 1.3.8l-1.9 1zM420.6 274.7c-.9.1-1.7.3-2.4.3-.2 0-.4-.7-.6-1.1.7-.2 1.5-.5 2.2-.5.1 0 .4.7.8 1.3zM948.2 259.1c-1.5.3-2.3.8-2.9.6-.5-.2-.8-1-1.2-1.6.5 0 1.1-.1 1.6 0 .6.2 1.2.5 2.5 1zM1155.1 435.6c1.3.5 1.8.7 2.2.9-.5.4-.9.9-1.5 1.1-.4.1-.9-.3-1.4-.5.3-.6.6-1.2.7-1.5zM593.1 644.4c.1.9.3 1.7.3 2.4 0 .2-.7.4-1.1.6-.2-.7-.5-1.5-.5-2.2 0-.1.7-.4 1.3-.8zM542.5 310.3c-.9.1-1.7.3-2.4.3-.2 0-.4-.7-.6-1.1.7-.2 1.5-.5 2.2-.5.2 0 .5.7.8 1.3zM522.2 329.6c-.4.6-.6 1.3-.8 1.3-.7 0-1.5-.3-2.2-.5.2-.4.4-1 .6-1.1.7 0 1.5.2 2.4.3zM702.7 317.7c-.1-.3-.4-.9-.6-1.5.5-.2 1-.6 1.4-.5.5.1 1 .7 1.5 1.1-.5.2-1 .4-2.3.9zM532 330.9c-.9-.1-1.6-.1-2.3-.2-.1 0 0-1.1 0-1.1.7-.1 1.5-.1 2.2 0 0 0 0 .7.1 1.3zM659.4 653.2c-.4.6-.6 1.3-.8 1.3-.7 0-1.5-.3-2.2-.5.2-.4.4-1 .6-1.1.8-.1 1.5.1 2.4.3zM922 304.2c-.4.6-.6 1.3-.8 1.3-.7 0-1.5-.3-2.2-.5.2-.4.4-1 .6-1.1.7 0 1.5.2 2.4.3zM1107.6 285.6c-.1-.3-.4-.9-.6-1.5.5-.2 1-.6 1.4-.5.5.1 1 .7 1.5 1.1-.5.1-1 .3-2.3.9zM982.1 638.6c-1.5.3-2.3.8-2.9.6-.5-.2-.8-1-1.2-1.6.5 0 1.1-.1 1.6 0 .6.2 1.2.5 2.5 1zM1272.5 506.5l-.6.6c-.2-.4-.4-.7-.5-1.1 0-.1.3-.4.5-.6.2.4.4.8.6 1.1zM1169.2 508.2l-.6.6c-.2-.4-.4-.7-.5-1.1 0-.1.3-.4.5-.6.2.4.4.8.6 1.1zM1291.2 508.2l-.6.6c-.2-.4-.4-.7-.5-1.1 0-.1.3-.4.5-.6.2.4.4.8.6 1.1zM786.3 509.9l-.6.6c-.2-.4-.4-.7-.5-1.1 0-.1.3-.4.5-.6.2.4.4.8.6 1.1zM543.7 637.8l.6.6c-.4.2-.7.4-1.1.5-.1 0-.4-.3-.6-.5l1.1-.6zM1098 509.9l-.6.6c-.2-.4-.4-.7-.5-1.1 0-.1.3-.4.5-.6.2.4.4.8.6 1.1zM1162.4 509.9l-.6.6c-.2-.4-.4-.7-.5-1.1 0-.1.3-.4.5-.6.2.4.4.8.6 1.1zM977.2 637.6l-.8-1c.4-.1.9-.4 1-.3.3.4.4.8.5 1.3h-.7zM1276.4 633.1l.6-.6c.2.4.4.7.5 1.1 0 .1-.3.4-.5.6l-.6-1.1zM1213.2 509.9l-.6.6c-.2-.4-.4-.7-.5-1.1 0-.1.3-.4.5-.6.2.4.4.8.6 1.1zM544.1 628.5l-.6.6c-.2-.4-.4-.7-.5-1.1 0-.1.3-.4.5-.6.2.4.4.8.6 1.1zM1094 512.2c.2.4.4.7.5 1.1 0 .1-.3.4-.5.6-.2-.4-.4-.7-.5-1.1 0-.2.4-.4.5-.6zM1135.6 512.2l1.7 1.7c-.6-.5-1.2-1.1-1.7-1.7zM545.8 618.3l-.6.6c-.2-.4-.4-.7-.5-1.1 0-.1.3-.4.5-.6.2.4.4.8.6 1.1zM621.6 244.8l.6.6c-.4.2-.7.4-1.1.5-.1 0-.4-.3-.6-.5.4-.2.8-.4 1.1-.6zM560.2 659.4l-.6-.6c.4-.2.7-.4 1.1-.5.1 0 .4.3.6.5-.4.2-.8.4-1.1.6zM1223.9 484l.6-.6c.2.4.4.7.5 1.1 0 .1-.3.4-.5.6l-.6-1.1zM1140.6 485.9l-1 .8c-.1-.4-.4-.9-.3-1 .4-.3.8-.4 1.3-.5v.7zM990.1 487.4l.6-.6c.2.4.4.7.5 1.1 0 .1-.3.4-.5.6l-.6-1.1zM1215.4 489.1l.6-.6c.2.4.4.7.5 1.1 0 .1-.3.4-.5.6l-.6-1.1zM549.2 650.4c-.2.2-.5.6-.5.5-.4-.2-.7-.5-1-.8l.8-.8c.2.5.5.8.7 1.1zM1210.9 490.2c.2.4.4.7.5 1.1 0 .1-.3.4-.5.6-.2-.4-.4-.7-.5-1.1 0-.2.4-.4.5-.6zM1262.4 493l-.6.6c-.2-.4-.4-.7-.5-1.1 0-.1.3-.4.5-.6l.6 1.1zM471.7 262.6l.6-1.1c.2.2.6.4.5.6-.1.4-.3.8-.5 1.1l-.6-.6zM1096.3 496.4l-.6.6c-.2-.4-.4-.7-.5-1.1 0-.1.3-.4.5-.6.2.3.4.7.6 1.1zM1064.2 503.1l-.6.6c-.2-.4-.4-.7-.5-1.1 0-.1.3-.4.5-.6.2.4.4.8.6 1.1zM1156.9 502.2c.2.2.6.5.5.5-.2.4-.5.7-.8 1l-.8-.8c.4-.2.7-.4 1.1-.7zM1287.8 503.1l-.6.6c-.2-.4-.4-.7-.5-1.1 0-.1.3-.4.5-.6.2.4.4.8.6 1.1zM1133.1 503.9c.2.2.6.5.5.5-.2.4-.5.7-.8 1l-.8-.8c.5-.2.8-.4 1.1-.7zM1155.9 504.5l-1 .8c-.1-.4-.4-.9-.3-1 .4-.3.8-.4 1.3-.5v.7zM492.6 505.4c.2.4.4.7.5 1.1 0 .1-.3.4-.5.6-.2-.4-.4-.7-.5-1.1 0-.1.3-.4.5-.6zM546.9 649.4l-.8-1c.4-.1.9-.4 1-.3.3.4.4.8.5 1.3h-.7zM498.3 506l-.6 1.1c-.2-.2-.6-.4-.5-.6.1-.4.3-.8.5-1.1l.6.6zM588.1 645l-.6 1.1c-.2-.2-.6-.4-.5-.6.1-.4.3-.8.5-1.1.2.2.4.3.6.6zM1045.5 253.6l-.6 1.1c-.2-.2-.6-.4-.5-.6.1-.4.3-.8.5-1.1l.6.6zM455.1 573l-.6-.6c.4-.2.7-.4 1.1-.5.1 0 .4.3.6.5l-1.1.6zM396.1 568.1c.2.4.4.7.5 1.1 0 .1-.3.4-.5.6-.2-.4-.4-.7-.5-1.1-.1-.2.3-.4.5-.6zM1250.5 528.6l-.6.6c-.2-.4-.4-.7-.5-1.1 0-.1.3-.4.5-.6.2.3.4.7.6 1.1zM1129.6 529.2c.2.4.4.7.5 1.1 0 .1-.3.4-.5.6-.2-.4-.4-.7-.5-1.1 0-.2.3-.4.5-.6zM1230.4 533.4c-.4.2-.7.4-1.1.5-.1 0-.4-.3-.6-.5.4-.2.7-.4 1.1-.5.2-.1.4.3.6.5zM1251.6 532.6c.2.4.4.7.5 1.1 0 .1-.3.4-.5.6-.2-.4-.4-.7-.5-1.1-.1-.2.3-.5.5-.6zM384.8 567l-.6 1.1c-.2-.2-.6-.4-.5-.6.1-.4.3-.8.5-1.1l.6.6zM367.9 564.1l-.6.6c-.2-.4-.4-.7-.5-1.1 0-.1.3-.4.5-.6.2.4.4.8.6 1.1zM1322.8 558c.2.4.4.7.5 1.1 0 .1-.3.4-.5.6-.2-.4-.4-.7-.5-1.1-.1-.2.3-.4.5-.6zM926.9 253.6l-.6 1.1c-.2-.2-.6-.4-.5-.6.1-.4.3-.8.5-1.1l.6.6zM944.1 558.8c-.4.2-.7.4-1.1.5-.1 0-.4-.3-.6-.5.4-.2.7-.4 1.1-.5.2-.1.4.3.6.5zM954 253.6l-.6 1.1c-.2-.2-.6-.4-.5-.6.1-.4.3-.8.5-1.1l.6.6zM905.2 536.8c-.4.2-.7.4-1.1.5-.1 0-.4-.3-.6-.5.4-.2.7-.4 1.1-.5.1-.1.4.3.6.5zM937.6 558.6l.6-.6c.2.4.4.7.5 1.1 0 .1-.3.4-.5.6-.2-.4-.4-.8-.6-1.1zM907.1 539.9l.6-.6c.2.4.4.7.5 1.1 0 .1-.3.4-.5.6-.2-.3-.4-.7-.6-1.1zM1338.2 542.5l-1.1-.6c.2-.2.4-.6.6-.5.4.1.8.3 1.1.5-.1.2-.3.3-.6.6zM324.3 551.8l.6-.6c.2.4.4.7.5 1.1 0 .1-.3.4-.5.6-.2-.4-.4-.8-.6-1.1zM935.4 547.2l-.6.6c-.2-.4-.4-.7-.5-1.1 0-.1.3-.4.5-.6l.6 1.1zM321.5 549.5c.2.4.4.7.5 1.1 0 .1-.3.4-.5.6-.2-.4-.4-.7-.5-1.1 0-.2.3-.4.5-.6zM1304.7 550.6l-.6.6c-.2-.4-.4-.7-.5-1.1 0-.1.3-.4.5-.6l.6 1.1zM962.5 257.5l-.6.6c-.2-.4-.4-.7-.5-1.1 0-.1.3-.4.5-.6l.6 1.1zM955.4 256.7l.6.6c-.4.2-.7.4-1.1.5-.1 0-.4-.3-.6-.5.3-.2.7-.5 1.1-.6zM938.4 515.9l.6.6c-.4.2-.7.4-1.1.5-.1 0-.4-.3-.6-.5.4-.2.8-.5 1.1-.6zM1226.3 515.7c.2.2.6.5.5.5-.2.4-.5.7-.8 1l-.8-.8c.5-.1.8-.4 1.1-.7zM943.4 258.1l-.8-1c.4-.1.9-.4 1-.3.3.4.4.8.5 1.3h-.7zM1144.9 519c.2.4.4.7.5 1.1 0 .1-.3.4-.5.6-.2-.4-.4-.7-.5-1.1-.1-.2.3-.4.5-.6zM720.2 250.2l-.6 1.1c-.2-.2-.6-.4-.5-.6.1-.4.3-.8.5-1.1l.6.6zM1176 520.1l-.6.6c-.2-.4-.4-.7-.5-1.1 0-.1.3-.4.5-.6l.6 1.1zM892.7 520.9l.6.6c-.4.2-.7.4-1.1.5-.1 0-.4-.3-.6-.5l1.1-.6zM1204.2 610.5c.2.4.4.7.5 1.1 0 .1-.3.4-.5.6-.2-.4-.4-.7-.5-1.1-.1-.2.3-.4.5-.6zM1242 521.8l-.6.6c-.2-.4-.4-.7-.5-1.1 0-.1.3-.4.5-.6l.6 1.1zM1138.3 522.6l.6.6c-.4.2-.7.4-1.1.5-.1 0-.4-.3-.6-.5.4-.2.8-.4 1.1-.6zM950.2 251.5c.2.2.6.5.5.5-.2.4-.5.7-.8 1l-.8-.8c.4-.2.8-.5 1.1-.7zM1164.6 524.7l.6-.6c.2.4.4.7.5 1.1 0 .1-.3.4-.5.6-.2-.4-.4-.8-.6-1.1zM1243.4 524.3l.6.6c-.4.2-.7.4-1.1.5-.1 0-.4-.3-.6-.5l1.1-.6zM1293.1 600.3l1.7 1.7-1.7-1.7zM1306.4 525.2l-.6.6c-.2-.4-.4-.7-.5-1.1 0-.1.3-.4.5-.6.2.3.4.7.6 1.1zM1292.4 600.3l-.8-1c.4-.1.9-.4 1-.3.3.4.4.8.5 1.3h-.7zM1118.6 526.6c-.4.2-.7.4-1.1.5-.1 0-.4-.3-.6-.5.4-.2.7-.4 1.1-.5.2 0 .4.3.6.5zM1143.8 526.9l-.6.6c-.2-.4-.4-.7-.5-1.1 0-.1.3-.4.5-.6.2.3.4.7.6 1.1zM962.5 251.9l-.6 1.1c-.2-.2-.6-.4-.5-.6.1-.4.3-.8.5-1.1l.6.6zM270.9 357.8l-1.1-.6c.2-.2.4-.6.6-.5.4.1.8.3 1.1.5-.1.2-.3.4-.6.6zM370.4 356.6l1.1.6c-.2.2-.4.6-.6.5-.4-.1-.8-.3-1.1-.5l.6-.6zM266.5 358.9c-.4.2-.7.4-1.1.5-.1 0-.4-.3-.6-.5.4-.2.7-.4 1.1-.5.1-.1.4.3.6.5zM374.6 364.2l-.6.6c-.2-.4-.4-.7-.5-1.1 0-.1.3-.4.5-.6.2.4.4.8.6 1.1zM1238.7 367.6l-.6.6c-.2-.4-.4-.7-.5-1.1 0-.1.3-.4.5-.6.2.4.4.8.6 1.1zM601.2 368.4c.2.2.6.5.5.5-.2.4-.5.7-.8 1l-.8-.8c.4-.2.8-.5 1.1-.7zM717.9 280.1c.2.4.4.7.5 1.1 0 .1-.3.4-.5.6-.2-.4-.4-.7-.5-1.1 0-.2.4-.4.5-.6zM462.7 281.2l-.6.6c-.2-.4-.4-.7-.5-1.1 0-.1.3-.4.5-.6.2.4.4.8.6 1.1zM1179.8 279.5l.6-1.1c.2.2.6.4.5.6-.1.4-.3.8-.5 1.1-.1-.2-.3-.4-.6-.6zM1228.5 377.8l-.6.6c-.2-.4-.4-.7-.5-1.1 0-.1.3-.4.5-.6l.6 1.1zM1230.2 277.8l-.6.6c-.2-.4-.4-.7-.5-1.1 0-.1.3-.4.5-.6.2.4.4.8.6 1.1zM589.2 380.1c.2.4.4.7.5 1.1 0 .1-.3.4-.5.6-.2-.4-.4-.7-.5-1.1-.1-.2.3-.4.5-.6zM1221.4 381.5l-1.1-.6c.2-.2.4-.6.6-.5.4.1.8.3 1.1.5l-.6.6zM1212.4 385.4l1.1.6c-.2.2-.4.6-.6.5-.4-.1-.8-.3-1.1-.5l.6-.6zM470.7 278.4l-.8-1c.4-.1.9-.4 1-.3.3.4.4.8.5 1.3h-.7zM574.8 387.6l-1 .8c-.1-.4-.4-.9-.3-1 .4-.3.8-.4 1.3-.5v.7zM1211.5 389.6l-.6.6c-.2-.4-.4-.7-.5-1.1 0-.1.3-.4.5-.6.2.4.4.8.6 1.1zM465.8 277l.6.6c-.4.2-.7.4-1.1.5-.1 0-.4-.3-.6-.5.3-.2.7-.4 1.1-.6zM1220 276.1l-.6.6c-.2-.4-.4-.7-.5-1.1 0-.1.3-.4.5-.6.2.4.4.8.6 1.1zM1062.9 275.6l.6-.6c.2.4.4.7.5 1.1 0 .1-.3.4-.5.6-.2-.3-.4-.7-.6-1.1zM1138.9 399.5l-1 .8c-.1-.4-.4-.9-.3-1 .4-.3.8-.4 1.3-.5v.7zM849 276.1l-.6.6c-.2-.4-.4-.7-.5-1.1 0-.1.3-.4.5-.6.2.4.4.8.6 1.1zM833.8 406.1l-.6 1.1c-.2-.2-.6-.4-.5-.6.1-.4.3-.8.5-1.1.1.2.3.4.6.6zM845.6 410l-.6.6c-.2-.4-.4-.7-.5-1.1 0-.1.3-.4.5-.6.2.3.4.7.6 1.1zM533.9 307.8l-.6 1.1c-.2-.2-.6-.4-.5-.6.1-.4.3-.8.5-1.1l.6.6zM483.3 305.5h1.7c-.4.5-.8.9-1.1 1.4-.2-.4-.4-.9-.6-1.4zM532.2 304.4l-.6 1.1c-.2-.2-.6-.4-.5-.6.1-.4.3-.8.5-1.1l.6.6zM800.4 323.6l.6-1.1c.2.2.6.4.5.6-.1.4-.3.8-.5 1.1l-.6-.6zM486 304c.2.2.6.5.5.5-.2.4-.5.7-.8 1l-.8-.8c.4-.2.8-.5 1.1-.7zM370.8 304c.2.2.6.5.5.5-.2.4-.5.7-.8 1l-.8-.8c.4-.2.8-.5 1.1-.7zM535.6 327l-.6.6c-.2-.4-.4-.7-.5-1.1 0-.1.3-.4.5-.6.2.3.4.7.6 1.1zM828.7 301.5l-.6.6c-.2-.4-.4-.7-.5-1.1 0-.1.3-.4.5-.6.2.4.4.8.6 1.1zM767.7 334.9l-.6 1.1c-.2-.2-.6-.4-.5-.6.1-.4.3-.8.5-1.1l.6.6zM832.3 336.9c-.4.2-.7.4-1.1.5-.1 0-.4-.3-.6-.5.4-.2.7-.4 1.1-.5.2-.1.4.3.6.5zM760.4 341.3c.2.2.6.5.5.5-.2.4-.5.7-.8 1l-.8-.8c.5-.2.8-.5 1.1-.7zM313.2 342.9c.2.2.6.5.5.5-.2.4-.5.7-.8 1l-.8-.8c.4-.1.8-.4 1.1-.7zM362.2 344.5c.2.4.4.7.5 1.1 0 .1-.3.4-.5.6-.2-.4-.4-.7-.5-1.1-.1-.2.3-.4.5-.6zM298.7 347l-1 .8c-.1-.4-.4-.9-.3-1 .4-.3.8-.4 1.3-.5v.7zM825.8 347.3l.6-1.1c.2.2.6.4.5.6-.1.4-.3.8-.5 1.1l-.6-.6zM262 348.1l1.1.6c-.2.2-.4.6-.6.5-.4-.1-.8-.3-1.1-.5.2-.2.4-.3.6-.6zM453.8 288.7c.2.2.6.5.5.5-.2.4-.5.7-.8 1l-.8-.8c.4-.1.8-.4 1.1-.7zM305.2 352.4l-.6.6c-.2-.4-.4-.7-.5-1.1 0-.1.3-.4.5-.6.2.3.4.7.6 1.1zM371.3 352.4l-.6.6c-.2-.4-.4-.7-.5-1.1 0-.1.3-.4.5-.6.2.3.4.7.6 1.1zM1269.1 352.4l-.6.6c-.2-.4-.4-.7-.5-1.1 0-.1.3-.4.5-.6.2.3.4.7.6 1.1zM806.3 354.4l-1.1-.6c.2-.2.4-.6.6-.5.4.1.8.3 1.1.5l-.6.6zM816.2 353c.2.4.4.7.5 1.1 0 .1-.3.4-.5.6-.2-.4-.4-.7-.5-1.1-.1-.2.3-.4.5-.6zM720.7 282.4l.6-.6c.2.4.4.7.5 1.1 0 .1-.3.4-.5.6l-.6-1.1zM1275.6 354.9l.6.6c-.4.2-.7.4-1.1.5-.1 0-.4-.3-.6-.5.3-.2.7-.4 1.1-.6zM581 459.9l.6.6c-.4.2-.7.4-1.1.5-.1 0-.4-.3-.6-.5.3-.2.7-.4 1.1-.6zM703.5 463.9c-.4.2-.7.4-1.1.5-.1 0-.4-.3-.6-.5.4-.2.7-.4 1.1-.5.2 0 .5.4.6.5zM697 467.6l.6-1.1c.2.2.6.4.5.6-.1.4-.3.8-.5 1.1l-.6-.6zM702.1 467.6l.6-1.1c.2.2.6.4.5.6-.1.4-.3.8-.5 1.1l-.6-.6zM1275.9 467.6l-.6.6c-.2-.4-.4-.7-.5-1.1 0-.1.3-.4.5-.6.2.3.4.7.6 1.1zM587.6 468.3c.2.2.6.5.5.5-.2.4-.5.7-.8 1l-.8-.8c.5-.2.8-.4 1.1-.7zM1146 468.8l.6-.6c.2.4.4.7.5 1.1 0 .1-.3.4-.5.6-.2-.4-.4-.8-.6-1.1zM1206.7 469c-.4.2-.7.4-1.1.5-.1 0-.4-.3-.6-.5.4-.2.7-.4 1.1-.5.2 0 .4.3.6.5zM586.7 470.6l-1 .8c-.1-.4-.4-.9-.3-1 .4-.3.8-.4 1.3-.5v.7zM1140.6 469.9"/><path d="M592.8 471.8l.6.6c-.4.2-.7.4-1.1.5-.1 0-.4-.3-.6-.5.4-.2.8-.4 1.1-.6zM1135.6 472.4c-.4.2-.7.4-1.1.5-.1 0-.4-.3-.6-.5.4-.2.7-.4 1.1-.5.1-.1.4.3.6.5zM570.6 473.3c.2.4.4.7.5 1.1 0 .1-.3.4-.5.6-.2-.4-.4-.7-.5-1.1-.1-.2.3-.5.5-.6zM1131.9 474.3l-.6.6c-.2-.4-.4-.7-.5-1.1 0-.1.3-.4.5-.6.2.4.4.8.6 1.1zM1145.6 474.2c-.2.2-.5.6-.5.5-.4-.2-.7-.5-1-.8l.8-.8c.1.5.4.8.7 1.1zM1128.1 478.5c.2.2.6.5.5.5-.2.4-.5.7-.8 1l-.8-.8 1.1-.7zM1150.6 478.9l-.6 1.1c-.2-.2-.6-.4-.5-.6.1-.4.3-.8.5-1.1.1.2.3.4.6.6zM1127.1 480.8l-1 .8c-.1-.4-.4-.9-.3-1 .4-.3.8-.4 1.3-.5v.7zM469.6 269.3c-.2.2-.5.6-.5.5-.4-.2-.7-.5-1-.8l.8-.8.7 1.1zM1233.6 482.3l-.6 1.1c-.2-.2-.6-.4-.5-.6.1-.4.3-.8.5-1.1.2.2.3.4.6.6zM1285.7 483.2l-1.1-.6c.2-.2.4-.6.6-.5.4.1.8.3 1.1.5-.2.2-.3.4-.6.6zM990.1 484l.6-.6c.2.4.4.7.5 1.1 0 .1-.3.4-.5.6l-.6-1.1zM1141.6 483.6c.2.2.6.5.5.5-.2.4-.5.7-.8 1l-.8-.8c.5-.2.8-.5 1.1-.7zM807.1 413.4l.6-1.1c.2.2.6.4.5.6-.1.4-.3.8-.5 1.1-.2-.2-.3-.4-.6-.6zM1152.2 418.4l-.6.6c-.2-.4-.4-.7-.5-1.1 0-.1.3-.4.5-.6.3.4.5.8.6 1.1zM555.3 273.3c.2.4.4.7.5 1.1 0 .1-.3.4-.5.6-.2-.4-.4-.7-.5-1.1 0-.1.3-.4.5-.6zM718.2 431.1l.6.6c-.4.2-.7.4-1.1.5-.1 0-.4-.3-.6-.5l1.1-.6zM723.6 433.2l-.6 1.1c-.2-.2-.6-.4-.5-.6.1-.4.3-.8.5-1.1l.6.6zM535.6 434.9l-.6 1.1c-.2-.2-.6-.4-.5-.6.1-.4.3-.8.5-1.1l.6.6zM718.2 435.7l-1.1-.6c.2-.2.4-.6.6-.5.4.1.8.3 1.1.5l-.6.6zM434.2 439.4l-1.7-1.7c.6.5 1.1 1.1 1.7 1.7zM935.4 438.3l-.6 1.1c-.2-.2-.6-.4-.5-.6.1-.4.3-.8.5-1.1l.6.6zM428.3 273.3c.2.4.4.7.5 1.1 0 .1-.3.4-.5.6-.2-.4-.4-.7-.5-1.1-.1-.1.3-.4.5-.6zM537.3 441.7l-.6 1.1c-.2-.2-.6-.4-.5-.6.1-.4.3-.8.5-1.1.2.2.4.3.6.6zM543.2 441.3l1.1.6c-.2.2-.4.6-.6.5-.4-.1-.8-.3-1.1-.5l.6-.6zM1143.2 441.1c.2.4.4.7.5 1.1 0 .1-.3.4-.5.6-.2-.4-.4-.7-.5-1.1-.1-.2.3-.4.5-.6zM439.1 443.7c-.2.2-.5.6-.5.5-.4-.2-.7-.5-1-.8l.8-.8c.2.5.5.8.7 1.1zM543.5 444.5c.2.4.4.7.5 1.1 0 .1-.3.4-.5.6-.2-.4-.4-.7-.5-1.1-.1-.2.3-.5.5-.6zM1043.8 272.3l-.6 1.1c-.2-.2-.6-.4-.5-.6.1-.4.3-.8.5-1.1.2.1.4.3.6.6zM292.7 447.8c.2.4.4.7.5 1.1 0 .1-.3.4-.5.6-.2-.4-.4-.7-.5-1.1 0-.1.3-.4.5-.6zM553.8 448c.2.2.6.5.5.5-.2.4-.5.7-.8 1l-.8-.8 1.1-.7zM499.7 271.9l.6.6c-.4.2-.7.4-1.1.5-.1 0-.4-.3-.6-.5.3-.2.7-.4 1.1-.6zM552.8 450.3l-1 .8c-.1-.4-.4-.9-.3-1 .4-.3.8-.4 1.3-.5v.7zM433.1 273.1l-.6-.6c.4-.2.7-.4 1.1-.5.1 0 .4.3.6.5-.4.2-.8.4-1.1.6zM437.6 270.7l-1 .8c-.1-.4-.4-.9-.3-1 .4-.3.8-.4 1.3-.5v.7zM1074.6 269l-1 .8c-.1-.4-.4-.9-.3-1 .4-.3.8-.4 1.3-.5v.7zM514.1 460.8l.6-1.1c.2.2.6.4.5.6-.1.4-.3.8-.5 1.1l-.6-.6z"/></g></svg>