<?xml version="1.0" encoding="utf-8"?>
<!-- Generator: Adobe Illustrator 19.1.0, SVG Export Plug-In . SVG Version: 6.00 Build 0)  -->
<svg version="1.1" id="Layer_1" xmlns="http://www.w3.org/2000/svg" xmlns:xlink="http://www.w3.org/1999/xlink" x="0px" y="0px"
	 viewBox="0 0 1600 900" enable-background="new 0 0 1600 900" xml:space="preserve">
<rect fill="#0048DE" width="1600" height="900"/>
<g id="umHtXp.tif_8_">
	<g>
		<path fill="#ECC01C" d="M1138.9,398.7c-1.4-3.5-4.4-1.8-6.2-1.2c-3.2,1.1-6,3.2-9,4.9c2.4,5.4,7,5,11.7,5.7
			c-1.2,0.6-2.4,1.1-3.4,1.9c-2,1.6-2.5,3.7-0.6,5.7c1.3,1.4,2.8,2.8,4.2,4.1c-3.2,3.4-3.2,3.4,0.3,9.7c-4.7,2.8-5.6,8.9-11.3,11.9
			c-4.4,2.3-8.1,5.2-13.4,4.7c-1-0.1-2,0.6-3,0.9c-3.8,1.1-7.5,3.1-11.7,2.4c-2.7-0.5-4.5,1.5-6.6,2.5c-2.4,1.1-2.4,2.7-0.7,4.6
			c1.1,1.2,2.3,2.5,3.6,3.6c2.4,2,3.1,4.8,4.4,7.5c1.3,2.6,0.9,4.9,0.9,7.2c0,2.6-3.2,2.2-4.7,3.4c-1.9,1.4-4.1,3.2-6.2,3.1
			c-1.2,0-2.2-3.5-3.7-4.9c-2.3-2.2-3.8-5.5-8.1-5c-4.6,0.5-4.6,0.1-6.1,5.7c-0.1,0.4-0.6,0.7-1.8,1.9c1.1-6.7-1.6-11.7-3.5-16.9
			c-0.5-1.3-2-3.5-4.1-0.8c-0.7,0.9-2.3,1.4-3.5,1.6c-0.7,0.1-2.3-1.1-2.2-1.4c1.6-7.4-4.8-10.1-8.4-14.4c-0.3-0.4-1.1-1.1-1.2-1
			c-4,3.4-10.1-0.6-13.7,3.7c-4.8,5.7-11.3,9.2-17.5,13.1c-2.5,1.6-3.7,3.1-3.3,5.8c0.8,6-3,10-5.6,15.2c-6.5-7.8-10.3-16.5-14.5-25
			c-0.9-1.8-0.1-4.4-0.3-6.6c-0.1-1.6-0.4-3.2-1.1-4.6c-0.4-0.8-1.9-2.9-2.2,0.2c-0.3,2.3-1.9,1.6-3.1,1.6c-2.4,0-1.9-0.7-0.7-2.2
			c0.9-1.1,0.9-2.9-1.2-2.8c-3.8,0.3-6.7-1.4-9.6-3.6c-1.2-0.9-2.9-1.4-4.4-1.5c-3.4-0.2-6.8,0.1-10.2-0.1c-4-0.3-8-1.1-12-1.6
			c-2.3-5.7-7.3-3.1-11.2-3.3c-3.9-0.2-6-3.1-8.5-5.1c-2-1.7-3.6-3.9-6.4-3.4c-1.4,0.3-2.7,1.6-3.7,2.7c-0.3,0.3,0.6,1.9,1.3,2.7
			c2.7,3.4,5.6,6.7,8.3,10.1c2.5,3.1,3.9,3.7,6.9,2.4c2.9-1.3,5.3-3.7,8.8-3.7c1.3,3.6,4.6,4.5,7.5,6.1c0.6,0.3,1,2.1,0.7,2.7
			c-1.8,2.6-3.4,5.8-6,7.3c-11.6,6.6-24.6,10.1-36.8,15.3c-2.2,0.9-4.2-1.3-4.1-3c0.3-6-3.4-9.6-7.1-13.2c-1-1-2.1-1.9-3-3
			c-2.3-3.2-0.6-9-6.5-9.8c-1.9-3.5-3.6-7-5.6-10.4c-1.3-2-2.9-4.6-5.7-1.4c0,0-1.1-1.1-1.7-1.2c-2.2-0.5-3.3,0.6-2.6,2.7
			c0.5,1.5,1.6,2.8,2.6,4c4.2,5.2,9.2,9.8,9.4,17.3c0.1,2.3,2.7,4.5,4.3,6.6c4.5,5.6,11,9.4,14.5,16c0.7,1.3,3.2,2.3,4.8,2.2
			c3.5-0.1,7,0.9,10.6-1c2.1-1.1,5.2-0.2,8.7-0.2c-5.6,10.3-10.8,19.4-21.1,25.3c-6,3.4-10.3,9.9-15.2,15.1
			c-0.9,0.9-1.8,2.5-1.6,3.5c0.7,3,1.4,6.4,3.2,8.8c3.3,4.2,2,8.8,1.4,12.8c-0.3,2.6-3.9,5-6.4,6.9c-2.3,1.7-5.2,2.3-7.7,3.7
			c-2.2,1.2-3.6,3.9-2.2,5.6c2,2.4,2,4.9,1.2,6.9c-0.7,1.8-3,3.1-4.9,4.1c-2.2,1.2-3.2,2.4-3.4,5c-0.1,2.3-0.8,5-2.3,6.6
			c-4.4,4.7-8.4,10-15.7,11.2c-2,0.3-4.2,0.7-6.3,1c-2.9,0.5-5.8-0.7-8.8,1.5c-2,1.4-5.3,0.2-7.6-1.5c-0.6-0.4-1.6-1-1.5-1.4
			c0.6-6.4-4.1-10.3-7.2-14.8c-2.5-3.6-4.2-7.7-4.5-11.6c-0.3-5.2-2.4-9.3-5.1-13.2c-1.9-2.6-1.7-4.1-0.8-7.2
			c1.1-3.6,3.4-6.5,4-10.3c1.2-7.5-2.8-12.9-6.7-18.4c-0.6-0.9-1.5-1.7-2.4-2.4c-2.5-1.9-3.1-4.3-2.9-7.3c0.3-3.1,0.2-6.2,0-9.3
			c-0.2-2.4-1.5-4.3-4.2-4c-4.3,0.5-8-0.7-11.3-3.4c-2.3-1.9-4.9-2.2-7.6-1.3c-5.4,1.7-10.8,2.9-16.5,3.1c-4,0.2-8.4-1.7-12,1.6
			c-3.7-1.4-7.5-2.5-10.9-4.3c-2.1-1.1-3.5-3.5-5.2-5.4c-2.1-2.5-3.9-5.3-6.4-7.5c-2.3-2-1.9-6.7-6.4-6.7c-0.3,0-1-1.8-0.7-2.1
			c4.8-5.7,3.1-12.5,3.3-19c0.1-3.1,0.5-5.5,4.1-5.9c3.3-5.8,8.7-9.1,14.2-12.3c2.4-1.4,2.2-3.7,2.1-5.9c-0.2-2.8,0.5-4.6,3.6-5.6
			c2.6-0.8,4.9-2.5,6.2-5.3c0.3-0.7,2.4-1.6,2.7-1.3c5.3,4.8,10.4-1.2,15.6-0.2c9.3-4.2,19.3-3.4,29.1-3.3c3,0,3.4,1.7,2.6,5.5
			c-0.2,1,0.3,2.6,1,3.4c1.1,1.1,2.6,2.3,4,2.4c6.8,0.2,12.1,5.5,18.9,5.6c2.8,2.7,5.3,0.3,5.9-1.5c1.4-4.3,5-4.6,7.3-3.4
			c5.6,3,12.1,1.7,17.5,4.8c0.5,0.3,1.7-0.1,2.2-0.5c2.3-1.8,4.5-1.2,6.9-0.4c6.1,1.9,7.3,1.4,10.3-4.3c1.2-2.3,2.4-4.7,3.1-7.2
			c0.5-1.8,0.8-4.3-0.2-5.5c-1.1-1.4-3.5-1.1-5,0.6l-15.6-1.2c-3.6,1.1-4.5-2.2-5.7-4.2c-1.6-2.7-0.6-3.8,3.1-4.5
			c1.3-0.2,2.5-0.7,3.7-1.3c8.9-4,12.9-4.1,23.5-1c4,1.2,8,1.4,11.8-1c1.9-1.2,2.2-3.9,0.4-5.1c-2.2-1.4-4.6-2.5-6.9-3.8
			c-2.1-1.2-3.9-2.1-2.3-5.2c0.9-1.7-0.2-3.3-2.6-2.8c-3.1,0.7-6.1,1.5-9.4,2.3c1.3,1.4,2.4,2.6,3.6,3.8c-3,2-4.2-2-6.6-1.7
			c3.6-4.1-2.8-2.1-2.5-4.2c-2.3,1-5.1,1.5-6.9,3.2c-2.8,2.5-4.9,5.8-7.3,8.8c-0.2,0.2,0.1,0.8,0.1,1.2c0.1,4.4-0.2,5.3-3.3,5.2
			c-3.6-0.1-6.9,1.1-10.3,1.6c-5.4,0.8,0.9,2.7-0.6,3.6c-1.1,0-2.3,0-3.4,0c-1.5-0.1-2.5,0.1-3.6-2.1c-4.7-9.2-14.1-13-22.5-17.9
			c-0.7-0.4-2.4,0.6-3.4,1.3c-1.6,1,0,1.6,0.4,2.4c2.5,4.6,5.7,8.2,11.1,9.7c2.3,0.6,2.6,2.6,2.4,9.5c-1.9-5.4-5.1-8.1-8.9-9.3
			c-3.8-1.3-6.9-3.2-9.3-6.2c-2.8-3.5-6.3-2.8-9.8-2.2c-1.3,0.2-2.5,1.3-3.7,1.2c-4.7-0.2-8.6,0.2-10.6,5.6c-0.6,1.5-4,1.9-6,3
			c-1.4,0.7-3.8,1.9-3.7,2.6c0.8,5.9-4.4,5.2-7.2,7c-2.3,1.5-5.7-0.8-7.6,2.2c-0.1,0.2-1.1,0.1-1.6-0.1c-0.5-0.2-0.9-0.7-1.2-1.2
			c-1.8-3.1-7.2-1.1-7.8-4.9c-0.5-2.7,1-5.7,1.5-8.6c0.2-1.1,0-2.2,0-3.9c5.5,0,10.8-0.1,16.1,0.1c2.5,0.1,5-0.2,5.6-2.5
			c0.7-2.5,1.5-5.6-0.7-7.9c-1.6-1.7-3.6-2.9-5.4-4.3c3.5-1.9,7.4-3.5,11.2-5.1c4.4-1.9,9.5-3.5,13-7.4c2.5-2.9,5.9-3.7,9.6-3.4
			c3.6,0.2,5-1.7,4.9-5.1c2.9,0.9,5.3,4.1,9,1.8c0.6-0.4,2,0.4,2.9,0.8c2.7,1.1,5.2,1.7,7.5-0.8l8.1-0.6c3,2.2,5.1-0.8,7.4-1.6
			c1.8-0.6,2.9-2.5,2.4-4.8c-0.2-1,0-2.1,0-3.9c1.8,0.8,2.6,1.5,3.6,1.6c1.5,0.2,3,0.2,4.6,0.2c-0.2-1.5-0.3-3.1-0.6-4.6
			c-0.1-0.7-0.6-1.4-1.3-2.8c2.2-0.2,4-0.5,5.8-0.5c3.4-0.1,6.8,0,10.2-0.1c0.5,0,1.3-0.4,1.3-0.7c0.1-0.7,0.1-1.8-0.3-2.2
			c-0.9-0.9-2.3-2.1-3.3-2c-3.5,0.3-6.9-1-10.5,1.2c-2.2,1.3-5.9,0.2-9.3,0.2c0-1.6,0.2-3,0-4.3c-0.5-2.7,0.8-3.5,3-4.7
			c2.2-1.1,3.8-3.4,5.4-5.3c0.8-0.9,1.9-2.7,1.5-3.4c-0.9-1.7-2.5-3.4-4.7-2.5c-2.2,0.9-5.3,1.8-6,3.6c-1.6,4.1-5,5-8.3,6.7
			c-2.9,1.5-5.6,4.1-4.4,8c0.5,1.7,2,3.2,3.1,4.8c-1.7,2.3-5.6,3.6-4.8,7.8c-2.1,1-4.1,1.9-6.2,3c-2.7,1.4-4.9,0.9-6.4-1.6
			c-1.1-1.8-1.7-3.8-2.7-5.6c-1.8-3.2-3.3-3.7-6.7-2.1c-1.7,0.8-3.2,1.9-4.9,2.5c-1.8,0.7-5.1-1.1-5.3-2.8c-0.2-2.5-0.3-5.1,0-7.6
			c0.2-2,8.2-7.2,9.4-6c2.6,2.6,3.8,0.7,5.4-0.9c0.6-0.6,1.2-1.2,2.3-2.3c-1.5-0.7-3-1.5-4.5-2.2c4-1.4,6.4-2.7,8.5-5.1
			c1.5-1.6,3.9-2.7,6.1-3.5c2.1-0.8,1.5-5.3,5.2-3.5c0.3,0.1,1.3-0.5,1.3-0.8c-0.8-5.9,3.6-4,6.5-4.3c0.8-0.1,1.9,0.3,2.5-0.1
			c1.4-0.9,2.4-2.6,3.8-3.1c1.1-0.4,2.8,1,4,0.7c2.5-0.5,4.9-4,7.2-2.4c2.7,1.8,4.3-0.4,6.4-0.3c2.2,0.1,4.5,0.6,4.8,2.4
			c0.7,3.2,2.6,3,4.8,2.8c10.2-0.7,19.5,2.6,28.5,6.8c0.5,0.3,1.1,1.3,1,1.9c-0.1,0.5-0.9,1.2-1.5,1.4c-5.5,1.8-9.2,1.4-17.5-1.3
			c-0.8-0.3-1.9,0.3-2.9,0.4c0.2,0.8,0.2,1.7,0.6,2.3c2.1,3.1,6.7,8,8.3,8.2c2.3,0.3,5.4,2.5,6.4-1.9c0-0.2,1.3-0.3,1.6-0.1
			c1.8,1.7,3,0.5,4.1-0.8c3.4-3.8,3.5-3.8,9.9-4c0.8,0,1.9-0.8,2.3-1.5c0.5-0.9,0.7-2.1,0.6-3.1c-0.4-4.2,2-3.7,5.4-2.8
			c-1.4,0.9-2.4,1.6-3.4,2.3c1.1,0.8,2.1,1.8,3.3,2.2c2.8,1,5.8-0.5,7.5-2c4.2-3.8,10-1.8,14.3-4.7c0.3-0.2,1.3,0.8,2,1
			c3.2,0.9,6.2,1.4,9.3-0.9c0.9-0.7,3.2-3,5.4-0.3c0.6,0.7,3.7,0.6,4.7-0.3c6.6-5.5,13.1-1.9,19.6-0.1c2,0.5,4.2,0.3,7.5,0.6
			c-1.6-2.3-2.3-3.7-3.3-4.8c-0.9-1-2.1-1.8-3.4-2.8c1.8-3.9,4.8-6,7.4-8.5c2.1-2.1,6.6-0.8,6.6,1.9c-0.1,3.7,1.5,6.9,1.7,10.3
			c0.2,2.8-1,5.7-2,8.4c-0.4,1-1.4,3-3.6,0.9c-1.1-1-3.6-0.4-6.3-0.5c0.7,0.4,6.7,4,6.7,4c2.7,1.7,4.2-0.8,5.8-2
			c2.3-1.6,4-4,6.1-5.9c2.2-2,5-2,6.2,0.8c1.6,3.9,4.1,3.4,7.1,2.9c-4.5-6-4.4-6.2-11.2-8.9c-2.6-1-3.3-3-4.6-4.8
			c-1.1-1.5,0-2.4,0.8-3.5c1.6-2.2,2.1,0.1,3,0.6c2.1,1.1,4.1,2.4,6.3,3.2c1.1,0.4,3.1,0.6,2.8-1.6c-0.1-0.6-1.4-1.1-2.1-1.7
			c-0.4-0.3-0.6-0.7-1.7-1.9c4.4,1,8-1.3,11.7,1.7c1.4,1.1,3.6,1.5,4,3.4c0.7,3.3,3.2,2.1,4.4,1.6c1.6-0.7,0.2-2.1-0.3-3.4
			c-1.3-3-2.6-5.5-6.5-4.8c-0.2,0-1-1.3-0.9-1.9c0.1-0.5,1-1.3,1.6-1.3c5.6-0.1,11.1-0.1,17.2-1.1c-1.5-0.7-3-1.5-5.5-2.7
			c6.2-2,10.6-2.6,15.1-3.2c8-1.1,15.9-1,23.9-1.8c3.4-0.3,6.8-1.1,10.3-1.4c3.2-0.3,0-2,0.2-2.3c1.5-1.8,2.6-4.3,5.4-4.4
			c1.2,0,4.2-0.7,1.4,2.2c0.5,0.4,0.9,0.9,1.4,1.1c1.7,0.6,3.4,1.4,5.2,1.7c2.2,0.3,4.5,0.1,6.8,0.1c3.1,0,6.2,0.1,9.3,0
			c1.8-0.1,2.5,0.6,2.4,2.4c-0.1,1.4,0.1,2.6-2,2.8c-6.2,0.4-11.4,3.7-16.9,6.2c-0.5,0.2-0.8,0.8-1.9,1.8c4.5,0.8,8.5,0.3,12.5,0.3
			c0.7,0,1.7-0.7,1.9-1.3c1.5-4.2,5.4,0.8,7.1-2c3,3.2,6.9,1.5,10.3,1.5c6.4,0,12.6,3.6,18.7,1.6c5.8-2,11.4-1,18.8-1.8
			c-1.6,1.4-2,1.8-2.4,2c-0.5,0.2-1.5,0.2-1.5,0.4c-0.1,1-0.3,2.5,0.2,2.8c3.2,1.8,5.4,5.2,9.6,5.5c1.6,0.1,2.8,1.7,4.5-0.4
			c0.8-1,2.9-1.3,4.4-1.4c5.6-0.2,11.3-0.1,16.9-0.1c1.4,0,3,0.1,2.7-2c-0.4-2.7,0.9-3.3,3.3-3.2c3.9,0.2,7.8,0,11.2,0
			c1.1,1.6-2.3,2.2,0.1,3.4c0.5,0.2,1.1,0.1,1.7,0c2.9-0.5,5.7-1.3,8.6-1.6c3-0.4,3.7,3.5,7,3.7c2.7,0.2,5.6,1.5,8.6,1.4
			c4.2-0.1,8.5,0,12.7,0c2.2,0,4.1-0.4,4.8,2.8c0.4,1.8,2.6,2.5,4.8,2.3c2.8-0.2,5.7,0.2,8.5-0.1c5.3-0.5,10.2,1.1,15,2.8
			c2.1,0.7,3.6,0.6,4-0.9c1.6-4.9,6.2-4.5,8.5-3.2c3.1,1.8,5.9,1.4,8.8,1.3c6.6-0.3,12.6,2.4,18.8,3.9c2.4,0.6,5.3,2.6,6.3,4.7
			c2,4.3,3.5,4.1,6.1,0.9c0.3-0.4,8.6,1.5,8.5,1.8c-0.3,0.9-0.8,2-1.5,2.3c-3.8,1.4-3.8,1.4-5.7,4.9c-4.8-1.7-8.7-5.7-14.5-5
			c-1.4,0.2-3.1-1.9-4.8-3c-0.3,0.4-1,0.9-1.5,1.6c-1.8,2.5-2.6,3.2-4.4,3.3c-1.4,0-2.9-0.2-4.2,0.1c-0.8,0.2-1.5,1-2.3,1.6
			c0.4,0.6,0.8,1.3,1.3,1.7c1.8,1.6,3.7,3.1,5.4,4.7c0.1,0.1-1,2-1.6,2c-9.2,0.2-12.1,0.8-21,5.2c-1.7,0.9-2.9,2.9-4.8,0.4
			c-8-1-15.9-1.2-21.8,5.7c-0.7,0.8-1.6,2.5-1.4,2.6c4.1,3.8-0.5,6-1.9,8c-2.5,3.5-5.5,6.9-8.8,9.8c-1.4,1.3-3.7,1.6-5.6,2.4
			c-1.6-2.7,0.6-6.1-2.4-8c1.4-4,1.7-9.1,6.2-10.7c6.8-2.5,11.4-8.7,18.5-10.6c0.9-0.2,2.1-1.4,2.3-2.4c0.3-1.2-0.3-2.6-0.5-3.9
			c-1,0.3-2.1,0.3-2.9,0.8c-1.1,0.8-2,2.7-3,2.8c-1.9,0.2-4.2,5.9-5.9-0.1c-3,0-6.7-1.1-8.9,0.2c-3.1,1.9-8.3,1.6-9.3,6.7
			c-0.1,0.5-1.2,1.2-1.8,1.2c-2.7-0.1-5.7,0.1-8.1-0.8c-3-1.1-5.8-1.4-8.6,0c-2.9,1.4-5.7,1.4-8.6,0c-2.6-1.3-4.7-0.8-7.6,0.6
			c-8.1,4.1-16.2,8-23,14.6c3.6,3.4,7,5.7,12.2,3.4c2.2-1,6.3,4.6,4.6,6.5c-2.3,2.5-0.4,5.5-2.1,7.7c-2.5,3.2-5.1,6.4-7.8,9.5
			c-2.1,2.3-4.1,4.9-6.7,6.4c-2.1,1.2-4.1,5.2-7.6,1.7c-0.4-0.4-2,0-2.8,0.5c-1.8,1-3.8,2.1-5.3,3.6c-2.6,2.7-8.1,3.1-8,7.4
			c0.1,3,3,6,4.5,9c0.7,1.4,0.6,2.6-1.5,2.8c-1.5,0.2-2.9,0.7-4.6,1.1c-0.3-1.7-0.3-4-1-5.9c-0.6-1.7-3.2-2.3-2.8-4.8
			c0.6-3.3-3-2.3-4.4-3.8C1143.8,397.9,1140.9,398.7,1138.9,398.7z M935.2,396.8c0.2-0.4,0.3-0.8,0.5-1.2c-1.4-0.7-3-2.1-4.2-1.8
			c-1.4,0.4-2.8,2.8-2.5-0.8c0.1-2.3-0.9-2.6-2.8-3.1c-0.8-0.2-1.2-1.9-1.7-2.9c1.6-0.7,0.2-4.3,3.4-3.6c1.4,0.3,3.2,0,2.6-1.9
			c-0.5-1.3-3-3.1-3.2-3c-2.4,2-5.4,0.9-7.8,1.8c-3.8,1.4-5.3,5.8-3.4,9.7c1,2.1,2.6,4.1,4.2,5.9c1.2,1.3,2.4,2.3,0.2,3.6
			c1.5,2.2-4.1,3.3-1,5.8c1.7,1.3,3.4,2.7,5.3,3.5c1.5,0.6,3.3,0.1,5,0.1c2.7,0,3.8-1.6,4.2-4c0.5-2.9-0.9-4.7-2.8-6.5
			c-0.2-0.2,0-0.8,0.1-1.2c0.5-0.1,1.1-0.1,1.6-0.2C933.6,396.9,934.4,396.9,935.2,396.8z M865.4,332.6c-0.3,0-0.6-0.1-0.8,0
			c-0.6,0.3-1.6,0.6-1.7,1.1c-0.2,0.6,0.3,1.5,0.7,2.1c1.4,2,3.4,2.5,5.6,1.3c0.8-0.4,2-1.9,1.8-2.2
			C869.8,332.9,867.8,332.2,865.4,332.6z M947.5,386c3.5,3,5.8,2.9,6.7-0.5c0.3-1.1-0.5-2.5-0.8-3.8c-1,0.4-2,0.7-2.8,1.3
			C949.4,383.9,948.5,385,947.5,386z"/>
		<path fill="#ECC01C" d="M425.7,427.5c-0.7-0.4-1.6-0.6-2-1.2c-1.5-2.4-2.5-5.2-4.4-7.1c-1.8-1.8-4.4-2.8-6.8-3.9
			c-3.8-1.8-5.6-5.5-8.5-8c-5.1-4.5-6-9.6-5.5-15.6c0.2-3.4,0.2-6.8,0-10.1c-0.2-2.8,1-3.2,3.4-3.1c2.1,0.1,2.3-1.7,1.3-2.7
			c-3-3.2-5.6-7.5-10-8.2c-4.2-0.6-5.1-4-7.5-6.1c-0.6-0.6-3.7-3.1-4.4-3.2c-2.1-0.5-0.3-1.4-0.4-2c-0.6-3.7-2.4-7.1-6.3-8
			c-1.7-0.4-3.3-0.5-4.2-2c-3-5.2-8.6-5.4-13.4-6.4c-6.5-1.3-12.7-4.2-19.7-3.8c-2.3,0.2-4.7-2.1-7.2-2.8c-2.8-0.8-5.9-1.5-6.9,2.8
			c-0.1,0.5-0.7,1.1-1.2,1.2c-1.5,0.2-3,0.2-4.6,0.3c0.9-0.6,2-1,2.6-1.8c0.4-0.4,0.4-1.8,0-2.2c-1.7-1.5-5-0.5-6.4,1.6
			c-3.1,4.6-7,8.3-12.1,10.7c-0.9,0.4-2.1,0.4-3.1,0.6c0.4-0.7,0.8-1.4,1.2-2c0.8-1.4,0.9-3.2-1-2.9c-7.4,0.9-13-4.3-19.8-5.5
			c-1.6-0.3-2.9-2.5-4.4-3.8c2.5-2.2,4-4.9,7.9-4.6c3.6,0.3,4.7-3,6.7-6.3c-3.5-0.1-6.2-0.2-8.9-0.3c-2,0-4,0.3-5.9-0.1
			c-1.1-0.2-1.9-1.7-2.8-2.6c1.1-0.8,2.1-2.1,3.3-2.3c1.8-0.2,3.6-0.4,5.5,0.9c1.3,0.9,3.7,0.7,5.5,0.4c0.9-0.1,2.2-1.4,2.2-2.3
			c0.1-0.7-1.4-2.3-2.1-2.3c-3.8,0.1-6.3-2.5-9.5-3.8c-0.7-0.3-1.2-1.4-1.7-2.1c0.6-0.4,1.2-1.2,1.8-1.2c2.6,0,4.5-0.8,6.7-2.3
			c3.1-2.2,7.1-3.2,10.8-4.5c2.2-0.8,4.6-1.2,6.9-1.7c1.5,3.6,4.6-2.4,6.7,1.2c1,1.8,4.6-0.5,6.8,1.7c1,1,3.8,0.6,5.7,0.4
			c7.5-1,14.8,1.3,22.1,2c3.1,0.3,6.3,1.1,9.5,1.6c2.9,0.4,5.5,2.1,8.6,1.6c1.7-0.3,2.5,0.2,2.6,2.2c0.1,0.9,1.2,1.9,2.1,2.4
			c0.9,0.5,0.9,2.8,3,1.3c2.2-1.5,0.5-2.5,0-3.8c-0.2-0.5,1-1.4,1.6-2.1c2,2.6,4.3,2,6.9,0.8c2.6-1.2,5.6-1.7,8-3.1
			c3-1.7,5.7-1.3,8.6-0.4c1,0.3,2.1,1.2,2.9,0.9c3-0.8,5.4-2.6,8.9-0.2c2.1,1.4,5.7,0.1,8.6,1.8c1.7,1,4.4,0.1,6.7,0.2
			c1.1,0,2.1,0.3,3.2,0.4c-0.3,0.8-1.1,2.1-0.9,2.3c0.9,0.9,2,2,3.2,2.2c1.9,0.4,3.9,0.2,5.9,0.1c4.8-0.4,9,0.3,11.4,5.9
			c1.2-2.1,1.8-3.5,2.8-4.7c1.4-1.7,2.8-3.7,4.7-4.4c1.3-0.5,3.4,0.9,5.1,1.5c7.3,2.3,7.7,2.2,18.1,0.1c3-0.6,6.2-0.2,9.3-0.1
			c1.8,0.1,3.2-0.2,4.4-1.8c1.6-2.3,1-4.6-2.1-4.9c-2.8-0.3-2.2-1.9-2.2-3.5c0-2.3,1.8-1.9,3-1.7c2.1,0.3,4.1,0.9,6.1,1.7
			c2,0.8,0.1,1.4-0.2,2.2c-0.6,1.4-0.8,2.7,1.4,2.9c0.8,0,1.8-0.2,2.5,0.1c1.5,0.5,0.1,3.9,2.7,3.2c1.4-0.4,2.5-2,3.8-3
			c0.4-0.3,1-0.2,1.7-0.3c0.8,1.2,1.8,2.5,2.3,3.9c0.8,2.1,1.6,4.9,3.8,4.4c2-0.5,3.6-3,5-4.9c0.6-0.7,0.2-2.8,0.7-3
			c1.5-0.5,3.3-0.5,4.9-0.3c1.4,0.1,4.9,6.6,4.3,7.8c-0.5,0.9-1.5,2-2.4,2.2c-3.1,0.8-6.3,1.1-9.4,1.8c-0.5,0.1-0.9,1.1-1.4,1.6
			c-2.8,0-5.7-0.1-8.5,0.1c-0.6,0-1.1,0.8-1.7,1.3c0.6,0.7,1.1,1.8,1.9,2c1.6,0.3,3.2,0.1,4.9,1.3c-1.5,0.2-3,0.3-4.4,0.7
			c-2.5,0.7-5.5,1-7.4,2.5c-3.9,3.2-7.4,7-10.8,10.7c-2.4,2.6-1.3,6,2.4,6.7c2.2,0.4,3.1,1,3.8,3.1c0.3,1,2,1.7,3.2,2.2
			c3.7,1.4,7.9,1.9,11,4c4.3,3.1,8.7,2.7,13.5,2.8c0.2,0.7,0.4,1.5,0.6,2.3c0.4,2.1,0,4.7,1.2,6.2c1.5,2.1,4,3.6,6.4,4.8
			c2.6,1.3,6.2-0.7,5.9-3.6c-0.6-5.1,2.4-8.7,4.2-12.7c0.8-1.8,0.8-2.5,0-4.2c-1.3-2.8-4.3-5.9-0.7-9.4c1.3-1.2-2-1.7-0.8-4
			c2.7-4.9,4.7-6.3,10.5-4.4c3.7,1.2,7.2,3,10.8,4.6c3.2,1.4,1.2,2.8-0.1,4.2c0.2,0.2,0.3,0.4,0.5,0.6c1.8,1.8,3.6,3.6,5.4,5.4
			c2.5-3.1,6.9-0.6,9.6-3.3c0.9-0.9,2.2-1.4,3.8-2.3c3.2,8.5,8.6,14.5,18.7,16.2c-3.2,1.3-5.4,2.2-9.3,3.8c5.5,1.5,9.3,0.8,12.9,0.9
			c1.8,0.1,2.4,0.7,2.4,2.5c-0.1,1.5-0.2,2.3-2.1,2.8c-7.6,2-15.2,3.9-23.2,3.3c-6.6-0.5-11.2,4.2-16.5,7.1
			c-0.5,0.3-0.4,1.5-0.6,2.2c1,0.2,2.1,0.7,2.9,0.4c2.2-0.8,4.7-1.5,6.3-3c2.5-2.4,5-1.3,7.7-0.3c-1.2,0.1-2.4,0.2-3.6,0.5
			c-2,0.5-2,1.9-0.9,3c1.2,1.2,2.9,2,4.7,3.3c-4.6,1-8.3,3.8-13.1,4c-3.1,0.1-4.1,1.7-6.2,7.2c-0.2,0.5-0.9,1.1-1.3,1.2
			c-4.1,0.3-6.8,2.8-9.7,5.4c-1.1,1-2,5-4.7,1.5c-0.9,1.5-3.9,2.2-2,4.7c2.4,3,1.1,5.1-1.2,7c-3.1,2.6-6.3,5.2-9.5,7.8
			c-3.2,2.7-4.8,5.6-2.1,9.9c1.5,2.5,1.6,5.9,1.1,9.6c-1.8-2.4-4.1-4.7-5.2-7.4c-1.9-4.9-5.4-6.3-10.1-6.3c-2,0-4-0.1-5.9,0
			c-1,0.1-2.4,0.2-3,0.8c-1.1,1.1-1.5,3.6-2.5,3.8c-1.5,0.4-3.3-1-5.1-1.2c-1.7-0.2-4.2,0.7-4.9-0.2c-2.5-2.8-4.4,0.2-6.3,0.4
			c-2.7,0.2-5.2,2.2-7.8,3.5c-0.3,0.2-0.5,0.9-0.5,1.4c-0.2,2.7,0.8,5.6-1.7,7.8c2.9,2.8,0.2,7.6,3.7,10.4c3.2,2.6,5.2,6.3,10.5,5.7
			c4.3-0.5,8.8,0.6,10.6-5.2c0.3-1.1,2.5-1.9,4-2.4c1.4-0.5,3.5-1.3,4.5-0.6c2.1,1.5-0.5,2.6-0.9,4c-0.9,3.3-1.4,6.7-2.2,10.9
			c3.3,0,6.1-0.1,8.8,0c3.7,0.1,4.9,1.3,5.2,4.8c0,0.6,0,1.1,0,1.7c0.1,6.7,0.2,6.7,5.1,10.5c-4.6,1.7-6.4-3.5-10.1-4.2
			c-0.5-0.1-0.8-0.8-1.2-1.2c-2-2-3.9-4.1-6-5.9c-1.9-1.7-4.6,0.3-7-1.7c-2.1-1.7-5.2-2.2-7.9-3.1c-2.7-0.9-5.6-2.6-8.2-2.4
			c-6.8,0.6-12.4-2.8-18.6-4.2c-1.5-0.3-3.2-0.5-4.5-1.2c-1.9-1-3.6-2.3-5.3-3.5c-1.6-1.1-2.5-2.4-0.9-4.2c0,0-0.8-0.7-1.1-1.1
			c-6-6.5-12-13-17.9-19.6c-1.1-1.2-1.6-2.8-2.7-3.9c-1.2-1.2-3.1-2.9-4.3-2.6C426.4,423.2,425.1,425.2,425.7,427.5z M529,383.8
			c-6.3-2.2-13.2-2.5-17.8-8.5c-0.9-1.2-4.3-2.3-4.9-1.7c-2.7,2.6-7.7,1.9-9.3,6.4c5.8,0.7,11.3-0.3,17.2,0.7
			c-2.7,2.1-6.6,1.6-7.1,5c-0.4,2.8-1.1,6.2,2.8,8.1c0.7-2.2,1.4-4.4,2.2-6.7c1.1-3.3,5.1-5.1,6-3c1.5,3.4,5.3,3.4,6.5,6.3
			c1.4-2.1,2.8-4.1,6.1-11c-0.8,1.2-1.4,1.8-1.6,2.6c-0.1,0.4,0.4,1.4,0.7,1.5c1.4,0.3,2.8,0.1,2.5-1.9
			C532.3,381,531.6,380.4,529,383.8z M542,387.2c-5.1-0.8-7.6,1.6-10.6,3c-6.4,2.8-6.5,2.5-9.3,5.8C529,392.9,535.4,391.6,542,387.2
			z M542.6,377.5c-0.7-0.3-1.3-0.8-1.7-0.8c-1.1,0.2-2.1,0.7-3.1,1c0.8,0.8,1.5,2.1,2.3,2.1C540.8,379.9,541.6,378.6,542.6,377.5z
			 M505.7,370.7c-0.5-1.3-0.7-1.8-0.9-2.2c-0.4,0.5-0.9,0.9-1.1,1.5c-0.1,0.4,0.3,0.9,0.5,1.4C504.8,371.1,505.4,370.8,505.7,370.7z
			"/>
		<path fill="#ECC01C" d="M620.4,570.8c1.6,7.4-2.5,12.7-7.6,17.7c-1.4,1.4-2.6,3.2-4.2,4.1c-3.2,1.8-6.4,4.4-10.3,1.6
			c-0.6-0.4-1.5-0.7-2.2-0.6c-0.9,0.2-1.9,0.7-2.5,1.3c-0.2,0.2,0.4,1.9,0.9,1.9c3.4,0.6,3,3.8,4.8,6c-4.7,1.1-8.5,3.2-13,2.7
			c-1.3-0.1-3.8,1.1-4,2.1c-0.6,3.5-3.8,3.7-5.8,4.4c-2.4,0.8-4.8,0.4-2.3,3.8c0.2,0.3,0,1.4-0.4,1.7c-1.5,1.4-2.6,2.8-2.3,5
			c0.1,0.4-0.8,1.2-1.5,1.5c-3.8,1.8-4.5,3.4-2.7,6.8c0.5,1,1.6,1.6,2.4,2.4c-4.5,5.7-10,10.5-13.5,17c-0.9,1.7-1.3,0.3-1.7-0.8
			c-0.3-0.7-1.4-1.2-2.2-1.6c-1.9-1-3.9-1.9-5.9-2.8c2.4-1.6,1.6-4.2,1.3-6.2c-0.4-3,2.2-2.5,4-4.2c-2-1.5-3.9-2.9-6-4.4
			c5.9-4.1,4.2-9.5,3.2-14.1c-0.5-2.2-1.4-3.8,0-5.8c0.3-0.4,0.6-1,0.6-1.4c-0.5-5.4,0.6-10.1,4.7-14.2c1.5-1.5,1.8-4.4,2.1-6.7
			c0.7-7.9,1.2-15.9,1.8-23.9c0.2-2.4-0.5-4.7,1.5-7.1c1.4-1.7-0.1-4.3-2.2-5.6c-4.3-2.6-8.6-5.2-12.9-7.8l-4.1-4.1
			c-3.8-7.2-7.3-14.5-11.5-21.5c-1.7-2.8-0.4-2.2,1.3-2.6c0.4-0.1,1-1.8,0.7-2.1c-3.7-4.3-1.4-7.5,1.7-10.7c1.5-1.5,2.4-3.6,3.8-5.2
			c3.7-4,4-5.8,1.3-10.8c-0.9-1.6-2.1-2.9-4-5.7c2.3,1,3.3,1.6,4.4,1.8c1.9,0.4,4.2,2.2,4.9-1.8c0.2-1.1,2.4-1.9,3.7-2.7
			c1.8-1.1,3.7-2.1,5.8-3.3c0.3,1.4,0.3,3,0.9,4.4c1,2.3,2.8,2.4,4.1,0.3c0.7-1.1,1.1-2.4,1.8-3.5c0.8-1.2,1.9-2,3.5-0.9
			c4.8,3.2,10.3,3.3,15.7,2.9c3.1-0.2,5.2,0.9,7.3,3c2.6,2.7,5.7,5.1,8.9,7.1c1.7,1.1,4,1.6,6,1.7c4.1,0.2,7.7,1.7,11.3,3.5
			c0.7,0.4,1.8,0.5,2.1,1c1.2,2,2.3,4.2,2.9,6.4c0.2,0.7-1.4,2-2.3,2.9c-1.2,1.2-2.5,2.3-3.5,3.6c-0.4,0.5-0.3,1.5-0.4,2.3
			c1,0.1,2.4,0.6,2.8,0.1c1.3-1.3,1.6-1,2.8,0.2c3,2.9,3.6,2.7,6.9,0.4c1.1-0.7,2.6-1,3.4-1.9c1.6-1.7,2.6-1.9,4.8-0.3
			c5.8,4,12.5,6.3,19.7,5.4c3.8-0.5,4.5,3.7,7.8,3.9c1.4,0.1,3.7,1.8,3.9,3.1c0.5,2.9,1,6.2-2.2,8.3c-1.4,0.9-2.3,2.5-3.6,3.5
			c-4.7,3.5-6.7,7.8-5.9,13.7c0.7,5.4-2.5,9.6-5.1,13.9c-0.8,1.4-3.2,2.9-4.5,2.6c-6.5-1-10.9,3.9-16.5,5.3
			C623.3,568.6,622.1,569.8,620.4,570.8z"/>
		<path fill="#ECC01C" d="M574.8,259.8c0-2.3,1.8-1.6,3-1.7c4.1-0.2,8.8,1,10.8-4.4c0-0.1,1.1,0.3,1.7,0.4c1.9,0.4,4.3,2.3,4.9-1.6
			c0.1-0.5,1.7-1,2.6-1.1c3.7-0.8,7.7,1.2,11.3-1.3c1.9-1.3,2.1,4.5,4.7,1.8c1.7-1.8,3.4-2.5,5.9-2.4c4.8,0.2,9.6,0.1,14.4,0
			c0.6,0,1.6-1.4,1.6-2.1c0-2.8,2.2-5.3,4.6-4.2c4,1.8,7.4,1.1,11.6,0c5-1.3,10.5-0.3,16,0.6c-1,0.4-1.9,0.8-3,1.3
			c0.2,0.4,0.5,1.1,0.7,1.1c5.6,0.1,11.3,0,16.9,0c1.1,0,2.5,0.4,3.3-0.1c3.3-2.1,5.9-3.6,8.3,1.3c0.5,1,4,0.6,6.1,2
			c-3.3,0.1-6.5,0.1-9.8,0.2c-2.6,0-18.4,3.8-20.7,5.1c-0.7,0.4-1.2,1.4-1.7,2.1c0.9,0.4,1.9,1.3,2.6,1.1c5.1-1.3,10.5-2.1,15.3-3.8
			c5.6-2,11-0.3,16.4-1.2c3.3,3.1,7.4,1.4,11.1,1.6c3.5,0.2,6.9,0.4,10.4-1.4c2.2-1.1,5.4-0.2,8.3,0.3c-3.4,1.3-6.7,1.8-9.6,4.3
			c-1.4,1.3-4.9,0-7.4,0.3c-1.7,0.2-3.3,1.2-6.7,2.5c3.4,0.6,5,0.9,6.6,1.2c-0.2,0.5-0.2,1-0.4,1.2c-1.2,1.2-2.3,2.5-3.6,3.5
			c-3.5,2.6-3.3,3.6,1.3,6.1c-0.9,0.3-1.6,0.6-2.4,0.7c-1.5,0.3-4,0.1-4.5,1c-1.2,2.4,1.6,2,2.7,2.8c0.9,0.6-3,3.4,1.3,3.1
			c1.3-0.1,2.6,1.5,4.6,2.7c-2.6,0.3-4.9,0.6-7.4,0.9c0.9,1,1.4,1.5,2,2.1c-0.7,0.3-1.7,1-2.2,0.7c-1.9-0.9-3.5-2.6-5.5-3.1
			c-1.3-0.3-4.2-1.7-4.3,1.9c0,0.5-1.6,1.1-2.5,1.2c-1.9,0.2-3.8,0.1-5.9,0.1c1.2,2.8,4.5,3.7,3.5,7.9c0-0.1,0-0.6,0-1.2
			c-1,0.7-2,1.5-3,2.2c0.4,0.4,0.9,1.2,1.2,1.1c0.8-0.2,1.5-0.8,1.9-2.1c2.7-1.2,5.4-1.3,8.1-1.1c0.7,0.1,1.4,1.1,2.1,1.6
			c-4.9-0.6-8.7,0.6-10.6,6.4c3.3,0.3,6.1,0.5,9,0.7c-6.8,1.3-13.3,4.3-20.2,3c-5.1-1-8.2,4.2-13,3.6c-0.2,0-0.3,1.5-0.8,2.1
			c-2,2.7-4.1,4.5-8.1,4.7c-5.6,0.3-10.9,2.7-13.8,8.2c-1.5,2.7-4.5,4.7-3.6,8.8c0.4,1.8-5.5,3.6-6.8,2c-1.7-2-3.7-2-5.9-2.2
			c-4.7-0.5-7.4-4.2-10.5-7.3c-0.5-0.5-0.5-1.6-0.3-2.4c1.1-4.6-3-3.3-6.2-4.9c1.4-0.8,2.5-1.2,3.3-2c2-2,1.4-2.2,2.8-5.9
			c0.8-2.1-2.9-3.1-0.2-5.6c1.5-1.4-1.3-3.4-3.5-4.1c-2.1-0.7-0.2-1.4,0-2.1c0.3-1.3,0.4-2.7,0.2-4c-0.3-1.5-2.7-1.8-4.1-0.5
			c-0.6,0.5-1.1,1-1.7,1.5c-1-4.5-1-4.5-4.2-7.8c-3-3-5.5-7.1-9.1-8.7c-3.6-1.5-8.3-0.4-12.5-0.5c-5.9,0-11.8,0-17.8,0
			c-0.2,0-0.4-0.3-0.9-0.6c1-2.1,2.5-3.1,4.9-2.9c0.5,0,1.1-0.8,1.6-1.3c-0.6-0.7-1.2-1.9-1.9-1.9c-3.9-0.2-7.7-0.1-11.6-0.6
			c4.3-1.7,8.4-3.4,13.1-2.9c3.1,0.3,6-0.8,7.8-3.3c0.8-1.1,0.7-3,0.6-4.5C577.8,260.2,575.8,260,574.8,259.8z"/>
		<path fill="#ECC01C" d="M1181.8,536.3c-1.5,1.5-2.5,2.2-3,3.1c-1.9,3.4-1.1,5.6,2.4,7.4c2.3,1.2,4.6,2.5,7,3.6
			c3.3,1.5,5.2,1.1,6.6-2.2c1.4-3.3,4.1-6.3,3.6-10.4c-0.1-1,1.3-2.3,2.3-4c3.3,6.4,6.3,12.3,9.4,18.2c0.7,1.4,1.3,3.4,2.4,4
			c6.4,2.9,9.4,9.9,15.8,12.8c1.1,0.5,1.9,2.7,2,4.1c0.3,5.2-0.7,10.1-3.2,14.7c-1.6,3-2.5,6.4-4.3,9.2c-1.6,2.3-1,6.2-4.4,6.8
			c-2.8,0.5-4.9,1.9-7.2,3.2c-0.6,0.3-1.8,0.4-2.2,0c-2.6-2.7-5.9-1.3-8.8-1.2c-3.5,0.1-5.6-1.3-8-3.4c-2.5-2.2-3.4-6.1-7-7.2
			c0.2-0.6,0.6-1.2,0.6-1.8c0-1-0.1-1.9-0.2-2.9c-0.8,0.1-1.7,0-2.3,0.4c-1.5,1.3-2.8,2.7-4.6,4.6c-3.3-3.2-6.4-7.2-11.8-6.8
			c-3.1-2.9-6.3-2.2-9.8-0.5c-1.4,0.7-3.2,0.5-4.9,0.5c-2.2,0-4.1,0.5-6.1,1.6c-3.5,1.7-7.4,3.1-11.2,3.3c-2.9,0.2-5.5,1.1-7.4,2.6
			c-3.1,2.5-5-0.1-7.4-0.7c-2.6-0.7-1.4-2.7-1.4-4.1c0-5.8-3.1-10.6-5.5-15.5c-1.3-2.6-0.9-2.4,1.3-2.6c0.2,0,0.7-2,0.3-2.7
			c-0.9-1.6-3.9-2.8-2.7-4.6c1.4-2.1,3.1-4,6.5-4.6c5.1-0.9,9.8-3.6,14.8-5c4.1-1.2,4.9-5.9,8.7-7.1c-0.2-3.7,4.2-2.7,5.5-5.2
			c0.4-0.8,2.9-0.9,4.4-0.7c1.5,0.1,3,1.1,4.5,1.3c2.3,0.3,2.5,0.3,5.9-3.9c4.4-5.4,9.3-8.5,16.2-4.6
			C1179.2,536.3,1180.1,536.1,1181.8,536.3z"/>
		<path fill="#ECC01C" d="M510.5,259.8c3.5,0,4.8-0.2,6.2,0c6.1,0.9,15.2-0.4,20.9-3.5c0.7-0.4,1.1-1.4,1.7-2.2
			c-0.9-0.4-1.8-1.1-2.7-1.1c-1.3,0-2.7,0.2-3.9,0.7c-6.7,2.5-13.3,4.5-20.2,1c-0.7-0.3-1.7-0.2-2.5,0c-4.9,0.9-5.4,0.8-10.1-3
			c2.4-0.2,4.2-0.3,5.9-0.4c1.4-0.1,3.5,0.4,4-0.3c2.6-3.8,6.3-2.9,9.8-3.1c1.2-0.1,2.5-0.9,3.6-1.6c3.2-2,6.5-3.5,10.4-3.5
			c7.6,0.1,15.2,0.1,22.9,0c4.2-0.1,8,0.2,11.7,2.5c1.3,0.8,3.1,0.8,4.7,0.9c3.3,0.1,6.7,0,10.1,0c-0.6,2.8-2.2,3.1-4.5,3.5
			c-4.6,0.9-9.1,2.5-13.5,4.1c-0.6,0.2-0.8,1.5-1.3,2.3c0.8,0.2,1.5,0.4,2.3,0.6c-9,4.5-9,4.4-17.3,4.8c-4,0.2-7.9,1.2-11.5,4.6
			c2.7,0.3,4.8,0.5,7,0.7c-0.1,0.5-0.1,1.2-0.3,1.3c-5.8,2-11.3,4.9-18,3.2c1.7,5.4,6.1,2.7,10.5,5.4c-8.5,0-15.2,0.3-21.9-0.2
			c-2.5-0.2-4.8-2.4-7-4.3c3.5-0.7,6.6,2.9,10.4,0c-3.3-2-6.4-4-9.6-5.6c-2.2-1.1-4,1-6,1.5c-3.4,0.9-6.9,2.3-10.3-1.1
			c1.8-0.3,3.3-0.6,5.4-1c-1.3-2.1-2.6-3.2-5.1-3c-2.5,0.2-5.1,0.4-6.8-2.9c2.1-0.2,5.6,0.1,5.9-0.7c2.4-6.8,6.2-1.8,8.8-0.9
			c3.1,1.2,6.6,1.9,8.9,5.2c3.9,5.5,10.1,4.6,15.9,4.4c0.4,0,1.1-1.2,1-1.8c0-0.5-0.9-1.3-1.5-1.4c-2.8-0.7-5.8-1-8.6-1.8
			C514.3,262.8,513.3,261.7,510.5,259.8z"/>
		<path fill="#ECC01C" d="M571.3,327.8c0.6,0.6,1.2,1.5,1.7,2.4c-1,0.1-2,0.6-2.8,0.4c-2.5-0.6-5-1.4-7.4-2.3
			c-2.4-0.9-4.5-2.8-7.3-2.4c-3.2-4.5-8.6-3.4-12.9-5.1c0.7-0.6,1.4-1.4,2.2-1.6c1.8-0.6,4.8,1.3,4.8-2.7c0-0.2,1.9-0.8,2.9-0.7
			c1.3,0.1,2.6,1,3.8,0.9c1.6-0.2,3.1-1,4.7-1.6c-1.2-0.9-2.4-2.7-3.5-2.6c-3.3,0.4-4.3-1.8-6-3.8c-2-2.4-4-4.6-8-5.1
			c-5.2-0.6-10.3-2.5-15.6-3c-5.6-0.5-11.3-0.3-16.9-0.1c-3.3,0.1-6-0.4-8-3.3c-1.6-2.3-1.3-4.6,1-6.4c3.5-2.6,6-2.9,8.6-0.9
			c0.4,0.3,0.8,1.3,0.6,1.7c-1.6,3.5-1.3,5.4,1.6,7c0.5,0.2,2.2-0.7,2.3-1.3c0.3-1.6,0-3.4,0.2-5c0.3-2.6,1.9-3.9,4.5-3.7
			c0.8,0.1,2.1,0.7,2.1,0.8c-1,4.2,2.6,5.2,5,5.8c2.4,0.6,5.1,0.5,7.9-1.1c2.2-1.3,5.9,0,8.9,0.1c-0.4,4.7,4.1,2.2,5.9,3.9
			c2.3,2.1,5.7,2.7,9.1,2.5c2-0.1,4,1,6.1,1.6c2.2,0.6,0.5,1.3,0,2.1c-1.7,2.6,1.2,4.5,2.1,4.4c4.1-0.2,7.2,1.6,10.5,3.5
			c1.3,0.7,3.3,0.1,5.1,0.1c0.6,1.9-1.2,2.3-1.9,3.2c-1.8,2.4-3.8,2.4-6.4,0.9c-2.2-1.2-4.5-3.3-7.4-2.4c-0.9,0.3-2.3,0.9-2.3,1.5
			c0,1.2,0.3,2.7,1.1,3.5c1.9,1.9,4.3,3.3,6.3,5.1c0.6,0.6,0.5,1.9,0.8,2.8C573.5,327.2,572.5,327.4,571.3,327.8
			c-2.6-1.3-4.4-5.4-8.9-2.4C565.8,326.4,568.5,327.2,571.3,327.8z"/>
		<path fill="#ECC01C" d="M1120.3,513.9c-3.5,0-6.3-0.1-9.1,0c-3.8,0.2-6.8-1.2-9.2-4c-1.4-1.6-2.4-3.5-3.6-5.2c1.5-1,3.1-1.8,4.4-3
			c4.6-4.6,11.1-5.9,16.1-9.8c1.2-0.9,2.9-1.6,4.3-1.6c1.1,0,2.2,1.2,3.4,1.9c-0.7,1-1.1,2.5-2,2.8c-1.2,0.5-3,0.2-2.5,2.2
			c0.2,0.6,1.7,0.8,2.4,1.4c1.6,1.4,3,2.1,0.6,4.9C1122.9,506.1,1119.4,508.8,1120.3,513.9z"/>
		<path fill="#ECC01C" d="M462.8,302.2c-1.4,0.5-3.3,1.8-4.2,1.3c-4.2-2.3-8.5-1.9-12.6-0.4c-3.5,1.3-7.3,1.1-10.9,2
			c-3.2,0.8-7.3-2.1-12-3.7c4.8-1.8,9-0.2,14.1-1.8c-2.8-1.2-4.3-2.3-6-2.4c-3.6-0.3-7.3,0.1-11-0.2c-1-0.1-1.9-1.7-2.9-2.5
			c0.8-0.8,1.5-2.1,2.4-2.3c1.9-0.3,3.9,0.1,5.2-1.8c0.2-0.3,1.2-0.2,1.6,0.1c1.4,0.8,0.2,4.4,3.5,3.2c1.5-0.6,2.9-1.4,4.4-1.5
			c3.8-0.1,7.9-1.1,10.6,3.1c0.1,0.2,1.9-0.3,2.6-0.9c0.7-0.7,0.8-2,1.5-2.7c2-2,2.6-2.5,4,1.2C454.7,296.3,457.7,300.4,462.8,302.2
			z"/>
		<path fill="#ECC01C" d="M919.8,537.6c2.5,7.1-1.6,12.9-2.8,19c-0.7,3.3-2.2,6.4-3.3,9.6c-1.1,3.1-6.6,5.1-9.5,3.5
			c-0.8-0.4-2.5-9.2-1.7-9.7c3.3-2,3-5.2,2.7-8.2c-0.3-2.7,0.7-3.6,3.1-4.6c3.1-1.3,6-3.3,8.7-5.3
			C918.1,541,918.6,539.3,919.8,537.6z"/>
		<path fill="#ECC01C" d="M1221.6,531c-5.2-0.4-7.6-2.4-10-4.5c-3.5-3.2-5.6-3.5-9.2-0.5c-2.6,2.1-5,2.1-7.5,0.6
			c-2.5-1.5-7.2-0.2-6.9-5.3c0.3-4.4-4.3-3.5-6.2-5.6c-0.6-0.7-2.5-0.1-5.6-0.1c2.8-1.4,4.2-1.7,4.9-2.5c2.1-2.5,3.8-1.8,6.8-1.1
			c8,1.9,15.7,4.1,22.8,8.5c0.8,0.5,2.6,0.8,2.6,1.3C1213.4,526.3,1217.7,527.6,1221.6,531z"/>
		<path fill="#ECC01C" d="M1198.3,399.6c-2,5.1-3.6,9.5-5.6,13.7c-0.3,0.7-2.5,0.5-3.9,0.6c-2.8,0.1-5.5-0.4-7.5,2.4
			c-1.4,2-2.9,1-4-0.5c-1.3-1.8-3.1-2.2-5.1-1.9c-0.2,0-0.5,1.3-0.2,1.5c0.6,0.6,1.5,0.8,2.3,1.2c-0.8,0.2-1.5,0.5-2.3,0.5
			c-3.2,0.2-4.4,2.7-5.9,5c-0.5,0.7-1.4,1.2-2.1,1.8c-0.4-0.6-1.2-1.2-1.2-1.8c0.3-1.9-0.5-3.2-1.9-4.3c-2.1-1.8-1.4-1.8,0.9-2.5
			c5.5-1.8,10.7-4.2,16.5-4.9c2-0.2,1.9-3.7,5-2.5c2.2,0.9,2.7-1.4,3.2-3.2c0.1-0.5,1.3-1.2,1.8-1.1c3.9,0.7,3.4-2,3.2-4.1
			c-0.2-2.3,0.9-3.3,2.9-2.6C1195.9,397.7,1197.3,399,1198.3,399.6z"/>
		<path fill="#ECC01C" d="M758.9,342.5c0.8,1.5,1.2,2.7,1.9,3.6c0.4,0.5,2.6-0.2,1.3,1.5c-1.6,2.2-1.5,2.7,1.3,3.9
			c2.5,1.1,4.2,4.1,6.2,6.4c0.9,1,1.3,2.4,2.3,3.2c3.3,2.9,3.4,3.4-0.7,4.6c-2.8,0.8-6,1.1-8.9,0.6c-1.4-0.2-1.6-3.6-4.2-3.6
			c0.7-1,1.7-1.9,2.1-3c0.5-1.2,3.5-1.2,1.5-3.6c-1.1-1.2-0.7-3.9-3.6-3.2c-1.9,0.4-2.8-1.2-2-2.4c1.2-2-3.4-2.8-0.6-4.8
			C756.9,344.8,757.9,343.5,758.9,342.5z"/>
		<path fill="#ECC01C" d="M1090.2,512.7c-2,1.9-3.3,3.4-4.9,4.5c-0.5,0.3-1.9-0.6-2.8-1.2c-2-1.3-4.1-2.5-5.8-4.2
			c-1.7-1.7-2.5-5-4.3-5.5c-3.2-1-3.1-4-5.1-5.6c-2-1.5-3.6-3.5-5.4-5.3c-0.3-0.3-0.5-0.8-0.7-1.2c0.8-0.2,1.5-0.6,2.3-0.6
			c0.8,0,1.7,0.1,2.3,0.6c4.2,3.5,8.3,7.1,12.4,10.7c2.8,2.5,4.8,6.1,9.3,6C1088.4,510.9,1089.3,512.1,1090.2,512.7z"/>
		<path fill="#ECC01C" d="M705.4,321.8c5.5-6.8,13.1-6.5,20.7-6c0.9,0.1,2,1.2,2.4,2.1c0.2,0.5-0.7,1.8-1.4,2.3
			c-3.7,2.8-8.5,2.2-12.6,3.9C712.3,324.9,710.1,323.9,705.4,321.8z"/>
		<path fill="#ECC01C" d="M424,287.1c-6,2.8-10.2,4.4-13.8,6.7c-2.6,1.7-5.1,1.6-7.8,1.5c-2.7-0.1-2.8-0.8-0.9-3.8
			c0.3-0.4,0.3-1,0.5-1.5c1.8-5,2.3-5.9,5.8-4.7C412.5,287,417.3,286.7,424,287.1z"/>
		<path fill="#ECC01C" d="M808.6,266.6c0.3-1.1,0.8-2.1,1-3.2c0.1-0.5-0.2-1.2-0.3-1.8c0.8,0.1,2.1,0.1,2.2,0.3c0.8,4.1,3,3.2,5.8,2
			c1.8-0.7,5-1.1,6-0.1c2.6,2.7,3.8-0.7,5.6-0.6c1.1,1.5,2.1,2.9,3.2,4.4c-3.6,1.8-6.9,3.9-8.4,8c-0.2,0.6-1.7,0.7-2.6,1.1
			c-0.3-1.2-3.5-1.3-1.4-3.6c0.5-0.5,0.8-1.8,0.6-2.2c-1.5-1.9,3-2.6,0.6-4.8c-2.5-2.3-4.2,0.4-5.1,1.1
			C812.9,269.8,810.9,267.5,808.6,266.6z"/>
		<path fill="#ECC01C" d="M1272.3,628.6c3.8-2.9,7.2-5.3,10.4-7.9c1.3-1.1,2.3-2.6,3.6-3.7c1.1-1,2.4-1.9,3.7-2.4
			c0.5-0.2,1.6,0.7,2.3,1.3c0.2,0.1-0.1,1.1-0.5,1.4c-0.3,0.3-1.3,0-1.5,0.3c-2,2.8-3.8,5.7-5.8,8.5c-0.8,1.1-1.7,2.1-2.5,3.1
			c-1.4,1.6-2.6,2.6-4.7,0.6C1276.4,628.8,1274.4,629,1272.3,628.6z"/>
		<path fill="#ECC01C" d="M1208.5,387.2c-3.4,5.3-9.4,3.9-13.7,6.3c-0.4,0.2-2-0.8-2.5-1.6c-1.7-2.6,1.1-1.2,1.7-1.7
			c1.4-1.3,2.9-2.5,2.5-4.8c-0.3-2,1.9-2.6,2.5-1.6C1201.5,387.2,1205.1,386.8,1208.5,387.2z"/>
		<path fill="#ECC01C" d="M519.2,446.7c7.2-1.7,13.4,0.6,19.6,3.2c1.4,0.6,3,0.8,4.4,1.4c0.5,0.2,1.1,1.2,1,1.8
			c-0.1,0.5-1,1.4-1.4,1.4c-1.8-0.2-4.3,0-5.3-1.1c-2.9-3.1-7.1-3.4-10.5-5.1c-1.2-0.6-3.4-0.5-4.4,0.2
			C519.8,450.6,520.3,446.9,519.2,446.7z"/>
		<path fill="#ECC01C" d="M1081.4,501.9c-3.6-5.3-8.6-7.1-9-12.8c-0.1-1.5-2.7-2.7-3.9-4.2c-0.5-0.7-0.5-1.8-0.2-2.9
			C1073.2,487.6,1081.3,490.8,1081.4,501.9z"/>
		<path fill="#ECC01C" d="M608.7,376.8c-0.2,0.2-0.7,1.2-1.4,1.5c-0.4,0.2-1.9-0.6-1.9-0.9c0.2-3.6-2.4-2.3-4-2.3
			c-0.9,0-1.8,1.5-2.6,1.5c-1.8,0-4.6-0.1-5-1.1c-0.8-2,1.2-3.2,3.1-3.9c0.4-0.2,3.2-0.9,3.5-0.8c2.8,1.2,5.7,2.3,8.4,3.6
			C608.9,374.4,608.7,375.4,608.7,376.8z"/>
		<path fill="#ECC01C" d="M1295.2,602.5c3.3,1.3,6.4,2.5,9.7,3.8c-1.8,2.5-5.6,3.2-6.6,6.6c-0.1,0.2-1.1,0.1-1.7,0.1
			c0.6-2.5-1.4-2.3-2.8-2.9c-0.4-0.2-0.2-1.8,0-2.7C1294.1,605.6,1294.7,603.9,1295.2,602.5z"/>
		<path fill="#ECC01C" d="M956,280.1c-0.3,3.5-3.5,1-5.2,2.4c-3.5,3-7.8,5.2-11.7,7.7c-0.9-0.7-1.8-1.5-2.7-2.2
			c1.3-1.5,2.8-3.2,4.4-4.9c0.5-0.5,1.1-1.2,1.7-1.3C946.9,281.2,951.4,280.7,956,280.1z"/>
		<path fill="#ECC01C" d="M511.4,316c3.2,2.8,5,5.1,8.6,5c2.5-0.1,5.1,2.2,8.6,3.9c-2,0.5-3.1,1.1-3.4,0.8c-2.8-2.4-5.3-2.4-7.7,0.6
			c-0.9,1.2-2,1.9-3.5,0.6c-1.2-1.1-2.2-1.8-0.5-3.8C514.2,322.4,512.5,319.5,511.4,316z"/>
		<path fill="#ECC01C" d="M474.3,295.4c-0.9-0.3-3.2-1-5.4-1.8c-0.2-0.1-0.4-0.8-0.3-1.1c0.3-1.2,3.1,0.6,2.4-1.8
			c-0.3-0.9-1.9-1.5,0.2-2.1c1.5-0.4,2.9-1.1,4.4-1.5c1.5-0.4,2.7-0.3,2.7,1.8c0,1,0.4,2.1,0.7,3.1c1.2,3.5,1.3,3.5-2.5,3.5
			C476.3,295.4,476,295.4,474.3,295.4z"/>
		<path fill="#ECC01C" d="M752.7,355.6c-0.1,0.8,0,1.6-0.3,1.9c-1.9,1.5-4,2.7-5.8,4.2c-1.3,1.1-2.8,2.6-3.9,0.5
			c-0.5-1,0.3-3.1,1.1-4.4c1.5-2.6,4.1-3.7,7.1-3.1C751.5,354.8,752.2,355.3,752.7,355.6z"/>
		<path fill="#ECC01C" d="M939.8,290.6c-5.1,4-0.1,5.3,0.8,7.5c-2.2,1.4-4.4,1.3-5.6-1c-1.4-2.7-4-1.1-5.9-2.3
			C931.2,290.6,934.7,289.6,939.8,290.6z"/>
		<path fill="#ECC01C" d="M1050.7,261.8c4.6,0.2,9.4-1.5,13.7,1.3c0.6,0.4,2-0.3,3.1-0.5c0.6-0.1,1.2-0.3,1.8-0.4
			c0.1,1.1,0.3,2.2,0.1,3.3c-0.1,0.5-1.3,1.2-1.8,1.1C1062,264.7,1055.9,264.9,1050.7,261.8z"/>
		<path fill="#ECC01C" d="M498.6,281.8c10.7,0,21.4,0,32.1,0c0,0.6,0,1.2-0.1,1.7C519.9,283.4,509.2,283.8,498.6,281.8z"/>
		<path fill="#ECC01C" d="M1200.4,373.5c-1.2-3.7,0.8-7-2-9.6c-0.6-0.5,0-2.6,0.4-3.9c0.5-1.8,1.2-3.5,2-6c1.4,3.4,0.5,6.3,0.8,9.1
			c0.2,1.6-0.2,3.9,0.7,4.7C1207,371.5,1201.9,371.7,1200.4,373.5z"/>
		<path fill="#ECC01C" d="M940.4,259.1c-3.8,0.2-7.6,1.9-11.3-0.7c-0.7-0.5-5.4-2.4-5.4,2.4c-0.5-0.1-1.4,0-1.6-0.3
			c-0.6-1.1-1-2.3-1.4-3.4C927.6,254.4,933.9,258.9,940.4,259.1z"/>
		<path fill="#ECC01C" d="M1109.9,525.8c-1.3,0-2.9,0.5-3.9-0.1c-4.5-2.7-9.7-0.7-14.3-2.3c-0.7-0.3-1.2-1.1-2.3-2.2
			c4.3,0.4,8.1,1.3,11.9,1.1C1104.8,522,1107.2,523.9,1109.9,525.8z"/>
		<path fill="#ECC01C" d="M496.8,287.2c-2,2.8-6.7,1.7-7.1,6c0,0.2-1,0.6-1.4,0.4c-0.6-0.3-1.5-0.8-1.5-1.4
			c-0.2-1.6-0.1-3.2-0.1-5.1C490.2,287.2,493.4,287.2,496.8,287.2z"/>
		<path fill="#ECC01C" d="M1136.4,468.2c-2.1,0.3-3.7-1.4-3.3-3.5c0.3-1.6,0.7-3.1,0.7-4.7c0-2.1,1.3-2.1,2.7-1.9
			c0.8,0.1,1.8,0.2,2.1,0.7c0.3,0.5,0.2,1.6-0.2,2.2c-1.5,2-5,3.4-1.3,6.4c0.1,0.1,0.1,0.6,0,0.8
			C1137.1,468.3,1136.7,468.2,1136.4,468.2z"/>
		<path fill="#ECC01C" d="M837.6,262.6c3.3-3.1,3.3-3.1,13-2.2C845.4,263.3,845.4,263.3,837.6,262.6z"/>
		<path fill="#ECC01C" d="M1135.6,512.2c-1.2,0.2-3.1-0.8-3.3,1.3c-0.3,2.4-0.2,4.8-1,7.2c-0.6-4.9-1-9.8-0.4-14.7
			c0-0.2,0.9-0.4,1.4-0.6c0.1,1.5-0.7,3.3,2.1,3.5C1136.3,509,1135.3,511,1135.6,512.2z"/>
		<path fill="#ECC01C" d="M1206.3,613.9c2.9,0,5.1-0.2,7.2,0.1c0.6,0.1,1.5,1.3,1.6,2.1c0.1,0.9-0.2,2.4-0.9,2.8
			c-1.6,1-4.9-0.6-6.1-2.7C1207.8,615.6,1207.3,615.1,1206.3,613.9z"/>
		<path fill="#ECC01C" d="M1074.4,268.3c1.9-4,4.9-3.6,7.6-3.3c1.6,0.2,3,1.3,4.8,2.2c-0.8,0.7-1,1.1-1.2,1.1
			C1081.9,268.3,1078.2,268.3,1074.4,268.3z"/>
		<path fill="#ECC01C" d="M1152.5,484.1c-2.5,2.1-3.6,3.6-5.1,4.3c-0.9,0.4-3.1,0.9-3.2-1.2c-0.1-1.3-1.2-3.6,1.6-3.7
			C1147.4,483.4,1149.2,483.8,1152.5,484.1z"/>
		<path fill="#ECC01C" d="M1197.9,280.6c-2.5,0.8-8.9,1.7-10.5,1.1c-0.5-0.2-1-1.3-0.9-1.9c0.1-0.5,1.1-1.4,1.5-1.3
			C1191.3,279.1,1194.6,279.9,1197.9,280.6z"/>
		<path fill="#ECC01C" d="M566,656.5c-1.8-0.4-3.3-0.4-4.4-1c-0.7-0.3-1-1.5-1.5-2.3c1.1-0.7,2.7-2.2,3.3-1.9c1.7,0.8,3,2.4,4.4,3.7
			C567.1,655.6,566.4,656.1,566,656.5z"/>
		<path fill="#ECC01C" d="M442.7,281.8c-2.4,3.5-5.9,1.2-8.8,1.5c-0.9,0.1-2-2.1-3.1-3.2C434.7,280.7,438.7,281.3,442.7,281.8z"/>
		<path fill="#ECC01C" d="M425.7,427.5c2.8,2.4,6.1,7.3,6.8,10.2C428.4,435.5,426.1,432.2,425.7,427.5z"/>
		<path fill="#ECC01C" d="M484.8,305.3c-4.8,0-8.1,0-12.7,0c2.6-1.5,3-4.5,6-2.4C479.7,303.9,481.8,304.2,484.8,305.3z"/>
		<path fill="#ECC01C" d="M1052.6,257.2c1.7-0.8,3.3-2.3,5-2.3c1.6,0,3.2,1.4,5.5,2.4C1059.4,258.7,1056.1,257.8,1052.6,257.2z"/>
		<path fill="#ECC01C" d="M835.2,263.2c-1.6,0-3.1-0.1-4.7,0c-1.4,0.1-2.1-0.3-1.6-1.6c0.3-0.7,1.4-1.8,1.9-1.7
			c1.7,0.3,3.3,1.1,4.9,1.7C835.6,262.1,835.4,262.7,835.2,263.2z"/>
		<path fill="#ECC01C" d="M1176.2,513.9c-2.2,0-4,0-5.9-0.1c0,0,0-1.1-0.1-1.6c2.1,0.1,3.4-0.2,1.1-2.3c-0.1-0.1,0.3-0.9,0.6-1
			c0.5-0.2,1.4-0.2,1.6,0C1174.5,510.3,1175.2,511.9,1176.2,513.9z"/>
		<path fill="#ECC01C" d="M1153.4,524.7c-2.8,4.7-5.9,5.1-8.9,5.9C1145.9,527.4,1148.9,526.7,1153.4,524.7z"/>
		<path fill="#ECC01C" d="M442.3,282.2c0.8-1.6,1.6-2.7,2-3.9c0.4-1.4,1.5-2.1,1.6-0.4c0.2,4.2,3.8,1.1,5.3,3.3
			C448.3,282.7,445.3,281.2,442.3,282.2z"/>
		<path fill="#ECC01C" d="M551.4,456.6c3.8,0,7.5,0,11.3,0C559,458.6,555.2,457.7,551.4,456.6z"/>
		<path fill="#ECC01C" d="M955.9,280.1c4-2.2,7.9-1.4,11.9-0.4c-2,0.1-4,0.3-6,0.4C959.8,280.2,957.8,280.1,955.9,280.1z"/>
		<path fill="#ECC01C" d="M421.9,278.4c2.6,0,4.3-0.1,5.9,0c1,0.1,2,0.5,3,0.8c-1.1,0.3-2.5,0.3-3.3,0.9
			C425.3,281.8,423.8,281.6,421.9,278.4z"/>
		<path fill="#ECC01C" d="M464.7,266.6c-2.5,0-4.9,0.1-7.3-0.1c-0.4,0-1.1-1.1-1.1-1.7c0-1.6,0.5-1.3,1.8-0.7
			c2.1,0.9,4.6,1.2,6.9,1.8C464.8,266.1,464.8,266.3,464.7,266.6z"/>
		<path fill="#ECC01C" d="M493.5,278.4c2.6-0.3,4.4,0.7,5.1,3.4c-0.8,0-1.6-0.1-2.4,0C493.2,282.3,493.4,280.3,493.5,278.4z"/>
		<path fill="#ECC01C" d="M475.5,281c-1.9,0.4-3.2,0.7-4.5,0.8c-0.2,0-0.7-1.1-0.6-1.3c0.8-1.2,1.6-2.7,3.4-1.9
			C474.4,278.7,474.6,279.6,475.5,281z"/>
		<path fill="#ECC01C" d="M1263.9,558.7c2.9-1.2,4.8-1.1,6.3,1c0.2,0.3,0.3,0.8,0.5,1.1c-0.5,0.2-1.1,0.6-1.4,0.5
			C1267.7,560.6,1266.1,559.8,1263.9,558.7z"/>
		<path fill="#ECC01C" d="M537.2,290c-2.6,0-5.3,0-9.9,0C531.9,288.1,534.6,288.8,537.2,290z"/>
		<path fill="#ECC01C" d="M1012.7,482.7c1,2.1,1.8,3.5,2.5,4.9c-0.7,0.3-1.6,1-2.1,0.8C1010.9,487.3,1011.7,485.4,1012.7,482.7z"/>
		<path fill="#ECC01C" d="M1226.4,517.3c-1.4,1.2-1.7,1.7-2.2,1.9c-1.1,0.5-2.2,0.8-3.3,1.3c-0.2-0.7-0.4-1.4-0.6-2.1
			c1.2-0.3,2.3-0.7,3.5-1C1224.2,517.2,1224.8,517.3,1226.4,517.3z"/>
		<path fill="#ECC01C" d="M909.3,256.4c2.4,0,3.7-0.3,4.8,0.1c0.6,0.2,0.8,1.6,1.2,2.5c-0.8,0.3-1.8,1-2.4,0.7
			C911.9,259.2,911.1,258.1,909.3,256.4z"/>
		<path fill="#ECC01C" d="M405.8,278.2c2.4-1.2,3.7-1.5,4.6-2.3c1.2-1,2.4-1.3,3.3,0c0.1,0.2-1.3,1.9-2.1,2.1
			C410.1,278.4,408.6,278.2,405.8,278.2z"/>
		<path fill="#ECC01C" d="M798.8,356.2c-0.1-3-0.3-4.5-0.2-5.9c0-0.3,1.3-0.5,2-0.7c0.2,0.5,0.6,1.1,0.4,1.5
			C800.7,352.3,800,353.5,798.8,356.2z"/>
		<path fill="#ECC01C" d="M1310.3,297.4c2.1,0,4.1,0,6.2,0c0,0.3,0,0.7,0.1,1c-2,0.1-4.1,0.3-6.1,0.4
			C1310.4,298.3,1310.4,297.8,1310.3,297.4z"/>
		<path fill="#ECC01C" d="M1199.9,287.8c-0.4,0.3-0.9,0.8-1.3,0.7c-1.4-0.2-3.5,1.1-3.7-1.7c-0.1-1.5,0.4-1.9,1.7-0.8
			c0.6,0.5,1.4,0.5,2.1,0.8C1199.1,287.1,1199.5,287.5,1199.9,287.8z"/>
		<path fill="#ECC01C" d="M1230.5,512c0.6,0.4,1.4,0.9,2.1,1.6c0.4,0.4,0.4,1.1,0.6,1.7c-0.5,0.1-1.2,0.4-1.5,0.2
			c-0.9-0.5-1.7-1.2-2.4-2c-0.2-0.2-0.1-0.8,0.1-1.1C1229.4,512.3,1229.8,512.3,1230.5,512z"/>
		<path fill="#ECC01C" d="M530.6,483.4c-1.8,0-3.6,0.1-5.4,0c-0.4,0-0.8-0.5-1.2-0.8c0.5-0.3,1.1-0.7,1.6-0.8c1.6-0.1,3.1,0,4.7,0
			C530.4,482.3,530.5,482.9,530.6,483.4z"/>
		<path fill="#ECC01C" d="M302.8,451c0.4,0.9,0.7,1.4,0.9,2c0.4,1,0.7,2.1,1.1,3.1c-0.5,0.1-1.4,0.3-1.5,0.2
			c-0.5-1.1-0.9-2.2-1.2-3.4C302,452.5,302.4,452,302.8,451z"/>
		<path fill="#ECC01C" d="M1158.4,514.4c-0.1-0.3-0.4-0.9-0.6-1.6c1-0.2,2-0.5,3.1-0.5c0.5,0,1,0.7,1.5,1
			C1161.4,513.6,1160.4,513.9,1158.4,514.4z"/>
		<path fill="#ECC01C" d="M538,320.8c1,0,2-0.1,3,0c0.6,0.1,1.1,0.5,1.6,0.8c-0.4,0.3-0.8,0.8-1.2,0.8c-1.2,0.1-2.5-0.1-3.8-0.1
			C537.7,321.8,537.8,321.3,538,320.8z"/>
		<path fill="#ECC01C" d="M1137.2,518.6c0-1-0.1-2,0-3c0.1-0.6,0.5-1.1,0.8-1.6c0.3,0.4,0.8,0.8,0.8,1.2c0.1,1.2-0.1,2.5-0.1,3.8
			C1138.3,518.8,1137.8,518.7,1137.2,518.6z"/>
		<path fill="#ECC01C" d="M264.8,327.1c-1.7,0-3.4,0-5.1,0c0-0.3,0-0.6,0-0.8c1.7,0,3.4,0,5.1,0
			C264.8,326.6,264.8,326.9,264.8,327.1z"/>
		<path fill="#ECC01C" d="M751.3,332.2c-0.5,0.6-1,1.2-1.5,1.9c-0.2-0.7-0.6-1.5-0.5-2.2c0.1-0.8,0.7-1.5,1.1-2.3
			C750.7,330.3,750.9,331,751.3,332.2z"/>
		<path fill="#ECC01C" d="M535,460.2c-0.1-0.3-0.4-0.9-0.6-1.6c1-0.2,2-0.5,3.1-0.5c0.5,0,1,0.7,1.5,1
			C538,459.4,536.9,459.6,535,460.2z"/>
		<path fill="#ECC01C" d="M1134.3,447.8c0-1.7,0-3.4,0-5.1c0.3,0,0.6,0,0.8,0c0,1.7,0,3.4,0,5.1
			C1134.8,447.8,1134.6,447.8,1134.3,447.8z"/>
		<path fill="#ECC01C" d="M434.2,439.4c1.1,1.1,2.3,2.3,3.4,3.4C434.8,443.3,433.7,442.1,434.2,439.4z"/>
		<path fill="#ECC01C" d="M312.4,345.3c-1,0.8-2,1.6-2.9,2.4c-0.2-0.4-0.6-0.9-0.6-1.3c-0.2-2,1.2-2,2.6-1.8
			C311.7,344.6,312,345,312.4,345.3z"/>
		<path fill="#ECC01C" d="M814.8,407.5c-1.1-0.4-1.8-0.7-2.6-0.9c0.8-0.4,1.5-0.9,2.3-1c0.7-0.1,1.5,0.3,2.2,0.5
			C816.1,406.6,815.4,407.1,814.8,407.5z"/>
		<path fill="#ECC01C" d="M840.8,405.5c0-1.1,0-2.3,0-3.4c0.5,0.2,1.1,0.3,1.4,0.6c0.6,0.7,1.1,1.5,1.7,2.3
			C842.8,405.1,841.8,405.3,840.8,405.5z"/>
		<path fill="#ECC01C" d="M800.2,399.5c-0.6,0.4-1.2,0.9-1.4,0.8c-0.8-0.4-1.5-1-2-1.7c-0.2-0.2,0.3-0.9,0.5-1.3
			C798.3,398,799.2,398.8,800.2,399.5z"/>
		<path fill="#ECC01C" d="M1200.9,377c0.8,0.8,1.6,1.5,2.4,2.3c-0.7,0.3-1.8,1-2,0.8c-0.6-0.6-1-1.6-1.3-2.4
			C1200,377.5,1200.6,377.1,1200.9,377z"/>
		<path fill="#ECC01C" d="M585,372.9c-1.7,0-3.4,0-5.1,0c0-0.3,0-0.6,0-0.8c1.7,0,3.4,0,5.1,0C585,372.3,585,372.6,585,372.9z"/>
		<path fill="#ECC01C" d="M937.9,254.4c1.1,0.4,1.8,0.7,2.6,0.9c-0.8,0.4-1.5,0.9-2.3,1c-0.7,0.1-1.5-0.3-2.2-0.5
			C936.6,255.3,937.3,254.8,937.9,254.4z"/>
		<path fill="#ECC01C" d="M1201.6,278.9c1.7,0,3.4,0,5.1,0c0,0.3,0,0.6,0,0.8c-1.7,0-3.4,0-5.1,0
			C1201.6,279.4,1201.6,279.1,1201.6,278.9z"/>
		<path fill="#ECC01C" d="M970.4,278.9c-0.1-0.3-0.4-0.9-0.6-1.6c1-0.2,2-0.5,3.1-0.5c0.5,0,1,0.7,1.5,1
			C973.3,278.1,972.3,278.4,970.4,278.9z"/>
		<path fill="#ECC01C" d="M628.4,246c-0.3-0.2-1-0.6-1-0.7c0.3-0.9,0.7-1.8,1.3-2.4c0.3-0.2,1.3,0.5,2,0.8
			C629.9,244.5,629.2,245.2,628.4,246z"/>
		<path fill="#ECC01C" d="M488.3,277.7c0.4-0.4,0.6-0.8,0.8-0.8c1.5,0.2,2.9,0.5,4.4,0.8c0.1,0,0,0.5,0,0.8c-1.3,0-2.7,0-4,0
			C489.2,278.4,489,278.2,488.3,277.7z"/>
		<path fill="#ECC01C" d="M705.6,296.6c-0.5,1.1-0.7,1.5-1,2c-0.9-0.8-1.8-1.6-2.8-2.4c0.3-0.3,0.6-0.8,0.8-0.7
			C703.6,295.7,704.6,296.2,705.6,296.6z"/>
		<path fill="#ECC01C" d="M570.1,259.8c1,0,2-0.1,3,0c0.6,0.1,1.1,0.5,1.6,0.8c-0.4,0.3-0.8,0.8-1.2,0.8c-1.2,0.1-2.5-0.1-3.8-0.1
			C569.9,260.8,570,260.3,570.1,259.8z"/>
		<path fill="#ECC01C" d="M952.1,300.1c0.6,0.5,1.2,1,1.9,1.5c-0.7,0.2-1.5,0.6-2.2,0.5c-0.8-0.1-1.5-0.7-2.3-1.1
			C950.2,300.8,950.9,300.5,952.1,300.1z"/>
		<path fill="#ECC01C" d="M838.2,272.1c-0.1-0.3-0.4-0.9-0.6-1.6c1-0.2,2-0.5,3.1-0.5c0.5,0,1,0.7,1.5,1
			C841.2,271.3,840.2,271.6,838.2,272.1z"/>
		<path fill="#ECC01C" d="M1249.3,523.4c-0.9,0.3-1.6,0.6-2.3,0.6c-0.4,0-0.9-0.5-1.3-0.8c0.7-0.3,1.4-0.7,2.1-0.8
			C1248.2,522.4,1248.6,523,1249.3,523.4z"/>
		<path fill="#ECC01C" d="M841.4,406.7c-1.5,0.2-2.4,0.3-3.4,0.3c-0.1,0-0.2-0.7-0.3-1.1c0.7-0.1,1.5-0.4,2.2-0.4
			C840.3,405.5,840.6,406,841.4,406.7z"/>
		<path fill="#ECC01C" d="M483.1,274.9c0.6,0.3,1.2,0.6,1.9,1c-0.4,0.3-0.9,0.8-1.3,0.8c-0.7-0.1-1.4-0.5-2.1-0.8
			C482,275.6,482.5,275.3,483.1,274.9z"/>
		<path fill="#ECC01C" d="M784.8,400.1c-0.9,0.1-1.7,0.3-2.4,0.3c-0.2,0-0.4-0.7-0.6-1.1c0.7-0.2,1.5-0.5,2.2-0.5
			C784.2,398.8,784.4,399.4,784.8,400.1z"/>
		<path fill="#ECC01C" d="M1255.8,527.1c-0.9,0.1-1.7,0.3-2.4,0.3c-0.2,0-0.4-0.7-0.6-1.1c0.7-0.2,1.5-0.5,2.2-0.5
			C1255.1,525.8,1255.4,526.5,1255.8,527.1z"/>
		<path fill="#ECC01C" d="M1133.1,529.5c-0.1-0.3-0.4-0.9-0.6-1.5c0.5-0.2,1-0.6,1.4-0.5c0.5,0.1,1,0.7,1.5,1.1
			C1134.8,528.8,1134.4,529,1133.1,529.5z"/>
		<path fill="#ECC01C" d="M800,392.3c-0.4,0.6-0.6,1.3-0.8,1.3c-0.7,0-1.5-0.3-2.2-0.5c0.2-0.4,0.4-1,0.6-1.1
			C798.4,391.9,799.1,392.2,800,392.3z"/>
		<path fill="#ECC01C" d="M578.2,385.2c-0.1,2.5-2.1,1.4-3.4,1.7C574.9,384.3,576.9,385.4,578.2,385.2z"/>
		<path fill="#ECC01C" d="M1218.1,385.1c-0.9-0.1-1.6-0.1-2.3-0.2c-0.1,0,0-1.1,0-1.1c0.7-0.1,1.5-0.1,2.2,0
			C1218.1,383.8,1218.1,384.5,1218.1,385.1z"/>
		<path fill="#ECC01C" d="M579.9,383.3c0.6,0.4,1.1,0.6,1.5,0.8c-0.8,0.3-1.6,0.7-2.5,0.9c-0.2,0-0.5-0.5-0.8-0.7
			C578.8,384,579.4,383.6,579.9,383.3z"/>
		<path fill="#ECC01C" d="M949.9,254.2c-1.5,0.2-2.4,0.3-3.4,0.3c-0.1,0-0.2-0.7-0.3-1.1c0.7-0.1,1.5-0.4,2.2-0.4
			C948.7,253,949,253.5,949.9,254.2z"/>
		<path fill="#ECC01C" d="M486.2,283.4c-0.9-0.1-1.6-0.1-2.3-0.2c-0.1,0,0-1.1,0-1.1c0.7-0.1,1.5-0.1,2.2,0
			C486.2,282.1,486.2,282.9,486.2,283.4z"/>
		<path fill="#ECC01C" d="M809.3,267.8c-1.5,0.2-2.4,0.3-3.4,0.3c-0.1,0-0.2-0.7-0.3-1.1c0.7-0.1,1.5-0.4,2.2-0.4
			C808.1,266.6,808.4,267,809.3,267.8z"/>
		<path fill="#ECC01C" d="M464.7,266.6c1.3,0.3,3.2-0.8,3.4,1.7C466.8,268,464.8,269.1,464.7,266.6z"/>
		<path fill="#ECC01C" d="M439.3,268.1c0.6,0.4,1.1,0.6,1.5,0.8c-0.8,0.3-1.6,0.7-2.5,0.9c-0.2,0-0.5-0.5-0.8-0.7
			C438.2,268.8,438.8,268.4,439.3,268.1z"/>
		<path fill="#ECC01C" d="M1176.6,487.7c-0.6,1.3-0.7,1.8-0.9,2.3c-0.4-0.5-0.9-0.9-1.1-1.5c-0.1-0.4,0.4-1.3,0.5-1.3
			C1175.7,487.2,1176.3,487.6,1176.6,487.7z"/>
		<path fill="#ECC01C" d="M856.9,266.9c-0.1-0.3-0.4-0.9-0.6-1.5c0.5-0.2,1-0.6,1.4-0.5c0.5,0.1,1,0.7,1.5,1.1
			C858.7,266.2,858.2,266.4,856.9,266.9z"/>
		<path fill="#ECC01C" d="M481.6,269.6c-0.9,0.1-1.7,0.3-2.4,0.3c-0.2,0-0.4-0.7-0.6-1.1c0.7-0.2,1.5-0.5,2.2-0.5
			C480.9,268.3,481.2,269,481.6,269.6z"/>
		<path fill="#ECC01C" d="M1140.6,469.9c-1.3-0.3-3.2,0.8-3.4-1.7C1138.5,468.4,1140.5,467.3,1140.6,469.9z"/>
		<path fill="#ECC01C" d="M620.6,505.3c0.6,0.4,1.1,0.6,1.5,0.8c-0.8,0.3-1.6,0.7-2.5,0.9c-0.2,0-0.5-0.5-0.8-0.7
			C619.5,506,620.1,505.6,620.6,505.3z"/>
		<path fill="#ECC01C" d="M1049.3,261.8c-0.7-0.5-1.2-0.9-1.7-1.3c0.7-0.2,1.4-0.6,2.1-0.6c0.4,0,0.8,0.5,1.2,0.8
			C1050.4,261.1,1049.9,261.4,1049.3,261.8z"/>
		<path fill="#ECC01C" d="M615.5,508.8c0.1-2.5,2.1-1.4,3.4-1.7C618.7,509.7,616.7,508.6,615.5,508.8z"/>
		<path fill="#ECC01C" d="M919.4,260.8c-1.5,0.3-2.3,0.8-2.9,0.6c-0.5-0.2-0.8-1-1.2-1.6c0.5,0,1.1-0.1,1.6,0
			C917.5,260,918.1,260.3,919.4,260.8z"/>
		<path fill="#ECC01C" d="M1099.2,456.7c-0.1-0.3-0.4-0.9-0.6-1.5c0.5-0.2,1-0.6,1.4-0.5c0.5,0.1,1,0.7,1.5,1.1
			C1100.9,455.9,1100.5,456.1,1099.2,456.7z"/>
		<path fill="#ECC01C" d="M871.2,260.1c-0.4,0.6-0.6,1.3-0.8,1.3c-0.7,0-1.5-0.3-2.2-0.5c0.2-0.4,0.4-1,0.6-1.1
			C869.5,259.8,870.3,260,871.2,260.1z"/>
		<path fill="#ECC01C" d="M296.7,451.4c-0.6-0.4-1.1-0.7-1.5-1c0.7-0.3,1.4-0.7,2.1-0.8c0.4,0,0.9,0.5,1.3,0.8
			C298,450.7,297.3,451.1,296.7,451.4z"/>
		<path fill="#ECC01C" d="M420.6,274.7c-0.9,0.1-1.7,0.3-2.4,0.3c-0.2,0-0.4-0.7-0.6-1.1c0.7-0.2,1.5-0.5,2.2-0.5
			C419.9,273.4,420.2,274.1,420.6,274.7z"/>
		<path fill="#ECC01C" d="M948.2,259.1c-1.5,0.3-2.3,0.8-2.9,0.6c-0.5-0.2-0.8-1-1.2-1.6c0.5,0,1.1-0.1,1.6,0
			C946.3,258.3,946.9,258.6,948.2,259.1z"/>
		<path fill="#ECC01C" d="M1155.1,435.6c1.3,0.5,1.8,0.7,2.2,0.9c-0.5,0.4-0.9,0.9-1.5,1.1c-0.4,0.1-0.9-0.3-1.4-0.5
			C1154.7,436.5,1155,435.9,1155.1,435.6z"/>
		<path fill="#ECC01C" d="M593.1,644.4c0.1,0.9,0.3,1.7,0.3,2.4c0,0.2-0.7,0.4-1.1,0.6c-0.2-0.7-0.5-1.5-0.5-2.2
			C591.8,645.1,592.5,644.8,593.1,644.4z"/>
		<path fill="#ECC01C" d="M542.5,310.3c-0.9,0.1-1.7,0.3-2.4,0.3c-0.2,0-0.4-0.7-0.6-1.1c0.7-0.2,1.5-0.5,2.2-0.5
			C541.9,309,542.2,309.7,542.5,310.3z"/>
		<path fill="#ECC01C" d="M522.2,329.6c-0.4,0.6-0.6,1.3-0.8,1.3c-0.7,0-1.5-0.3-2.2-0.5c0.2-0.4,0.4-1,0.6-1.1
			C520.5,329.3,521.3,329.5,522.2,329.6z"/>
		<path fill="#ECC01C" d="M702.7,317.7c-0.1-0.3-0.4-0.9-0.6-1.5c0.5-0.2,1-0.6,1.4-0.5c0.5,0.1,1,0.7,1.5,1.1
			C704.5,317,704,317.2,702.7,317.7z"/>
		<path fill="#ECC01C" d="M532,330.9c-0.9-0.1-1.6-0.1-2.3-0.2c-0.1,0,0-1.1,0-1.1c0.7-0.1,1.5-0.1,2.2,0
			C531.9,329.6,531.9,330.3,532,330.9z"/>
		<path fill="#ECC01C" d="M659.4,653.2c-0.4,0.6-0.6,1.3-0.8,1.3c-0.7,0-1.5-0.3-2.2-0.5c0.2-0.4,0.4-1,0.6-1.1
			C657.8,652.8,658.5,653,659.4,653.2z"/>
		<path fill="#ECC01C" d="M922,304.2c-0.4,0.6-0.6,1.3-0.8,1.3c-0.7,0-1.5-0.3-2.2-0.5c0.2-0.4,0.4-1,0.6-1.1
			C920.3,303.9,921.1,304.1,922,304.2z"/>
		<path fill="#ECC01C" d="M1107.6,285.6c-0.1-0.3-0.4-0.9-0.6-1.5c0.5-0.2,1-0.6,1.4-0.5c0.5,0.1,1,0.7,1.5,1.1
			C1109.4,284.8,1108.9,285,1107.6,285.6z"/>
		<path fill="#ECC01C" d="M982.1,638.6c-1.5,0.3-2.3,0.8-2.9,0.6c-0.5-0.2-0.8-1-1.2-1.6c0.5,0,1.1-0.1,1.6,0
			C980.2,637.8,980.8,638.1,982.1,638.6z"/>
		<path fill="#ECC01C" d="M1272.5,506.5c-0.2,0.2-0.4,0.4-0.6,0.6c-0.2-0.4-0.4-0.7-0.5-1.1c0-0.1,0.3-0.4,0.5-0.6
			C1272.1,505.8,1272.3,506.2,1272.5,506.5z"/>
		<path fill="#ECC01C" d="M1169.2,508.2c-0.2,0.2-0.4,0.4-0.6,0.6c-0.2-0.4-0.4-0.7-0.5-1.1c0-0.1,0.3-0.4,0.5-0.6
			C1168.8,507.5,1169,507.9,1169.2,508.2z"/>
		<path fill="#ECC01C" d="M1291.2,508.2c-0.2,0.2-0.4,0.4-0.6,0.6c-0.2-0.4-0.4-0.7-0.5-1.1c0-0.1,0.3-0.4,0.5-0.6
			C1290.8,507.5,1291,507.9,1291.2,508.2z"/>
		<path fill="#ECC01C" d="M786.3,509.9c-0.2,0.2-0.4,0.4-0.6,0.6c-0.2-0.4-0.4-0.7-0.5-1.1c0-0.1,0.3-0.4,0.5-0.6
			C785.9,509.2,786.1,509.6,786.3,509.9z"/>
		<path fill="#ECC01C" d="M543.7,637.8c0.2,0.2,0.4,0.4,0.6,0.6c-0.4,0.2-0.7,0.4-1.1,0.5c-0.1,0-0.4-0.3-0.6-0.5
			C543,638.2,543.3,638,543.7,637.8z"/>
		<path fill="#ECC01C" d="M1098,509.9c-0.2,0.2-0.4,0.4-0.6,0.6c-0.2-0.4-0.4-0.7-0.5-1.1c0-0.1,0.3-0.4,0.5-0.6
			C1097.6,509.2,1097.8,509.6,1098,509.9z"/>
		<path fill="#ECC01C" d="M1162.4,509.9c-0.2,0.2-0.4,0.4-0.6,0.6c-0.2-0.4-0.4-0.7-0.5-1.1c0-0.1,0.3-0.4,0.5-0.6
			C1162,509.2,1162.2,509.6,1162.4,509.9z"/>
		<path fill="#ECC01C" d="M977.2,637.6c-0.3-0.3-0.5-0.7-0.8-1c0.4-0.1,0.9-0.4,1-0.3c0.3,0.4,0.4,0.8,0.5,1.3
			C977.7,637.6,977.5,637.6,977.2,637.6z"/>
		<path fill="#ECC01C" d="M1276.4,633.1c0.2-0.2,0.4-0.4,0.6-0.6c0.2,0.4,0.4,0.7,0.5,1.1c0,0.1-0.3,0.4-0.5,0.6
			C1276.8,633.8,1276.6,633.5,1276.4,633.1z"/>
		<path fill="#ECC01C" d="M1213.2,509.9c-0.2,0.2-0.4,0.4-0.6,0.6c-0.2-0.4-0.4-0.7-0.5-1.1c0-0.1,0.3-0.4,0.5-0.6
			C1212.8,509.2,1213,509.6,1213.2,509.9z"/>
		<path fill="#ECC01C" d="M544.1,628.5c-0.2,0.2-0.4,0.4-0.6,0.6c-0.2-0.4-0.4-0.7-0.5-1.1c0-0.1,0.3-0.4,0.5-0.6
			C543.7,627.8,543.9,628.2,544.1,628.5z"/>
		<path fill="#ECC01C" d="M1094,512.2c0.2,0.4,0.4,0.7,0.5,1.1c0,0.1-0.3,0.4-0.5,0.6c-0.2-0.4-0.4-0.7-0.5-1.1
			C1093.5,512.6,1093.9,512.4,1094,512.2z"/>
		<path fill="#ECC01C" d="M1135.6,512.2c0.6,0.6,1.1,1.1,1.7,1.7C1136.7,513.4,1136.1,512.8,1135.6,512.2z"/>
		<path fill="#ECC01C" d="M545.8,618.3c-0.2,0.2-0.4,0.4-0.6,0.6c-0.2-0.4-0.4-0.7-0.5-1.1c0-0.1,0.3-0.4,0.5-0.6
			C545.4,617.6,545.6,618,545.8,618.3z"/>
		<path fill="#ECC01C" d="M621.6,244.8c0.2,0.2,0.4,0.4,0.6,0.6c-0.4,0.2-0.7,0.4-1.1,0.5c-0.1,0-0.4-0.3-0.6-0.5
			C620.9,245.2,621.3,245,621.6,244.8z"/>
		<path fill="#ECC01C" d="M560.2,659.4c-0.2-0.2-0.4-0.4-0.6-0.6c0.4-0.2,0.7-0.4,1.1-0.5c0.1,0,0.4,0.3,0.6,0.5
			C560.9,659,560.5,659.2,560.2,659.4z"/>
		<path fill="#ECC01C" d="M1223.9,484c0.2-0.2,0.4-0.4,0.6-0.6c0.2,0.4,0.4,0.7,0.5,1.1c0,0.1-0.3,0.4-0.5,0.6
			C1224.3,484.7,1224.1,484.4,1223.9,484z"/>
		<path fill="#ECC01C" d="M1140.6,485.9c-0.3,0.3-0.7,0.5-1,0.8c-0.1-0.4-0.4-0.9-0.3-1c0.4-0.3,0.8-0.4,1.3-0.5
			C1140.6,485.4,1140.6,485.6,1140.6,485.9z"/>
		<path fill="#ECC01C" d="M990.1,487.4c0.2-0.2,0.4-0.4,0.6-0.6c0.2,0.4,0.4,0.7,0.5,1.1c0,0.1-0.3,0.4-0.5,0.6
			C990.5,488.1,990.3,487.8,990.1,487.4z"/>
		<path fill="#ECC01C" d="M1215.4,489.1c0.2-0.2,0.4-0.4,0.6-0.6c0.2,0.4,0.4,0.7,0.5,1.1c0,0.1-0.3,0.4-0.5,0.6
			C1215.8,489.8,1215.6,489.5,1215.4,489.1z"/>
		<path fill="#ECC01C" d="M549.2,650.4c-0.2,0.2-0.5,0.6-0.5,0.5c-0.4-0.2-0.7-0.5-1-0.8c0.3-0.3,0.5-0.5,0.8-0.8
			C548.7,649.8,549,650.1,549.2,650.4z"/>
		<path fill="#ECC01C" d="M1210.9,490.2c0.2,0.4,0.4,0.7,0.5,1.1c0,0.1-0.3,0.4-0.5,0.6c-0.2-0.4-0.4-0.7-0.5-1.1
			C1210.4,490.6,1210.8,490.4,1210.9,490.2z"/>
		<path fill="#ECC01C" d="M1262.4,493c-0.2,0.2-0.4,0.4-0.6,0.6c-0.2-0.4-0.4-0.7-0.5-1.1c0-0.1,0.3-0.4,0.5-0.6
			C1262,492.3,1262.2,492.6,1262.4,493z"/>
		<path fill="#ECC01C" d="M471.7,262.6c0.2-0.4,0.4-0.7,0.6-1.1c0.2,0.2,0.6,0.4,0.5,0.6c-0.1,0.4-0.3,0.8-0.5,1.1
			C472.1,263,471.9,262.8,471.7,262.6z"/>
		<path fill="#ECC01C" d="M1096.3,496.4c-0.2,0.2-0.4,0.4-0.6,0.6c-0.2-0.4-0.4-0.7-0.5-1.1c0-0.1,0.3-0.4,0.5-0.6
			C1095.9,495.6,1096.1,496,1096.3,496.4z"/>
		<path fill="#ECC01C" d="M1064.2,503.1c-0.2,0.2-0.4,0.4-0.6,0.6c-0.2-0.4-0.4-0.7-0.5-1.1c0-0.1,0.3-0.4,0.5-0.6
			C1063.8,502.4,1064,502.8,1064.2,503.1z"/>
		<path fill="#ECC01C" d="M1156.9,502.2c0.2,0.2,0.6,0.5,0.5,0.5c-0.2,0.4-0.5,0.7-0.8,1c-0.3-0.3-0.5-0.5-0.8-0.8
			C1156.2,502.7,1156.5,502.5,1156.9,502.2z"/>
		<path fill="#ECC01C" d="M1287.8,503.1c-0.2,0.2-0.4,0.4-0.6,0.6c-0.2-0.4-0.4-0.7-0.5-1.1c0-0.1,0.3-0.4,0.5-0.6
			C1287.4,502.4,1287.6,502.8,1287.8,503.1z"/>
		<path fill="#ECC01C" d="M1133.1,503.9c0.2,0.2,0.6,0.5,0.5,0.5c-0.2,0.4-0.5,0.7-0.8,1c-0.3-0.3-0.5-0.5-0.8-0.8
			C1132.5,504.4,1132.8,504.2,1133.1,503.9z"/>
		<path fill="#ECC01C" d="M1155.9,504.5c-0.3,0.3-0.7,0.5-1,0.8c-0.1-0.4-0.4-0.9-0.3-1c0.4-0.3,0.8-0.4,1.3-0.5
			C1155.9,504,1155.9,504.3,1155.9,504.5z"/>
		<path fill="#ECC01C" d="M492.6,505.4c0.2,0.4,0.4,0.7,0.5,1.1c0,0.1-0.3,0.4-0.5,0.6c-0.2-0.4-0.4-0.7-0.5-1.1
			C492.1,505.9,492.4,505.6,492.6,505.4z"/>
		<path fill="#ECC01C" d="M546.9,649.4c-0.3-0.3-0.5-0.7-0.8-1c0.4-0.1,0.9-0.4,1-0.3c0.3,0.4,0.4,0.8,0.5,1.3
			C547.4,649.4,547.2,649.4,546.9,649.4z"/>
		<path fill="#ECC01C" d="M498.3,506c-0.2,0.4-0.4,0.7-0.6,1.1c-0.2-0.2-0.6-0.4-0.5-0.6c0.1-0.4,0.3-0.8,0.5-1.1
			C497.9,505.6,498.1,505.8,498.3,506z"/>
		<path fill="#ECC01C" d="M588.1,645c-0.2,0.4-0.4,0.7-0.6,1.1c-0.2-0.2-0.6-0.4-0.5-0.6c0.1-0.4,0.3-0.8,0.5-1.1
			C587.7,644.6,587.9,644.7,588.1,645z"/>
		<path fill="#ECC01C" d="M1045.5,253.6c-0.2,0.4-0.4,0.7-0.6,1.1c-0.2-0.2-0.6-0.4-0.5-0.6c0.1-0.4,0.3-0.8,0.5-1.1
			C1045.1,253.2,1045.3,253.4,1045.5,253.6z"/>
		<path fill="#ECC01C" d="M455.1,573c-0.2-0.2-0.4-0.4-0.6-0.6c0.4-0.2,0.7-0.4,1.1-0.5c0.1,0,0.4,0.3,0.6,0.5
			C455.8,572.6,455.5,572.8,455.1,573z"/>
		<path fill="#ECC01C" d="M396.1,568.1c0.2,0.4,0.4,0.7,0.5,1.1c0,0.1-0.3,0.4-0.5,0.6c-0.2-0.4-0.4-0.7-0.5-1.1
			C395.5,568.5,395.9,568.3,396.1,568.1z"/>
		<path fill="#ECC01C" d="M1250.5,528.6c-0.2,0.2-0.4,0.4-0.6,0.6c-0.2-0.4-0.4-0.7-0.5-1.1c0-0.1,0.3-0.4,0.5-0.6
			C1250.1,527.8,1250.3,528.2,1250.5,528.6z"/>
		<path fill="#ECC01C" d="M1129.6,529.2c0.2,0.4,0.4,0.7,0.5,1.1c0,0.1-0.3,0.4-0.5,0.6c-0.2-0.4-0.4-0.7-0.5-1.1
			C1129.1,529.6,1129.4,529.4,1129.6,529.2z"/>
		<path fill="#ECC01C" d="M1230.4,533.4c-0.4,0.2-0.7,0.4-1.1,0.5c-0.1,0-0.4-0.3-0.6-0.5c0.4-0.2,0.7-0.4,1.1-0.5
			C1230,532.8,1230.2,533.2,1230.4,533.4z"/>
		<path fill="#ECC01C" d="M1251.6,532.6c0.2,0.4,0.4,0.7,0.5,1.1c0,0.1-0.3,0.4-0.5,0.6c-0.2-0.4-0.4-0.7-0.5-1.1
			C1251,533,1251.4,532.7,1251.6,532.6z"/>
		<path fill="#ECC01C" d="M384.8,567c-0.2,0.4-0.4,0.7-0.6,1.1c-0.2-0.2-0.6-0.4-0.5-0.6c0.1-0.4,0.3-0.8,0.5-1.1
			C384.4,566.6,384.6,566.8,384.8,567z"/>
		<path fill="#ECC01C" d="M367.9,564.1c-0.2,0.2-0.4,0.4-0.6,0.6c-0.2-0.4-0.4-0.7-0.5-1.1c0-0.1,0.3-0.4,0.5-0.6
			C367.5,563.4,367.7,563.8,367.9,564.1z"/>
		<path fill="#ECC01C" d="M1322.8,558c0.2,0.4,0.4,0.7,0.5,1.1c0,0.1-0.3,0.4-0.5,0.6c-0.2-0.4-0.4-0.7-0.5-1.1
			C1322.2,558.4,1322.6,558.2,1322.8,558z"/>
		<path fill="#ECC01C" d="M926.9,253.6c-0.2,0.4-0.4,0.7-0.6,1.1c-0.2-0.2-0.6-0.4-0.5-0.6c0.1-0.4,0.3-0.8,0.5-1.1
			C926.5,253.2,926.7,253.4,926.9,253.6z"/>
		<path fill="#ECC01C" d="M944.1,558.8c-0.4,0.2-0.7,0.4-1.1,0.5c-0.1,0-0.4-0.3-0.6-0.5c0.4-0.2,0.7-0.4,1.1-0.5
			C943.7,558.2,943.9,558.6,944.1,558.8z"/>
		<path fill="#ECC01C" d="M954,253.6c-0.2,0.4-0.4,0.7-0.6,1.1c-0.2-0.2-0.6-0.4-0.5-0.6c0.1-0.4,0.3-0.8,0.5-1.1
			C953.6,253.2,953.8,253.4,954,253.6z"/>
		<path fill="#ECC01C" d="M905.2,536.8c-0.4,0.2-0.7,0.4-1.1,0.5c-0.1,0-0.4-0.3-0.6-0.5c0.4-0.2,0.7-0.4,1.1-0.5
			C904.7,536.2,905,536.6,905.2,536.8z"/>
		<path fill="#ECC01C" d="M937.6,558.6c0.2-0.2,0.4-0.4,0.6-0.6c0.2,0.4,0.4,0.7,0.5,1.1c0,0.1-0.3,0.4-0.5,0.6
			C938,559.3,937.8,558.9,937.6,558.6z"/>
		<path fill="#ECC01C" d="M907.1,539.9c0.2-0.2,0.4-0.4,0.6-0.6c0.2,0.4,0.4,0.7,0.5,1.1c0,0.1-0.3,0.4-0.5,0.6
			C907.5,540.7,907.3,540.3,907.1,539.9z"/>
		<path fill="#ECC01C" d="M1338.2,542.5c-0.4-0.2-0.7-0.4-1.1-0.6c0.2-0.2,0.4-0.6,0.6-0.5c0.4,0.1,0.8,0.3,1.1,0.5
			C1338.7,542.1,1338.5,542.2,1338.2,542.5z"/>
		<path fill="#ECC01C" d="M324.3,551.8c0.2-0.2,0.4-0.4,0.6-0.6c0.2,0.4,0.4,0.7,0.5,1.1c0,0.1-0.3,0.4-0.5,0.6
			C324.7,552.5,324.5,552.1,324.3,551.8z"/>
		<path fill="#ECC01C" d="M935.4,547.2c-0.2,0.2-0.4,0.4-0.6,0.6c-0.2-0.4-0.4-0.7-0.5-1.1c0-0.1,0.3-0.4,0.5-0.6
			C935,546.5,935.2,546.8,935.4,547.2z"/>
		<path fill="#ECC01C" d="M321.5,549.5c0.2,0.4,0.4,0.7,0.5,1.1c0,0.1-0.3,0.4-0.5,0.6c-0.2-0.4-0.4-0.7-0.5-1.1
			C321,549.9,321.3,549.7,321.5,549.5z"/>
		<path fill="#ECC01C" d="M1304.7,550.6c-0.2,0.2-0.4,0.4-0.6,0.6c-0.2-0.4-0.4-0.7-0.5-1.1c0-0.1,0.3-0.4,0.5-0.6
			C1304.3,549.9,1304.5,550.2,1304.7,550.6z"/>
		<path fill="#ECC01C" d="M962.5,257.5c-0.2,0.2-0.4,0.4-0.6,0.6c-0.2-0.4-0.4-0.7-0.5-1.1c0-0.1,0.3-0.4,0.5-0.6
			C962.1,256.8,962.3,257.1,962.5,257.5z"/>
		<path fill="#ECC01C" d="M955.4,256.7c0.2,0.2,0.4,0.4,0.6,0.6c-0.4,0.2-0.7,0.4-1.1,0.5c-0.1,0-0.4-0.3-0.6-0.5
			C954.6,257.1,955,256.8,955.4,256.7z"/>
		<path fill="#ECC01C" d="M938.4,515.9c0.2,0.2,0.4,0.4,0.6,0.6c-0.4,0.2-0.7,0.4-1.1,0.5c-0.1,0-0.4-0.3-0.6-0.5
			C937.7,516.3,938.1,516,938.4,515.9z"/>
		<path fill="#ECC01C" d="M1226.3,515.7c0.2,0.2,0.6,0.5,0.5,0.5c-0.2,0.4-0.5,0.7-0.8,1c-0.3-0.3-0.5-0.5-0.8-0.8
			C1225.7,516.3,1226,516,1226.3,515.7z"/>
		<path fill="#ECC01C" d="M943.4,258.1c-0.3-0.3-0.5-0.7-0.8-1c0.4-0.1,0.9-0.4,1-0.3c0.3,0.4,0.4,0.8,0.5,1.3
			C943.9,258.1,943.6,258.1,943.4,258.1z"/>
		<path fill="#ECC01C" d="M1144.9,519c0.2,0.4,0.4,0.7,0.5,1.1c0,0.1-0.3,0.4-0.5,0.6c-0.2-0.4-0.4-0.7-0.5-1.1
			C1144.3,519.4,1144.7,519.2,1144.9,519z"/>
		<path fill="#ECC01C" d="M720.2,250.2c-0.2,0.4-0.4,0.7-0.6,1.1c-0.2-0.2-0.6-0.4-0.5-0.6c0.1-0.4,0.3-0.8,0.5-1.1
			C719.8,249.8,720,250,720.2,250.2z"/>
		<path fill="#ECC01C" d="M1176,520.1c-0.2,0.2-0.4,0.4-0.6,0.6c-0.2-0.4-0.4-0.7-0.5-1.1c0-0.1,0.3-0.4,0.5-0.6
			C1175.6,519.4,1175.8,519.7,1176,520.1z"/>
		<path fill="#ECC01C" d="M892.7,520.9c0.2,0.2,0.4,0.4,0.6,0.6c-0.4,0.2-0.7,0.4-1.1,0.5c-0.1,0-0.4-0.3-0.6-0.5
			C892,521.3,892.3,521.1,892.7,520.9z"/>
		<path fill="#ECC01C" d="M1204.2,610.5c0.2,0.4,0.4,0.7,0.5,1.1c0,0.1-0.3,0.4-0.5,0.6c-0.2-0.4-0.4-0.7-0.5-1.1
			C1203.6,610.9,1204,610.7,1204.2,610.5z"/>
		<path fill="#ECC01C" d="M1242,521.8c-0.2,0.2-0.4,0.4-0.6,0.6c-0.2-0.4-0.4-0.7-0.5-1.1c0-0.1,0.3-0.4,0.5-0.6
			C1241.6,521.1,1241.8,521.4,1242,521.8z"/>
		<path fill="#ECC01C" d="M1138.3,522.6c0.2,0.2,0.4,0.4,0.6,0.6c-0.4,0.2-0.7,0.4-1.1,0.5c-0.1,0-0.4-0.3-0.6-0.5
			C1137.6,523,1138,522.8,1138.3,522.6z"/>
		<path fill="#ECC01C" d="M950.2,251.5c0.2,0.2,0.6,0.5,0.5,0.5c-0.2,0.4-0.5,0.7-0.8,1c-0.3-0.3-0.5-0.5-0.8-0.8
			C949.5,252,949.9,251.7,950.2,251.5z"/>
		<path fill="#ECC01C" d="M1164.6,524.7c0.2-0.2,0.4-0.4,0.6-0.6c0.2,0.4,0.4,0.7,0.5,1.1c0,0.1-0.3,0.4-0.5,0.6
			C1165,525.4,1164.8,525,1164.6,524.7z"/>
		<path fill="#ECC01C" d="M1243.4,524.3c0.2,0.2,0.4,0.4,0.6,0.6c-0.4,0.2-0.7,0.4-1.1,0.5c-0.1,0-0.4-0.3-0.6-0.5
			C1242.7,524.7,1243,524.5,1243.4,524.3z"/>
		<path fill="#ECC01C" d="M1293.1,600.3c0.6,0.6,1.1,1.1,1.7,1.7C1294.2,601.4,1293.7,600.9,1293.1,600.3z"/>
		<path fill="#ECC01C" d="M1306.4,525.2c-0.2,0.2-0.4,0.4-0.6,0.6c-0.2-0.4-0.4-0.7-0.5-1.1c0-0.1,0.3-0.4,0.5-0.6
			C1306,524.4,1306.2,524.8,1306.4,525.2z"/>
		<path fill="#ECC01C" d="M1292.4,600.3c-0.3-0.3-0.5-0.7-0.8-1c0.4-0.1,0.9-0.4,1-0.3c0.3,0.4,0.4,0.8,0.5,1.3
			C1292.9,600.3,1292.6,600.3,1292.4,600.3z"/>
		<path fill="#ECC01C" d="M1118.6,526.6c-0.4,0.2-0.7,0.4-1.1,0.5c-0.1,0-0.4-0.3-0.6-0.5c0.4-0.2,0.7-0.4,1.1-0.5
			C1118.2,526.1,1118.4,526.4,1118.6,526.6z"/>
		<path fill="#ECC01C" d="M1143.8,526.9c-0.2,0.2-0.4,0.4-0.6,0.6c-0.2-0.4-0.4-0.7-0.5-1.1c0-0.1,0.3-0.4,0.5-0.6
			C1143.4,526.1,1143.6,526.5,1143.8,526.9z"/>
		<path fill="#ECC01C" d="M962.5,251.9c-0.2,0.4-0.4,0.7-0.6,1.1c-0.2-0.2-0.6-0.4-0.5-0.6c0.1-0.4,0.3-0.8,0.5-1.1
			C962.1,251.5,962.3,251.7,962.5,251.9z"/>
		<path fill="#ECC01C" d="M270.9,357.8c-0.4-0.2-0.7-0.4-1.1-0.6c0.2-0.2,0.4-0.6,0.6-0.5c0.4,0.1,0.8,0.3,1.1,0.5
			C271.4,357.4,271.2,357.6,270.9,357.8z"/>
		<path fill="#ECC01C" d="M370.4,356.6c0.4,0.2,0.7,0.4,1.1,0.6c-0.2,0.2-0.4,0.6-0.6,0.5c-0.4-0.1-0.8-0.3-1.1-0.5
			C370,357,370.2,356.8,370.4,356.6z"/>
		<path fill="#ECC01C" d="M266.5,358.9c-0.4,0.2-0.7,0.4-1.1,0.5c-0.1,0-0.4-0.3-0.6-0.5c0.4-0.2,0.7-0.4,1.1-0.5
			C266,358.3,266.3,358.7,266.5,358.9z"/>
		<path fill="#ECC01C" d="M374.6,364.2c-0.2,0.2-0.4,0.4-0.6,0.6c-0.2-0.4-0.4-0.7-0.5-1.1c0-0.1,0.3-0.4,0.5-0.6
			C374.2,363.5,374.4,363.9,374.6,364.2z"/>
		<path fill="#ECC01C" d="M1238.7,367.6c-0.2,0.2-0.4,0.4-0.6,0.6c-0.2-0.4-0.4-0.7-0.5-1.1c0-0.1,0.3-0.4,0.5-0.6
			C1238.3,366.9,1238.5,367.3,1238.7,367.6z"/>
		<path fill="#ECC01C" d="M601.2,368.4c0.2,0.2,0.6,0.5,0.5,0.5c-0.2,0.4-0.5,0.7-0.8,1c-0.3-0.3-0.5-0.5-0.8-0.8
			C600.5,368.9,600.9,368.6,601.2,368.4z"/>
		<path fill="#ECC01C" d="M717.9,280.1c0.2,0.4,0.4,0.7,0.5,1.1c0,0.1-0.3,0.4-0.5,0.6c-0.2-0.4-0.4-0.7-0.5-1.1
			C717.4,280.5,717.8,280.3,717.9,280.1z"/>
		<path fill="#ECC01C" d="M462.7,281.2c-0.2,0.2-0.4,0.4-0.6,0.6c-0.2-0.4-0.4-0.7-0.5-1.1c0-0.1,0.3-0.4,0.5-0.6
			C462.3,280.5,462.5,280.9,462.7,281.2z"/>
		<path fill="#ECC01C" d="M1179.8,279.5c0.2-0.4,0.4-0.7,0.6-1.1c0.2,0.2,0.6,0.4,0.5,0.6c-0.1,0.4-0.3,0.8-0.5,1.1
			C1180.3,279.9,1180.1,279.7,1179.8,279.5z"/>
		<path fill="#ECC01C" d="M1228.5,377.8c-0.2,0.2-0.4,0.4-0.6,0.6c-0.2-0.4-0.4-0.7-0.5-1.1c0-0.1,0.3-0.4,0.5-0.6
			C1228.1,377.1,1228.3,377.4,1228.5,377.8z"/>
		<path fill="#ECC01C" d="M1230.2,277.8c-0.2,0.2-0.4,0.4-0.6,0.6c-0.2-0.4-0.4-0.7-0.5-1.1c0-0.1,0.3-0.4,0.5-0.6
			C1229.8,277.1,1230,277.5,1230.2,277.8z"/>
		<path fill="#ECC01C" d="M589.2,380.1c0.2,0.4,0.4,0.7,0.5,1.1c0,0.1-0.3,0.4-0.5,0.6c-0.2-0.4-0.4-0.7-0.5-1.1
			C588.6,380.5,589,380.3,589.2,380.1z"/>
		<path fill="#ECC01C" d="M1221.4,381.5c-0.4-0.2-0.7-0.4-1.1-0.6c0.2-0.2,0.4-0.6,0.6-0.5c0.4,0.1,0.8,0.3,1.1,0.5
			C1221.8,381.1,1221.6,381.3,1221.4,381.5z"/>
		<path fill="#ECC01C" d="M1212.4,385.4c0.4,0.2,0.7,0.4,1.1,0.6c-0.2,0.2-0.4,0.6-0.6,0.5c-0.4-0.1-0.8-0.3-1.1-0.5
			C1212,385.8,1212.2,385.6,1212.4,385.4z"/>
		<path fill="#ECC01C" d="M470.7,278.4c-0.3-0.3-0.5-0.7-0.8-1c0.4-0.1,0.9-0.4,1-0.3c0.3,0.4,0.4,0.8,0.5,1.3
			C471.2,278.4,470.9,278.4,470.7,278.4z"/>
		<path fill="#ECC01C" d="M574.8,387.6c-0.3,0.3-0.7,0.5-1,0.8c-0.1-0.4-0.4-0.9-0.3-1c0.4-0.3,0.8-0.4,1.3-0.5
			C574.8,387.1,574.8,387.4,574.8,387.6z"/>
		<path fill="#ECC01C" d="M1211.5,389.6c-0.2,0.2-0.4,0.4-0.6,0.6c-0.2-0.4-0.4-0.7-0.5-1.1c0-0.1,0.3-0.4,0.5-0.6
			C1211.1,388.9,1211.3,389.3,1211.5,389.6z"/>
		<path fill="#ECC01C" d="M465.8,277c0.2,0.2,0.4,0.4,0.6,0.6c-0.4,0.2-0.7,0.4-1.1,0.5c-0.1,0-0.4-0.3-0.6-0.5
			C465,277.4,465.4,277.2,465.8,277z"/>
		<path fill="#ECC01C" d="M1220,276.1c-0.2,0.2-0.4,0.4-0.6,0.6c-0.2-0.4-0.4-0.7-0.5-1.1c0-0.1,0.3-0.4,0.5-0.6
			C1219.6,275.4,1219.8,275.8,1220,276.1z"/>
		<path fill="#ECC01C" d="M1062.9,275.6c0.2-0.2,0.4-0.4,0.6-0.6c0.2,0.4,0.4,0.7,0.5,1.1c0,0.1-0.3,0.4-0.5,0.6
			C1063.3,276.4,1063.1,276,1062.9,275.6z"/>
		<path fill="#ECC01C" d="M1138.9,399.5c-0.3,0.3-0.7,0.5-1,0.8c-0.1-0.4-0.4-0.9-0.3-1c0.4-0.3,0.8-0.4,1.3-0.5
			C1138.9,399,1138.9,399.2,1138.9,399.5z"/>
		<path fill="#ECC01C" d="M849,276.1c-0.2,0.2-0.4,0.4-0.6,0.6c-0.2-0.4-0.4-0.7-0.5-1.1c0-0.1,0.3-0.4,0.5-0.6
			C848.6,275.4,848.8,275.8,849,276.1z"/>
		<path fill="#ECC01C" d="M833.8,406.1c-0.2,0.4-0.4,0.7-0.6,1.1c-0.2-0.2-0.6-0.4-0.5-0.6c0.1-0.4,0.3-0.8,0.5-1.1
			C833.3,405.7,833.5,405.9,833.8,406.1z"/>
		<path fill="#ECC01C" d="M845.6,410c-0.2,0.2-0.4,0.4-0.6,0.6c-0.2-0.4-0.4-0.7-0.5-1.1c0-0.1,0.3-0.4,0.5-0.6
			C845.2,409.2,845.4,409.6,845.6,410z"/>
		<path fill="#ECC01C" d="M533.9,307.8c-0.2,0.4-0.4,0.7-0.6,1.1c-0.2-0.2-0.6-0.4-0.5-0.6c0.1-0.4,0.3-0.8,0.5-1.1
			C533.5,307.4,533.7,307.6,533.9,307.8z"/>
		<path fill="#ECC01C" d="M483.3,305.5c0.6,0,1.1,0,1.7,0c-0.4,0.5-0.8,0.9-1.1,1.4C483.7,306.5,483.5,306,483.3,305.5z"/>
		<path fill="#ECC01C" d="M532.2,304.4c-0.2,0.4-0.4,0.7-0.6,1.1c-0.2-0.2-0.6-0.4-0.5-0.6c0.1-0.4,0.3-0.8,0.5-1.1
			C531.8,304,532,304.2,532.2,304.4z"/>
		<path fill="#ECC01C" d="M800.4,323.6c0.2-0.4,0.4-0.7,0.6-1.1c0.2,0.2,0.6,0.4,0.5,0.6c-0.1,0.4-0.3,0.8-0.5,1.1
			C800.8,324,800.6,323.8,800.4,323.6z"/>
		<path fill="#ECC01C" d="M486,304c0.2,0.2,0.6,0.5,0.5,0.5c-0.2,0.4-0.5,0.7-0.8,1c-0.3-0.3-0.5-0.5-0.8-0.8
			C485.3,304.5,485.7,304.2,486,304z"/>
		<path fill="#ECC01C" d="M370.8,304c0.2,0.2,0.6,0.5,0.5,0.5c-0.2,0.4-0.5,0.7-0.8,1c-0.3-0.3-0.5-0.5-0.8-0.8
			C370.1,304.5,370.5,304.2,370.8,304z"/>
		<path fill="#ECC01C" d="M535.6,327c-0.2,0.2-0.4,0.4-0.6,0.6c-0.2-0.4-0.4-0.7-0.5-1.1c0-0.1,0.3-0.4,0.5-0.6
			C535.2,326.2,535.4,326.6,535.6,327z"/>
		<path fill="#ECC01C" d="M828.7,301.5c-0.2,0.2-0.4,0.4-0.6,0.6c-0.2-0.4-0.4-0.7-0.5-1.1c0-0.1,0.3-0.4,0.5-0.6
			C828.3,300.8,828.5,301.2,828.7,301.5z"/>
		<path fill="#ECC01C" d="M767.7,334.9c-0.2,0.4-0.4,0.7-0.6,1.1c-0.2-0.2-0.6-0.4-0.5-0.6c0.1-0.4,0.3-0.8,0.5-1.1
			C767.3,334.5,767.5,334.7,767.7,334.9z"/>
		<path fill="#ECC01C" d="M832.3,336.9c-0.4,0.2-0.7,0.4-1.1,0.5c-0.1,0-0.4-0.3-0.6-0.5c0.4-0.2,0.7-0.4,1.1-0.5
			C831.9,336.3,832.1,336.7,832.3,336.9z"/>
		<path fill="#ECC01C" d="M760.4,341.3c0.2,0.2,0.6,0.5,0.5,0.5c-0.2,0.4-0.5,0.7-0.8,1c-0.3-0.3-0.5-0.5-0.8-0.8
			C759.8,341.8,760.1,341.5,760.4,341.3z"/>
		<path fill="#ECC01C" d="M313.2,342.9c0.2,0.2,0.6,0.5,0.5,0.5c-0.2,0.4-0.5,0.7-0.8,1c-0.3-0.3-0.5-0.5-0.8-0.8
			C312.5,343.5,312.9,343.2,313.2,342.9z"/>
		<path fill="#ECC01C" d="M362.2,344.5c0.2,0.4,0.4,0.7,0.5,1.1c0,0.1-0.3,0.4-0.5,0.6c-0.2-0.4-0.4-0.7-0.5-1.1
			C361.6,344.9,362,344.7,362.2,344.5z"/>
		<path fill="#ECC01C" d="M298.7,347c-0.3,0.3-0.7,0.5-1,0.8c-0.1-0.4-0.4-0.9-0.3-1c0.4-0.3,0.8-0.4,1.3-0.5
			C298.7,346.4,298.7,346.7,298.7,347z"/>
		<path fill="#ECC01C" d="M825.8,347.3c0.2-0.4,0.4-0.7,0.6-1.1c0.2,0.2,0.6,0.4,0.5,0.6c-0.1,0.4-0.3,0.8-0.5,1.1
			C826.2,347.7,826,347.5,825.8,347.3z"/>
		<path fill="#ECC01C" d="M262,348.1c0.4,0.2,0.7,0.4,1.1,0.6c-0.2,0.2-0.4,0.6-0.6,0.5c-0.4-0.1-0.8-0.3-1.1-0.5
			C261.6,348.5,261.8,348.4,262,348.1z"/>
		<path fill="#ECC01C" d="M453.8,288.7c0.2,0.2,0.6,0.5,0.5,0.5c-0.2,0.4-0.5,0.7-0.8,1c-0.3-0.3-0.5-0.5-0.8-0.8
			C453.1,289.3,453.5,289,453.8,288.7z"/>
		<path fill="#ECC01C" d="M305.2,352.4c-0.2,0.2-0.4,0.4-0.6,0.6c-0.2-0.4-0.4-0.7-0.5-1.1c0-0.1,0.3-0.4,0.5-0.6
			C304.8,351.6,305,352,305.2,352.4z"/>
		<path fill="#ECC01C" d="M371.3,352.4c-0.2,0.2-0.4,0.4-0.6,0.6c-0.2-0.4-0.4-0.7-0.5-1.1c0-0.1,0.3-0.4,0.5-0.6
			C370.9,351.6,371.1,352,371.3,352.4z"/>
		<path fill="#ECC01C" d="M1269.1,352.4c-0.2,0.2-0.4,0.4-0.6,0.6c-0.2-0.4-0.4-0.7-0.5-1.1c0-0.1,0.3-0.4,0.5-0.6
			C1268.7,351.6,1268.9,352,1269.1,352.4z"/>
		<path fill="#ECC01C" d="M806.3,354.4c-0.4-0.2-0.7-0.4-1.1-0.6c0.2-0.2,0.4-0.6,0.6-0.5c0.4,0.1,0.8,0.3,1.1,0.5
			C806.7,354,806.5,354.2,806.3,354.4z"/>
		<path fill="#ECC01C" d="M816.2,353c0.2,0.4,0.4,0.7,0.5,1.1c0,0.1-0.3,0.4-0.5,0.6c-0.2-0.4-0.4-0.7-0.5-1.1
			C815.6,353.4,816,353.2,816.2,353z"/>
		<path fill="#ECC01C" d="M720.7,282.4c0.2-0.2,0.4-0.4,0.6-0.6c0.2,0.4,0.4,0.7,0.5,1.1c0,0.1-0.3,0.4-0.5,0.6
			C721.1,283.1,720.9,282.8,720.7,282.4z"/>
		<path fill="#ECC01C" d="M1275.6,354.9c0.2,0.2,0.4,0.4,0.6,0.6c-0.4,0.2-0.7,0.4-1.1,0.5c-0.1,0-0.4-0.3-0.6-0.5
			C1274.8,355.3,1275.2,355.1,1275.6,354.9z"/>
		<path fill="#ECC01C" d="M581,459.9c0.2,0.2,0.4,0.4,0.6,0.6c-0.4,0.2-0.7,0.4-1.1,0.5c-0.1,0-0.4-0.3-0.6-0.5
			C580.2,460.3,580.6,460.1,581,459.9z"/>
		<path fill="#ECC01C" d="M703.5,463.9c-0.4,0.2-0.7,0.4-1.1,0.5c-0.1,0-0.4-0.3-0.6-0.5c0.4-0.2,0.7-0.4,1.1-0.5
			C703.1,463.4,703.4,463.8,703.5,463.9z"/>
		<path fill="#ECC01C" d="M697,467.6c0.2-0.4,0.4-0.7,0.6-1.1c0.2,0.2,0.6,0.4,0.5,0.6c-0.1,0.4-0.3,0.8-0.5,1.1
			C697.4,468,697.2,467.8,697,467.6z"/>
		<path fill="#ECC01C" d="M702.1,467.6c0.2-0.4,0.4-0.7,0.6-1.1c0.2,0.2,0.6,0.4,0.5,0.6c-0.1,0.4-0.3,0.8-0.5,1.1
			C702.5,468,702.3,467.8,702.1,467.6z"/>
		<path fill="#ECC01C" d="M1275.9,467.6c-0.2,0.2-0.4,0.4-0.6,0.6c-0.2-0.4-0.4-0.7-0.5-1.1c0-0.1,0.3-0.4,0.5-0.6
			C1275.5,466.8,1275.7,467.2,1275.9,467.6z"/>
		<path fill="#ECC01C" d="M587.6,468.3c0.2,0.2,0.6,0.5,0.5,0.5c-0.2,0.4-0.5,0.7-0.8,1c-0.3-0.3-0.5-0.5-0.8-0.8
			C587,468.8,587.3,468.6,587.6,468.3z"/>
		<path fill="#ECC01C" d="M1146,468.8c0.2-0.2,0.4-0.4,0.6-0.6c0.2,0.4,0.4,0.7,0.5,1.1c0,0.1-0.3,0.4-0.5,0.6
			C1146.4,469.5,1146.2,469.1,1146,468.8z"/>
		<path fill="#ECC01C" d="M1206.7,469c-0.4,0.2-0.7,0.4-1.1,0.5c-0.1,0-0.4-0.3-0.6-0.5c0.4-0.2,0.7-0.4,1.1-0.5
			C1206.3,468.5,1206.5,468.8,1206.7,469z"/>
		<path fill="#ECC01C" d="M586.7,470.6c-0.3,0.3-0.7,0.5-1,0.8c-0.1-0.4-0.4-0.9-0.3-1c0.4-0.3,0.8-0.4,1.3-0.5
			C586.7,470.1,586.7,470.4,586.7,470.6z"/>
		<path fill="#ECC01C" d="M1140.6,469.9"/>
		<path fill="#ECC01C" d="M592.8,471.8c0.2,0.2,0.4,0.4,0.6,0.6c-0.4,0.2-0.7,0.4-1.1,0.5c-0.1,0-0.4-0.3-0.6-0.5
			C592.1,472.2,592.5,472,592.8,471.8z"/>
		<path fill="#ECC01C" d="M1135.6,472.4c-0.4,0.2-0.7,0.4-1.1,0.5c-0.1,0-0.4-0.3-0.6-0.5c0.4-0.2,0.7-0.4,1.1-0.5
			C1135.1,471.8,1135.4,472.2,1135.6,472.4z"/>
		<path fill="#ECC01C" d="M570.6,473.3c0.2,0.4,0.4,0.7,0.5,1.1c0,0.1-0.3,0.4-0.5,0.6c-0.2-0.4-0.4-0.7-0.5-1.1
			C570,473.7,570.4,473.4,570.6,473.3z"/>
		<path fill="#ECC01C" d="M1131.9,474.3c-0.2,0.2-0.4,0.4-0.6,0.6c-0.2-0.4-0.4-0.7-0.5-1.1c0-0.1,0.3-0.4,0.5-0.6
			C1131.5,473.6,1131.7,474,1131.9,474.3z"/>
		<path fill="#ECC01C" d="M1145.6,474.2c-0.2,0.2-0.5,0.6-0.5,0.5c-0.4-0.2-0.7-0.5-1-0.8c0.3-0.3,0.5-0.5,0.8-0.8
			C1145,473.6,1145.3,473.9,1145.6,474.2z"/>
		<path fill="#ECC01C" d="M1128.1,478.5c0.2,0.2,0.6,0.5,0.5,0.5c-0.2,0.4-0.5,0.7-0.8,1c-0.3-0.3-0.5-0.5-0.8-0.8
			C1127.4,479,1127.7,478.7,1128.1,478.5z"/>
		<path fill="#ECC01C" d="M1150.6,478.9c-0.2,0.4-0.4,0.7-0.6,1.1c-0.2-0.2-0.6-0.4-0.5-0.6c0.1-0.4,0.3-0.8,0.5-1.1
			C1150.1,478.5,1150.3,478.7,1150.6,478.9z"/>
		<path fill="#ECC01C" d="M1127.1,480.8c-0.3,0.3-0.7,0.5-1,0.8c-0.1-0.4-0.4-0.9-0.3-1c0.4-0.3,0.8-0.4,1.3-0.5
			C1127.1,480.3,1127.1,480.5,1127.1,480.8z"/>
		<path fill="#ECC01C" d="M469.6,269.3c-0.2,0.2-0.5,0.6-0.5,0.5c-0.4-0.2-0.7-0.5-1-0.8c0.3-0.3,0.5-0.5,0.8-0.8
			C469.1,268.6,469.4,268.9,469.6,269.3z"/>
		<path fill="#ECC01C" d="M1233.6,482.3c-0.2,0.4-0.4,0.7-0.6,1.1c-0.2-0.2-0.6-0.4-0.5-0.6c0.1-0.4,0.3-0.8,0.5-1.1
			C1233.2,481.9,1233.3,482.1,1233.6,482.3z"/>
		<path fill="#ECC01C" d="M1285.7,483.2c-0.4-0.2-0.7-0.4-1.1-0.6c0.2-0.2,0.4-0.6,0.6-0.5c0.4,0.1,0.8,0.3,1.1,0.5
			C1286.1,482.8,1286,483,1285.7,483.2z"/>
		<path fill="#ECC01C" d="M990.1,484c0.2-0.2,0.4-0.4,0.6-0.6c0.2,0.4,0.4,0.7,0.5,1.1c0,0.1-0.3,0.4-0.5,0.6
			C990.5,484.7,990.3,484.4,990.1,484z"/>
		<path fill="#ECC01C" d="M1141.6,483.6c0.2,0.2,0.6,0.5,0.5,0.5c-0.2,0.4-0.5,0.7-0.8,1c-0.3-0.3-0.5-0.5-0.8-0.8
			C1141,484.1,1141.3,483.8,1141.6,483.6z"/>
		<path fill="#ECC01C" d="M807.1,413.4c0.2-0.4,0.4-0.7,0.6-1.1c0.2,0.2,0.6,0.4,0.5,0.6c-0.1,0.4-0.3,0.8-0.5,1.1
			C807.5,413.8,807.4,413.6,807.1,413.4z"/>
		<path fill="#ECC01C" d="M1152.2,418.4c-0.2,0.2-0.4,0.4-0.6,0.6c-0.2-0.4-0.4-0.7-0.5-1.1c0-0.1,0.3-0.4,0.5-0.6
			C1151.9,417.7,1152.1,418.1,1152.2,418.4z"/>
		<path fill="#ECC01C" d="M555.3,273.3c0.2,0.4,0.4,0.7,0.5,1.1c0,0.1-0.3,0.4-0.5,0.6c-0.2-0.4-0.4-0.7-0.5-1.1
			C554.8,273.8,555.1,273.5,555.3,273.3z"/>
		<path fill="#ECC01C" d="M718.2,431.1c0.2,0.2,0.4,0.4,0.6,0.6c-0.4,0.2-0.7,0.4-1.1,0.5c-0.1,0-0.4-0.3-0.6-0.5
			C717.5,431.5,717.8,431.3,718.2,431.1z"/>
		<path fill="#ECC01C" d="M723.6,433.2c-0.2,0.4-0.4,0.7-0.6,1.1c-0.2-0.2-0.6-0.4-0.5-0.6c0.1-0.4,0.3-0.8,0.5-1.1
			C723.2,432.8,723.4,433,723.6,433.2z"/>
		<path fill="#ECC01C" d="M535.6,434.9c-0.2,0.4-0.4,0.7-0.6,1.1c-0.2-0.2-0.6-0.4-0.5-0.6c0.1-0.4,0.3-0.8,0.5-1.1
			C535.2,434.5,535.4,434.7,535.6,434.9z"/>
		<path fill="#ECC01C" d="M718.2,435.7c-0.4-0.2-0.7-0.4-1.1-0.6c0.2-0.2,0.4-0.6,0.6-0.5c0.4,0.1,0.8,0.3,1.1,0.5
			C718.6,435.3,718.4,435.5,718.2,435.7z"/>
		<path fill="#ECC01C" d="M434.2,439.4c-0.6-0.6-1.1-1.1-1.7-1.7C433.1,438.2,433.6,438.8,434.2,439.4z"/>
		<path fill="#ECC01C" d="M935.4,438.3c-0.2,0.4-0.4,0.7-0.6,1.1c-0.2-0.2-0.6-0.4-0.5-0.6c0.1-0.4,0.3-0.8,0.5-1.1
			C935,437.9,935.2,438.1,935.4,438.3z"/>
		<path fill="#ECC01C" d="M428.3,273.3c0.2,0.4,0.4,0.7,0.5,1.1c0,0.1-0.3,0.4-0.5,0.6c-0.2-0.4-0.4-0.7-0.5-1.1
			C427.7,273.8,428.1,273.5,428.3,273.3z"/>
		<path fill="#ECC01C" d="M537.3,441.7c-0.2,0.4-0.4,0.7-0.6,1.1c-0.2-0.2-0.6-0.4-0.5-0.6c0.1-0.4,0.3-0.8,0.5-1.1
			C536.9,441.3,537.1,441.4,537.3,441.7z"/>
		<path fill="#ECC01C" d="M543.2,441.3c0.4,0.2,0.7,0.4,1.1,0.6c-0.2,0.2-0.4,0.6-0.6,0.5c-0.4-0.1-0.8-0.3-1.1-0.5
			C542.8,441.7,543,441.5,543.2,441.3z"/>
		<path fill="#ECC01C" d="M1143.2,441.1c0.2,0.4,0.4,0.7,0.5,1.1c0,0.1-0.3,0.4-0.5,0.6c-0.2-0.4-0.4-0.7-0.5-1.1
			C1142.6,441.5,1143,441.3,1143.2,441.1z"/>
		<path fill="#ECC01C" d="M439.1,443.7c-0.2,0.2-0.5,0.6-0.5,0.5c-0.4-0.2-0.7-0.5-1-0.8c0.3-0.3,0.5-0.5,0.8-0.8
			C438.6,443.1,438.9,443.4,439.1,443.7z"/>
		<path fill="#ECC01C" d="M543.5,444.5c0.2,0.4,0.4,0.7,0.5,1.1c0,0.1-0.3,0.4-0.5,0.6c-0.2-0.4-0.4-0.7-0.5-1.1
			C542.9,444.9,543.3,444.6,543.5,444.5z"/>
		<path fill="#ECC01C" d="M1043.8,272.3c-0.2,0.4-0.4,0.7-0.6,1.1c-0.2-0.2-0.6-0.4-0.5-0.6c0.1-0.4,0.3-0.8,0.5-1.1
			C1043.4,271.8,1043.6,272,1043.8,272.3z"/>
		<path fill="#ECC01C" d="M292.7,447.8c0.2,0.4,0.4,0.7,0.5,1.1c0,0.1-0.3,0.4-0.5,0.6c-0.2-0.4-0.4-0.7-0.5-1.1
			C292.2,448.3,292.5,448,292.7,447.8z"/>
		<path fill="#ECC01C" d="M553.8,448c0.2,0.2,0.6,0.5,0.5,0.5c-0.2,0.4-0.5,0.7-0.8,1c-0.3-0.3-0.5-0.5-0.8-0.8
			C553.1,448.5,553.4,448.2,553.8,448z"/>
		<path fill="#ECC01C" d="M499.7,271.9c0.2,0.2,0.4,0.4,0.6,0.6c-0.4,0.2-0.7,0.4-1.1,0.5c-0.1,0-0.4-0.3-0.6-0.5
			C498.9,272.3,499.3,272.1,499.7,271.9z"/>
		<path fill="#ECC01C" d="M552.8,450.3c-0.3,0.3-0.7,0.5-1,0.8c-0.1-0.4-0.4-0.9-0.3-1c0.4-0.3,0.8-0.4,1.3-0.5
			C552.8,449.8,552.8,450,552.8,450.3z"/>
		<path fill="#ECC01C" d="M433.1,273.1c-0.2-0.2-0.4-0.4-0.6-0.6c0.4-0.2,0.7-0.4,1.1-0.5c0.1,0,0.4,0.3,0.6,0.5
			C433.8,272.7,433.4,272.9,433.1,273.1z"/>
		<path fill="#ECC01C" d="M437.6,270.7c-0.3,0.3-0.7,0.5-1,0.8c-0.1-0.4-0.4-0.9-0.3-1c0.4-0.3,0.8-0.4,1.3-0.5
			C437.6,270.2,437.6,270.5,437.6,270.7z"/>
		<path fill="#ECC01C" d="M1074.6,269c-0.3,0.3-0.7,0.5-1,0.8c-0.1-0.4-0.4-0.9-0.3-1c0.4-0.3,0.8-0.4,1.3-0.5
			C1074.6,268.5,1074.6,268.8,1074.6,269z"/>
		<path fill="#ECC01C" d="M514.1,460.8c0.2-0.4,0.4-0.7,0.6-1.1c0.2,0.2,0.6,0.4,0.5,0.6c-0.1,0.4-0.3,0.8-0.5,1.1
			C514.5,461.2,514.3,461,514.1,460.8z"/>
	</g>
</g>
</svg>
